<?xml version="1.0" encoding="utf-8"?>
<!-- Generator: Adobe Illustrator 23.1.1, SVG Export Plug-In . SVG Version: 6.00 Build 0)  -->
<svg version="1.1" id="Capa_1" xmlns="http://www.w3.org/2000/svg" xmlns:xlink="http://www.w3.org/1999/xlink" x="0px" y="0px"
	 viewBox="0 0 315.7 80.8" style="enable-background:new 0 0 315.7 80.8;" xml:space="preserve">
<style type="text/css">
	.st0{fill:#6C3088;}
	.st1{clip-path:url(#SVGID_2_);fill:#203C89;}
	.st2{clip-path:url(#SVGID_4_);fill:#FFCC04;}
	.st3{clip-path:url(#SVGID_6_);fill:#FFCC04;}
	.st4{clip-path:url(#SVGID_8_);fill:#FFCC04;}
	.st5{clip-path:url(#SVGID_10_);fill:#FFCC04;}
	.st6{clip-path:url(#SVGID_12_);fill:#FFCC04;}
	.st7{clip-path:url(#SVGID_14_);fill:#FFCC04;}
	.st8{clip-path:url(#SVGID_16_);fill:#FFCC04;}
	.st9{clip-path:url(#SVGID_18_);fill:#FFCC04;}
	.st10{clip-path:url(#SVGID_20_);fill:#FFCC04;}
	.st11{clip-path:url(#SVGID_22_);fill:#FFCC04;}
	.st12{clip-path:url(#SVGID_24_);fill:#FFCC04;}
	.st13{clip-path:url(#SVGID_26_);fill:#FFCC04;}
	.st14{fill:#020304;}
</style>
<g>
	<path class="st0" d="M114.1,19.9c1.8,0,3.2,0.5,4.3,1.5c1.1,1,1.6,2.5,1.6,4.4v1.7h-8.4c0,1,0.3,1.8,0.9,2.4
		c0.6,0.6,1.4,0.9,2.4,0.9c0.8,0,1.6-0.1,2.3-0.3c0.7-0.2,1.4-0.4,2.1-0.8v2.8c-0.7,0.3-1.3,0.6-2,0.7c-0.7,0.2-1.6,0.2-2.6,0.2
		c-1.3,0-2.5-0.2-3.5-0.7c-1-0.5-1.8-1.2-2.4-2.2c-0.6-1-0.9-2.2-0.9-3.8c0-1.5,0.3-2.8,0.8-3.8c0.5-1,1.2-1.8,2.2-2.3
		C111.8,20.1,112.9,19.9,114.1,19.9z M114.1,22.4c-0.7,0-1.3,0.2-1.7,0.7c-0.4,0.4-0.7,1.1-0.8,2.1h5c0-0.8-0.2-1.4-0.6-2
		C115.6,22.7,115,22.4,114.1,22.4z"/>
	<path class="st0" d="M134.9,20.1v13.1h-2.7l-0.5-1.7h-0.2c-0.4,0.7-1,1.2-1.7,1.5s-1.5,0.5-2.3,0.5c-1.4,0-2.5-0.4-3.4-1.1
		c-0.8-0.8-1.3-2-1.3-3.7v-8.5h3.6v7.7c0,0.9,0.2,1.7,0.5,2.1c0.3,0.5,0.9,0.7,1.6,0.7c1.1,0,1.8-0.4,2.2-1.1
		c0.4-0.7,0.6-1.8,0.6-3.2v-6.2H134.9z"/>
	<path class="st0" d="M146,19.9c0.2,0,0.4,0,0.6,0c0.2,0,0.4,0,0.6,0.1l-0.3,3.4c-0.1,0-0.3-0.1-0.5-0.1c-0.2,0-0.4,0-0.6,0
		c-0.6,0-1.2,0.1-1.8,0.3s-1,0.6-1.4,1c-0.3,0.5-0.5,1.1-0.5,2v6.7h-3.6V20.1h2.7l0.5,2.2h0.2c0.4-0.7,0.9-1.2,1.6-1.7
		C144.3,20.1,145.1,19.9,146,19.9z"/>
	<path class="st0" d="M161,26.7c0,2.2-0.6,3.9-1.7,5c-1.1,1.2-2.7,1.8-4.7,1.8c-1.2,0-2.3-0.3-3.3-0.8c-1-0.5-1.7-1.3-2.2-2.3
		c-0.5-1-0.8-2.3-0.8-3.7c0-2.2,0.6-3.8,1.7-5c1.1-1.2,2.7-1.8,4.7-1.8c1.2,0,2.3,0.3,3.3,0.8c0.9,0.5,1.7,1.3,2.2,2.3
		S161,25.2,161,26.7z M151.9,26.7c0,1.3,0.2,2.3,0.6,2.9s1.1,1,2.1,1c0.9,0,1.6-0.3,2.1-1c0.4-0.7,0.6-1.6,0.6-2.9
		c0-1.3-0.2-2.3-0.6-2.9c-0.4-0.6-1.1-1-2.1-1c-0.9,0-1.6,0.3-2.1,1C152.2,24.4,151.9,25.4,151.9,26.7z"/>
	<path class="st0" d="M171.2,19.9c1.5,0,2.7,0.6,3.6,1.7c0.9,1.1,1.4,2.8,1.4,5.1c0,2.2-0.5,3.9-1.4,5.1c-0.9,1.2-2.2,1.7-3.6,1.7
		c-0.9,0-1.7-0.2-2.3-0.5c-0.6-0.3-1-0.7-1.4-1.2h-0.2c0.1,0.7,0.2,1.3,0.2,1.9V39h-3.6V20.1h2.9l0.5,1.7h0.2c0.4-0.5,0.8-1,1.4-1.4
		S170.3,19.9,171.2,19.9z M170.1,22.7c-0.9,0-1.6,0.3-2,0.9c-0.4,0.6-0.6,1.5-0.6,2.6v0.4c0,1.3,0.2,2.2,0.6,2.9
		c0.4,0.7,1.1,1,2.1,1c0.8,0,1.4-0.3,1.8-1s0.6-1.7,0.6-2.9C172.5,24,171.7,22.7,170.1,22.7z"/>
	<path class="st0" d="M184.5,19.9c1.8,0,3.1,0.4,4,1.1s1.4,1.9,1.4,3.5v8.7h-2.5l-0.7-1.8h-0.1c-0.6,0.7-1.2,1.2-1.8,1.5
		c-0.6,0.3-1.5,0.5-2.6,0.5c-1.2,0-2.1-0.3-2.9-1c-0.8-0.7-1.2-1.7-1.2-3.1c0-1.4,0.5-2.4,1.5-3.1c1-0.7,2.4-1,4.4-1.1l2.3-0.1v-0.6
		c0-0.7-0.2-1.2-0.5-1.5c-0.4-0.3-0.9-0.5-1.5-0.5c-0.6,0-1.3,0.1-1.9,0.3c-0.6,0.2-1.2,0.4-1.8,0.7l-1.2-2.4
		c0.7-0.4,1.5-0.6,2.3-0.9C182.7,20,183.6,19.9,184.5,19.9z M186.4,27.2l-1.4,0c-1.2,0-2,0.2-2.4,0.6c-0.4,0.4-0.7,0.9-0.7,1.5
		c0,0.5,0.2,0.9,0.5,1.2c0.3,0.2,0.7,0.3,1.2,0.3c0.8,0,1.4-0.2,1.9-0.7s0.8-1.1,0.8-1.9V27.2z"/>
	<path class="st0" d="M202.8,29.3c0,1.3-0.5,2.3-1.4,3.1c-0.9,0.7-2.3,1.1-4.2,1.1c-0.9,0-1.7-0.1-2.4-0.2s-1.3-0.3-2-0.6v-3
		c0.7,0.3,1.5,0.6,2.3,0.8c0.8,0.2,1.5,0.3,2.2,0.3c0.7,0,1.2-0.1,1.5-0.3c0.3-0.2,0.5-0.5,0.5-0.8c0-0.2-0.1-0.4-0.2-0.6
		s-0.4-0.4-0.8-0.6c-0.4-0.2-1-0.5-1.9-0.9c-0.8-0.4-1.5-0.7-2-1c-0.5-0.3-0.9-0.8-1.2-1.2s-0.4-1.1-0.4-1.8c0-1.2,0.5-2.1,1.4-2.7
		c0.9-0.6,2.2-0.9,3.8-0.9c0.8,0,1.6,0.1,2.3,0.2s1.5,0.4,2.3,0.8l-1.1,2.6c-0.6-0.3-1.2-0.5-1.8-0.7c-0.6-0.2-1.2-0.3-1.8-0.3
		c-1.1,0-1.6,0.3-1.6,0.9c0,0.2,0.1,0.4,0.2,0.6c0.1,0.2,0.4,0.3,0.8,0.5c0.4,0.2,1,0.4,1.7,0.8c0.8,0.3,1.4,0.6,1.9,0.9
		s1,0.7,1.3,1.2C202.6,27.9,202.8,28.6,202.8,29.3z"/>
	<path class="st0" d="M214.7,29.3c0,1.3-0.5,2.3-1.4,3.1c-0.9,0.7-2.3,1.1-4.2,1.1c-0.9,0-1.7-0.1-2.4-0.2s-1.3-0.3-2-0.6v-3
		c0.7,0.3,1.5,0.6,2.3,0.8c0.8,0.2,1.5,0.3,2.2,0.3c0.7,0,1.2-0.1,1.5-0.3c0.3-0.2,0.5-0.5,0.5-0.8c0-0.2-0.1-0.4-0.2-0.6
		s-0.4-0.4-0.8-0.6c-0.4-0.2-1-0.5-1.9-0.9c-0.8-0.4-1.5-0.7-2-1c-0.5-0.3-0.9-0.8-1.2-1.2s-0.4-1.1-0.4-1.8c0-1.2,0.5-2.1,1.4-2.7
		c0.9-0.6,2.2-0.9,3.8-0.9c0.8,0,1.6,0.1,2.3,0.2s1.5,0.4,2.3,0.8l-1.1,2.6c-0.6-0.3-1.2-0.5-1.8-0.7c-0.6-0.2-1.2-0.3-1.8-0.3
		c-1.1,0-1.6,0.3-1.6,0.9c0,0.2,0.1,0.4,0.2,0.6c0.1,0.2,0.4,0.3,0.8,0.5c0.4,0.2,1,0.4,1.7,0.8c0.8,0.3,1.4,0.6,1.9,0.9
		s1,0.7,1.3,1.2C214.6,27.9,214.7,28.6,214.7,29.3z"/>
</g>
<g>
	<defs>
		<rect id="SVGID_1_" x="25.3" y="16" width="69" height="46"/>
	</defs>
	<clipPath id="SVGID_2_">
		<use xlink:href="#SVGID_1_"  style="overflow:visible;"/>
	</clipPath>
	<rect x="20.3" y="11" class="st1" width="79" height="56"/>
</g>
<g>
	<defs>
		<polygon id="SVGID_3_" points="59.9,52.6 58.4,51.5 59,53.2 57.5,54.3 59.3,54.2 59.9,56 60.4,54.2 62.2,54.3 60.7,53.2 
			61.3,51.5 		"/>
	</defs>
	<clipPath id="SVGID_4_">
		<use xlink:href="#SVGID_3_"  style="overflow:visible;"/>
	</clipPath>
	<rect x="52.5" y="46.5" class="st2" width="14.7" height="14.5"/>
</g>
<g>
	<defs>
		<polygon id="SVGID_5_" points="67.3,50.6 65.9,49.5 66.5,51.2 65,52.3 66.8,52.2 67.3,54 67.8,52.2 69.7,52.3 68.2,51.2 
			68.8,49.5 		"/>
	</defs>
	<clipPath id="SVGID_6_">
		<use xlink:href="#SVGID_5_"  style="overflow:visible;"/>
	</clipPath>
	<rect x="60" y="44.5" class="st3" width="14.7" height="14.5"/>
</g>
<g>
	<defs>
		<polygon id="SVGID_7_" points="72.8,45.1 71.4,44 72,45.7 70.5,46.8 72.3,46.7 72.8,48.5 73.4,46.7 75.2,46.8 73.7,45.7 74.3,44 
					"/>
	</defs>
	<clipPath id="SVGID_8_">
		<use xlink:href="#SVGID_7_"  style="overflow:visible;"/>
	</clipPath>
	<rect x="65.5" y="39" class="st4" width="14.7" height="14.5"/>
</g>
<g>
	<defs>
		<polygon id="SVGID_9_" points="74.8,37.6 73.4,36.5 74,38.2 72.5,39.2 74.3,39.2 74.8,40.9 75.4,39.2 77.2,39.2 75.7,38.2 
			76.3,36.5 		"/>
	</defs>
	<clipPath id="SVGID_10_">
		<use xlink:href="#SVGID_9_"  style="overflow:visible;"/>
	</clipPath>
	<rect x="67.5" y="31.5" class="st5" width="14.7" height="14.5"/>
</g>
<g>
	<defs>
		<polygon id="SVGID_11_" points="72.8,30 71.4,28.9 72,30.6 70.5,31.7 72.3,31.6 72.8,33.4 73.4,31.6 75.2,31.7 73.7,30.6 
			74.3,28.9 		"/>
	</defs>
	<clipPath id="SVGID_12_">
		<use xlink:href="#SVGID_11_"  style="overflow:visible;"/>
	</clipPath>
	<rect x="65.5" y="23.9" class="st6" width="14.7" height="14.5"/>
</g>
<g>
	<defs>
		<polygon id="SVGID_13_" points="67.3,24.5 65.9,23.4 66.5,25.1 65,26.2 66.8,26.1 67.3,27.9 67.8,26.1 69.7,26.2 68.2,25.1 
			68.8,23.4 		"/>
	</defs>
	<clipPath id="SVGID_14_">
		<use xlink:href="#SVGID_13_"  style="overflow:visible;"/>
	</clipPath>
	<rect x="60" y="18.4" class="st7" width="14.7" height="14.5"/>
</g>
<g>
	<defs>
		<polygon id="SVGID_15_" points="59.9,22.6 58.4,21.5 59,23.2 57.5,24.2 59.3,24.2 59.9,25.9 60.4,24.2 62.2,24.2 60.7,23.2 
			61.3,21.5 		"/>
	</defs>
	<clipPath id="SVGID_16_">
		<use xlink:href="#SVGID_15_"  style="overflow:visible;"/>
	</clipPath>
	<rect x="52.5" y="16.5" class="st8" width="14.7" height="14.5"/>
</g>
<g>
	<defs>
		<polygon id="SVGID_17_" points="52.2,24.5 50.8,23.4 51.4,25.1 49.9,26.2 51.7,26.1 52.2,27.9 52.8,26.1 54.6,26.2 53.1,25.1 
			53.7,23.4 		"/>
	</defs>
	<clipPath id="SVGID_18_">
		<use xlink:href="#SVGID_17_"  style="overflow:visible;"/>
	</clipPath>
	<rect x="44.9" y="18.4" class="st9" width="14.7" height="14.5"/>
</g>
<g>
	<defs>
		<polygon id="SVGID_19_" points="46.7,30 45.3,28.9 45.9,30.6 44.4,31.7 46.2,31.6 46.7,33.4 47.2,31.6 49.1,31.7 47.6,30.6 
			48.2,28.9 		"/>
	</defs>
	<clipPath id="SVGID_20_">
		<use xlink:href="#SVGID_19_"  style="overflow:visible;"/>
	</clipPath>
	<rect x="39.4" y="23.9" class="st10" width="14.7" height="14.5"/>
</g>
<g>
	<defs>
		<polygon id="SVGID_21_" points="44.8,37.6 43.3,36.5 43.9,38.3 42.4,39.3 44.3,39.3 44.8,41 45.3,39.3 47.1,39.3 45.6,38.3 
			46.2,36.5 		"/>
	</defs>
	<clipPath id="SVGID_22_">
		<use xlink:href="#SVGID_21_"  style="overflow:visible;"/>
	</clipPath>
	<rect x="37.4" y="31.5" class="st11" width="14.7" height="14.5"/>
</g>
<g>
	<defs>
		<polygon id="SVGID_23_" points="46.7,45.1 45.3,44 45.9,45.7 44.4,46.8 46.2,46.7 46.7,48.5 47.2,46.7 49.1,46.8 47.6,45.7 
			48.2,44 		"/>
	</defs>
	<clipPath id="SVGID_24_">
		<use xlink:href="#SVGID_23_"  style="overflow:visible;"/>
	</clipPath>
	<rect x="39.4" y="39" class="st12" width="14.7" height="14.5"/>
</g>
<g>
	<defs>
		<polygon id="SVGID_25_" points="52.2,50.6 50.8,49.5 51.4,51.2 49.9,52.3 51.7,52.2 52.2,54 52.8,52.2 54.6,52.3 53.1,51.2 
			53.7,49.5 		"/>
	</defs>
	<clipPath id="SVGID_26_">
		<use xlink:href="#SVGID_25_"  style="overflow:visible;"/>
	</clipPath>
	<rect x="44.9" y="44.5" class="st13" width="14.7" height="14.5"/>
</g>
<g>
	<path class="st14" d="M108.7,60V42.8h12.4v2H111v5.3h9.5v2H111V58h10.5v2H108.7z"/>
	<path class="st14" d="M124.4,47.5h4.9c1.2,0,2.1,0.1,2.7,0.3s1.1,0.6,1.5,1.1s0.6,1.2,0.6,1.9c0,0.6-0.1,1.1-0.4,1.6
		s-0.6,0.8-1.1,1.1c0.6,0.2,1.1,0.6,1.5,1.1s0.6,1.2,0.6,1.9c-0.1,1.2-0.5,2.1-1.3,2.6s-1.9,0.9-3.3,0.9h-5.6V47.5z M126.6,52.8h2.2
		c0.9,0,1.5,0,1.9-0.1s0.6-0.3,0.9-0.6s0.4-0.6,0.4-1c0-0.7-0.2-1.1-0.7-1.4s-1.3-0.4-2.4-0.4h-2.3V52.8z M126.6,58.3h2.8
		c1.2,0,2-0.1,2.5-0.4s0.7-0.8,0.7-1.4c0-0.4-0.1-0.8-0.4-1.1s-0.6-0.6-1-0.6s-1.1-0.1-2-0.1h-2.6V58.3z"/>
	<path class="st14" d="M137.2,64.8V47.5h1.9v1.6c0.5-0.6,1-1.1,1.5-1.4s1.3-0.5,2.1-0.5c1.1,0,2,0.3,2.8,0.8s1.4,1.3,1.8,2.3
		s0.6,2.1,0.6,3.3c0,1.3-0.2,2.4-0.7,3.4s-1.1,1.8-2,2.3s-1.8,0.8-2.7,0.8c-0.7,0-1.3-0.1-1.9-0.4s-1-0.7-1.4-1.1v6.1H137.2z
		 M139.1,53.8c0,1.6,0.3,2.8,1,3.6s1.4,1.1,2.4,1.1c0.9,0,1.7-0.4,2.4-1.2s1-2,1-3.7c0-1.6-0.3-2.8-1-3.6s-1.4-1.2-2.3-1.2
		c-0.9,0-1.7,0.4-2.4,1.3S139.1,52.2,139.1,53.8z"/>
	<path class="st14" d="M149.7,53.8c0-2.3,0.6-4,1.9-5.1c1.1-0.9,2.4-1.4,3.9-1.4c1.7,0,3.1,0.6,4.2,1.7s1.6,2.7,1.6,4.6
		c0,1.6-0.2,2.9-0.7,3.8s-1.2,1.6-2.1,2.1s-1.9,0.8-3,0.8c-1.7,0-3.2-0.6-4.2-1.7S149.7,55.9,149.7,53.8z M151.9,53.8
		c0,1.6,0.3,2.8,1,3.6s1.6,1.2,2.6,1.2c1,0,1.9-0.4,2.6-1.2s1-2,1-3.6c0-1.5-0.3-2.7-1-3.5s-1.6-1.2-2.6-1.2c-1.1,0-1.9,0.4-2.6,1.2
		S151.9,52.2,151.9,53.8z"/>
	<path class="st14" d="M163.9,47.5h9.8V60h-2.1V49.3H166V60h-2.1V47.5z"/>
	<path class="st14" d="M185.4,56l2.2,0.3c-0.3,1.3-1,2.3-1.9,3s-2.1,1.1-3.6,1.1c-1.8,0-3.3-0.6-4.3-1.7s-1.6-2.7-1.6-4.7
		c0-2.1,0.5-3.7,1.6-4.9s2.5-1.7,4.2-1.7c1.7,0,3,0.6,4.1,1.7s1.6,2.7,1.6,4.8c0,0.1,0,0.3,0,0.6h-9.3c0.1,1.4,0.5,2.4,1.2,3.1
		s1.6,1.1,2.6,1.1c0.8,0,1.4-0.2,2-0.6S185.1,56.9,185.4,56z M178.5,52.6h6.9c-0.1-1-0.4-1.8-0.8-2.4c-0.7-0.8-1.5-1.2-2.6-1.2
		c-1,0-1.8,0.3-2.4,1S178.5,51.5,178.5,52.6z"/>
	<path class="st14" d="M190.2,47.5h2.1V57l5.8-9.5h2.3V60h-2.1v-9.4l-5.8,9.4h-2.3V47.5z M197.5,42.8h1.4c-0.1,1-0.5,1.7-1.1,2.2
		s-1.4,0.8-2.4,0.8c-1,0-1.8-0.3-2.4-0.8s-1-1.3-1.1-2.3h1.4c0.1,0.5,0.3,0.9,0.7,1.2s0.8,0.4,1.3,0.4c0.6,0,1.1-0.1,1.4-0.4
		S197.4,43.4,197.5,42.8z"/>
	<path class="st14" d="M211.8,55.4l2.1,0.3c-0.2,1.4-0.8,2.5-1.7,3.4s-2.1,1.2-3.4,1.2c-1.7,0-3.1-0.6-4.1-1.7s-1.6-2.7-1.6-4.8
		c0-1.3,0.2-2.5,0.7-3.5s1.1-1.8,2-2.3s1.9-0.8,3-0.8c1.4,0,2.5,0.3,3.3,1s1.4,1.7,1.7,2.9l-2.1,0.3c-0.2-0.8-0.5-1.5-1-1.9
		c-0.5-0.4-1.1-0.6-1.8-0.6c-1.1,0-1.9,0.4-2.6,1.1s-1,2-1,3.6c0,1.7,0.3,2.9,1,3.6s1.5,1.1,2.5,1.1c0.8,0,1.5-0.3,2.1-0.8
		C211.3,57.3,211.6,56.5,211.8,55.4z"/>
	<path class="st14" d="M215.6,47.5h2.1v5.4c0.7,0,1.1-0.1,1.4-0.4s0.7-1,1.2-2.2c0.4-1,0.8-1.6,1-1.9s0.6-0.5,0.9-0.6
		s0.9-0.2,1.6-0.2h0.4v1.7l-0.6,0c-0.6,0-0.9,0.1-1.1,0.2c-0.2,0.2-0.4,0.7-0.8,1.5c-0.3,0.8-0.6,1.4-0.9,1.7s-0.7,0.6-1.2,0.9
		c0.9,0.2,1.8,1.1,2.7,2.5l2.3,3.9h-2.3l-2.2-3.9c-0.5-0.8-0.9-1.3-1.2-1.5s-0.8-0.4-1.2-0.4V60h-2.1V47.5z"/>
	<path class="st14" d="M226.1,47.5h2.1V57l5.8-9.5h2.3V60h-2.1v-9.4l-5.8,9.4h-2.3V47.5z"/>
	<path class="st14" d="M254.3,55.4l2.1,0.3c-0.2,1.4-0.8,2.5-1.7,3.4s-2.1,1.2-3.4,1.2c-1.7,0-3.1-0.6-4.1-1.7s-1.6-2.7-1.6-4.8
		c0-1.3,0.2-2.5,0.7-3.5s1.1-1.8,2-2.3s1.9-0.8,3-0.8c1.4,0,2.5,0.3,3.3,1s1.4,1.7,1.7,2.9l-2.1,0.3c-0.2-0.8-0.5-1.5-1-1.9
		S252,49,251.3,49c-1.1,0-1.9,0.4-2.6,1.1s-1,2-1,3.6c0,1.7,0.3,2.9,1,3.6s1.5,1.1,2.5,1.1c0.8,0,1.5-0.3,2.1-0.8
		S254.2,56.5,254.3,55.4z"/>
	<path class="st14" d="M257.1,47.5h5.6v4.9h2.7c1.9,0,3.3,0.4,4.1,1.1s1.3,1.6,1.3,2.7c0,1.1-0.4,2-1.2,2.7s-2.1,1-3.7,1h-5.3V49.3
		h-3.5V47.5z M262.7,58.3h2.2c1.3,0,2.3-0.2,2.9-0.5s0.8-0.8,0.8-1.6c0-0.7-0.2-1.2-0.7-1.5s-1.4-0.5-2.7-0.5h-2.5V58.3z"/>
	<path class="st14" d="M273.2,47.5h2.1v5.2h2.6c0.2-1.8,0.7-3.1,1.7-4.1s2.1-1.4,3.6-1.4c1.3,0,2.2,0.3,3,0.8s1.3,1.2,1.8,2.1
		s0.7,2.1,0.7,3.6c0,2.1-0.5,3.8-1.5,4.9s-2.3,1.7-4,1.7c-1.6,0-2.8-0.5-3.7-1.5s-1.5-2.4-1.6-4.2h-2.6V60h-2.1V47.5z M283.3,49.1
		c-1,0-1.8,0.4-2.4,1.2s-0.9,1.9-0.9,3.3c0,1.7,0.3,3,0.9,3.8s1.4,1.2,2.3,1.2c1,0,1.7-0.4,2.4-1.1s0.9-1.9,0.9-3.6
		c0-1.6-0.3-2.8-0.8-3.6S284.4,49.1,283.3,49.1z"/>
	<path class="st14" d="M294,54.4v-1.7c0.9,0,1.5,0,1.8-0.1s0.6-0.2,0.9-0.6s0.4-0.7,0.4-1.2c0-0.6-0.2-1-0.6-1.4s-0.9-0.5-1.5-0.5
		c-1.2,0-2,0.7-2.5,2.1l-2-0.3c0.6-2.3,2.1-3.5,4.5-3.5c1.3,0,2.4,0.4,3.1,1.1s1.1,1.6,1.1,2.6c0,1-0.5,1.8-1.5,2.4
		c0.6,0.3,1.1,0.8,1.4,1.3s0.5,1.1,0.5,1.8c0,1.1-0.4,2-1.2,2.7s-1.9,1-3.4,1c-2.8,0-4.5-1.3-4.9-3.8l2-0.4c0.2,0.8,0.5,1.4,1.1,1.9
		s1.2,0.7,1.9,0.7s1.3-0.2,1.8-0.6s0.7-0.9,0.7-1.5c0-0.5-0.1-0.9-0.4-1.3s-0.6-0.6-0.9-0.7s-0.9-0.1-1.8-0.1
		C294.4,54.4,294.2,54.4,294,54.4z"/>
</g>
</svg>
