<?xml version="1.0" encoding="utf-8"?>
<!-- Generator: Adobe Illustrator 23.1.1, SVG Export Plug-In . SVG Version: 6.00 Build 0)  -->
<svg version="1.1" id="Capa_1" xmlns="http://www.w3.org/2000/svg" xmlns:xlink="http://www.w3.org/1999/xlink" x="0px" y="0px"
	 viewBox="0 0 303.4 80.8" style="enable-background:new 0 0 303.4 80.8;" xml:space="preserve">
<style type="text/css">
	.st0{fill:#6C3088;}
	.st1{clip-path:url(#SVGID_2_);fill:#203C89;}
	.st2{clip-path:url(#SVGID_4_);fill:#FFCC04;}
	.st3{clip-path:url(#SVGID_6_);fill:#FFCC04;}
	.st4{clip-path:url(#SVGID_8_);fill:#FFCC04;}
	.st5{clip-path:url(#SVGID_10_);fill:#FFCC04;}
	.st6{clip-path:url(#SVGID_12_);fill:#FFCC04;}
	.st7{clip-path:url(#SVGID_14_);fill:#FFCC04;}
	.st8{clip-path:url(#SVGID_16_);fill:#FFCC04;}
	.st9{clip-path:url(#SVGID_18_);fill:#FFCC04;}
	.st10{clip-path:url(#SVGID_20_);fill:#FFCC04;}
	.st11{clip-path:url(#SVGID_22_);fill:#FFCC04;}
	.st12{clip-path:url(#SVGID_24_);fill:#FFCC04;}
	.st13{clip-path:url(#SVGID_26_);fill:#FFCC04;}
	.st14{fill:#020304;}
</style>
<g>
	<path class="st0" d="M118.6,19.9c1.8,0,3.2,0.5,4.3,1.5c1.1,1,1.6,2.5,1.6,4.4v1.7H116c0,1,0.3,1.8,0.9,2.4
		c0.6,0.6,1.4,0.9,2.4,0.9c0.8,0,1.6-0.1,2.3-0.3s1.4-0.4,2.1-0.8v2.8c-0.7,0.3-1.3,0.6-2,0.7c-0.7,0.2-1.6,0.2-2.6,0.2
		c-1.3,0-2.5-0.2-3.5-0.7c-1-0.5-1.8-1.2-2.4-2.2c-0.6-1-0.9-2.2-0.9-3.8c0-1.5,0.3-2.8,0.8-3.8c0.5-1,1.2-1.8,2.2-2.3
		C116.3,20.1,117.4,19.9,118.6,19.9z M118.6,22.4c-0.7,0-1.3,0.2-1.7,0.7c-0.4,0.4-0.7,1.1-0.8,2.1h5c0-0.8-0.2-1.4-0.6-2
		C120.1,22.7,119.5,22.4,118.6,22.4z"/>
	<path class="st0" d="M139.4,20.1v13.1h-2.7l-0.5-1.7H136c-0.4,0.7-1,1.2-1.7,1.5c-0.7,0.3-1.5,0.5-2.3,0.5c-1.4,0-2.5-0.4-3.4-1.1
		c-0.8-0.8-1.3-2-1.3-3.7v-8.5h3.6v7.7c0,0.9,0.2,1.7,0.5,2.1c0.3,0.5,0.9,0.7,1.6,0.7c1.1,0,1.8-0.4,2.2-1.1
		c0.4-0.7,0.6-1.8,0.6-3.2v-6.2H139.4z"/>
	<path class="st0" d="M150.5,19.9c0.2,0,0.4,0,0.6,0c0.2,0,0.4,0,0.6,0.1l-0.3,3.4c-0.1,0-0.3-0.1-0.5-0.1c-0.2,0-0.4,0-0.6,0
		c-0.6,0-1.2,0.1-1.8,0.3c-0.6,0.2-1,0.6-1.4,1c-0.3,0.5-0.5,1.1-0.5,2v6.7h-3.6V20.1h2.7l0.5,2.2h0.2c0.4-0.7,0.9-1.2,1.6-1.7
		C148.8,20.1,149.6,19.9,150.5,19.9z"/>
	<path class="st0" d="M165.5,26.7c0,2.2-0.6,3.9-1.7,5c-1.1,1.2-2.7,1.8-4.7,1.8c-1.2,0-2.3-0.3-3.3-0.8c-1-0.5-1.7-1.3-2.2-2.3
		c-0.5-1-0.8-2.3-0.8-3.7c0-2.2,0.6-3.8,1.7-5s2.7-1.8,4.7-1.8c1.2,0,2.3,0.3,3.3,0.8c0.9,0.5,1.7,1.3,2.2,2.3
		S165.5,25.2,165.5,26.7z M156.4,26.7c0,1.3,0.2,2.3,0.6,2.9s1.1,1,2.1,1c0.9,0,1.6-0.3,2.1-1s0.6-1.6,0.6-2.9
		c0-1.3-0.2-2.3-0.6-2.9c-0.4-0.6-1.1-1-2.1-1c-0.9,0-1.6,0.3-2.1,1C156.6,24.4,156.4,25.4,156.4,26.7z"/>
	<path class="st0" d="M175.7,19.9c1.5,0,2.7,0.6,3.6,1.7c0.9,1.1,1.4,2.8,1.4,5.1c0,2.2-0.5,3.9-1.4,5.1c-0.9,1.2-2.2,1.7-3.6,1.7
		c-0.9,0-1.7-0.2-2.3-0.5c-0.6-0.3-1-0.7-1.4-1.2h-0.2c0.1,0.7,0.2,1.3,0.2,1.9V39h-3.6V20.1h2.9l0.5,1.7h0.2c0.4-0.5,0.8-1,1.4-1.4
		S174.8,19.9,175.7,19.9z M174.6,22.7c-0.9,0-1.6,0.3-2,0.9c-0.4,0.6-0.6,1.5-0.6,2.6v0.4c0,1.3,0.2,2.2,0.6,2.9
		c0.4,0.7,1.1,1,2.1,1c0.8,0,1.4-0.3,1.8-1c0.4-0.7,0.6-1.7,0.6-2.9C177,24,176.2,22.7,174.6,22.7z"/>
	<path class="st0" d="M189,19.9c1.8,0,3.1,0.4,4,1.1c0.9,0.8,1.4,1.9,1.4,3.5v8.7h-2.5l-0.7-1.8h-0.1c-0.6,0.7-1.2,1.2-1.8,1.5
		c-0.6,0.3-1.5,0.5-2.6,0.5c-1.2,0-2.1-0.3-2.9-1c-0.8-0.7-1.2-1.7-1.2-3.1c0-1.4,0.5-2.4,1.5-3.1c1-0.7,2.4-1,4.4-1.1l2.3-0.1v-0.6
		c0-0.7-0.2-1.2-0.5-1.5c-0.4-0.3-0.9-0.5-1.5-0.5c-0.6,0-1.3,0.1-1.9,0.3c-0.6,0.2-1.2,0.4-1.8,0.7L184,21c0.7-0.4,1.5-0.6,2.3-0.9
		C187.2,20,188.1,19.9,189,19.9z M190.9,27.2l-1.4,0c-1.2,0-2,0.2-2.4,0.6c-0.4,0.4-0.7,0.9-0.7,1.5c0,0.5,0.2,0.9,0.5,1.2
		c0.3,0.2,0.7,0.3,1.2,0.3c0.8,0,1.4-0.2,1.9-0.7c0.5-0.5,0.8-1.1,0.8-1.9V27.2z"/>
	<path class="st0" d="M207.3,29.3c0,1.3-0.5,2.3-1.4,3.1c-0.9,0.7-2.3,1.1-4.2,1.1c-0.9,0-1.7-0.1-2.4-0.2s-1.3-0.3-2-0.6v-3
		c0.7,0.3,1.5,0.6,2.3,0.8c0.8,0.2,1.5,0.3,2.2,0.3c0.7,0,1.2-0.1,1.5-0.3s0.5-0.5,0.5-0.8c0-0.2-0.1-0.4-0.2-0.6s-0.4-0.4-0.8-0.6
		c-0.4-0.2-1-0.5-1.9-0.9c-0.8-0.4-1.5-0.7-2-1c-0.5-0.3-0.9-0.8-1.2-1.2s-0.4-1.1-0.4-1.8c0-1.2,0.5-2.1,1.4-2.7s2.2-0.9,3.8-0.9
		c0.8,0,1.6,0.1,2.3,0.2c0.7,0.2,1.5,0.4,2.3,0.8l-1.1,2.6c-0.6-0.3-1.2-0.5-1.8-0.7c-0.6-0.2-1.2-0.3-1.8-0.3
		c-1.1,0-1.6,0.3-1.6,0.9c0,0.2,0.1,0.4,0.2,0.6s0.4,0.3,0.8,0.5c0.4,0.2,1,0.4,1.7,0.8c0.8,0.3,1.4,0.6,1.9,0.9s1,0.7,1.3,1.2
		C207.1,27.9,207.3,28.6,207.3,29.3z"/>
	<path class="st0" d="M219.2,29.3c0,1.3-0.5,2.3-1.4,3.1c-0.9,0.7-2.3,1.1-4.2,1.1c-0.9,0-1.7-0.1-2.4-0.2s-1.3-0.3-2-0.6v-3
		c0.7,0.3,1.5,0.6,2.3,0.8c0.8,0.2,1.5,0.3,2.2,0.3c0.7,0,1.2-0.1,1.5-0.3s0.5-0.5,0.5-0.8c0-0.2-0.1-0.4-0.2-0.6s-0.4-0.4-0.8-0.6
		c-0.4-0.2-1-0.5-1.9-0.9c-0.8-0.4-1.5-0.7-2-1c-0.5-0.3-0.9-0.8-1.2-1.2s-0.4-1.1-0.4-1.8c0-1.2,0.5-2.1,1.4-2.7s2.2-0.9,3.8-0.9
		c0.8,0,1.6,0.1,2.3,0.2c0.7,0.2,1.5,0.4,2.3,0.8l-1.1,2.6c-0.6-0.3-1.2-0.5-1.8-0.7c-0.6-0.2-1.2-0.3-1.8-0.3
		c-1.1,0-1.6,0.3-1.6,0.9c0,0.2,0.1,0.4,0.2,0.6s0.4,0.3,0.8,0.5c0.4,0.2,1,0.4,1.7,0.8c0.8,0.3,1.4,0.6,1.9,0.9s1,0.7,1.3,1.2
		C219,27.9,219.2,28.6,219.2,29.3z"/>
</g>
<g>
	<defs>
		<rect id="SVGID_1_" x="29.8" y="16" width="69" height="46"/>
	</defs>
	<clipPath id="SVGID_2_">
		<use xlink:href="#SVGID_1_"  style="overflow:visible;"/>
	</clipPath>
	<rect x="24.8" y="11" class="st1" width="79" height="56"/>
</g>
<g>
	<defs>
		<polygon id="SVGID_3_" points="64.3,52.6 62.9,51.5 63.5,53.2 62,54.3 63.8,54.2 64.3,56 64.9,54.2 66.7,54.3 65.2,53.2 
			65.8,51.5 		"/>
	</defs>
	<clipPath id="SVGID_4_">
		<use xlink:href="#SVGID_3_"  style="overflow:visible;"/>
	</clipPath>
	<rect x="57" y="46.5" class="st2" width="14.7" height="14.5"/>
</g>
<g>
	<defs>
		<polygon id="SVGID_5_" points="71.8,50.6 70.3,49.5 71,51.2 69.4,52.3 71.3,52.2 71.8,54 72.3,52.2 74.1,52.3 72.6,51.2 
			73.2,49.5 		"/>
	</defs>
	<clipPath id="SVGID_6_">
		<use xlink:href="#SVGID_5_"  style="overflow:visible;"/>
	</clipPath>
	<rect x="64.4" y="44.5" class="st3" width="14.7" height="14.5"/>
</g>
<g>
	<defs>
		<polygon id="SVGID_7_" points="77.3,45.1 75.9,44 76.5,45.7 75,46.8 76.8,46.7 77.3,48.5 77.8,46.7 79.7,46.8 78.2,45.7 78.8,44 
					"/>
	</defs>
	<clipPath id="SVGID_8_">
		<use xlink:href="#SVGID_7_"  style="overflow:visible;"/>
	</clipPath>
	<rect x="70" y="39" class="st4" width="14.7" height="14.5"/>
</g>
<g>
	<defs>
		<polygon id="SVGID_9_" points="79.3,37.6 77.9,36.5 78.5,38.2 77,39.2 78.8,39.2 79.3,40.9 79.9,39.2 81.7,39.2 80.2,38.2 
			80.8,36.5 		"/>
	</defs>
	<clipPath id="SVGID_10_">
		<use xlink:href="#SVGID_9_"  style="overflow:visible;"/>
	</clipPath>
	<rect x="72" y="31.5" class="st5" width="14.7" height="14.5"/>
</g>
<g>
	<defs>
		<polygon id="SVGID_11_" points="77.3,30 75.9,28.9 76.5,30.6 75,31.7 76.8,31.6 77.3,33.4 77.8,31.6 79.7,31.7 78.2,30.6 
			78.8,28.9 		"/>
	</defs>
	<clipPath id="SVGID_12_">
		<use xlink:href="#SVGID_11_"  style="overflow:visible;"/>
	</clipPath>
	<rect x="70" y="23.9" class="st6" width="14.7" height="14.5"/>
</g>
<g>
	<defs>
		<polygon id="SVGID_13_" points="71.8,24.5 70.3,23.4 71,25.1 69.4,26.2 71.3,26.1 71.8,27.9 72.3,26.1 74.1,26.2 72.6,25.1 
			73.2,23.4 		"/>
	</defs>
	<clipPath id="SVGID_14_">
		<use xlink:href="#SVGID_13_"  style="overflow:visible;"/>
	</clipPath>
	<rect x="64.4" y="18.4" class="st7" width="14.7" height="14.5"/>
</g>
<g>
	<defs>
		<polygon id="SVGID_15_" points="64.3,22.6 62.9,21.5 63.5,23.2 62,24.2 63.8,24.2 64.3,25.9 64.9,24.2 66.7,24.2 65.2,23.2 
			65.8,21.5 		"/>
	</defs>
	<clipPath id="SVGID_16_">
		<use xlink:href="#SVGID_15_"  style="overflow:visible;"/>
	</clipPath>
	<rect x="57" y="16.5" class="st8" width="14.7" height="14.5"/>
</g>
<g>
	<defs>
		<polygon id="SVGID_17_" points="56.7,24.5 55.3,23.4 55.9,25.1 54.4,26.2 56.2,26.1 56.7,27.9 57.2,26.1 59.1,26.2 57.6,25.1 
			58.2,23.4 		"/>
	</defs>
	<clipPath id="SVGID_18_">
		<use xlink:href="#SVGID_17_"  style="overflow:visible;"/>
	</clipPath>
	<rect x="49.4" y="18.4" class="st9" width="14.7" height="14.5"/>
</g>
<g>
	<defs>
		<polygon id="SVGID_19_" points="51.2,30 49.7,28.9 50.4,30.6 48.8,31.7 50.7,31.6 51.2,33.4 51.7,31.6 53.5,31.7 52,30.6 
			52.6,28.9 		"/>
	</defs>
	<clipPath id="SVGID_20_">
		<use xlink:href="#SVGID_19_"  style="overflow:visible;"/>
	</clipPath>
	<rect x="43.8" y="23.9" class="st10" width="14.7" height="14.5"/>
</g>
<g>
	<defs>
		<polygon id="SVGID_21_" points="49.3,37.6 47.8,36.5 48.4,38.3 46.9,39.3 48.7,39.3 49.3,41 49.8,39.3 51.6,39.3 50.1,38.3 
			50.7,36.5 		"/>
	</defs>
	<clipPath id="SVGID_22_">
		<use xlink:href="#SVGID_21_"  style="overflow:visible;"/>
	</clipPath>
	<rect x="41.9" y="31.5" class="st11" width="14.7" height="14.5"/>
</g>
<g>
	<defs>
		<polygon id="SVGID_23_" points="51.2,45.1 49.7,44 50.4,45.7 48.8,46.8 50.7,46.7 51.2,48.5 51.7,46.7 53.5,46.8 52,45.7 52.6,44 
					"/>
	</defs>
	<clipPath id="SVGID_24_">
		<use xlink:href="#SVGID_23_"  style="overflow:visible;"/>
	</clipPath>
	<rect x="43.8" y="39" class="st12" width="14.7" height="14.5"/>
</g>
<g>
	<defs>
		<polygon id="SVGID_25_" points="56.7,50.6 55.3,49.5 55.9,51.2 54.4,52.3 56.2,52.2 56.7,54 57.2,52.2 59.1,52.3 57.6,51.2 
			58.2,49.5 		"/>
	</defs>
	<clipPath id="SVGID_26_">
		<use xlink:href="#SVGID_25_"  style="overflow:visible;"/>
	</clipPath>
	<rect x="49.4" y="44.5" class="st13" width="14.7" height="14.5"/>
</g>
<g>
	<path class="st14" d="M113.2,60V42.8h12.4v2h-10.1v5.3h9.5v2h-9.5V58H126v2H113.2z"/>
	<path class="st14" d="M132.4,60l-4.7-12.4h2.2l2.7,7.5c0.3,0.8,0.6,1.6,0.8,2.5c0.2-0.7,0.4-1.4,0.8-2.4l2.8-7.6h2.2L134.3,60
		H132.4z"/>
	<path class="st14" d="M140.9,60V47.5h1.9v1.9c0.5-0.9,0.9-1.5,1.3-1.7s0.9-0.4,1.4-0.4c0.7,0,1.4,0.2,2.2,0.7l-0.7,2
		c-0.5-0.3-1-0.5-1.5-0.5c-0.5,0-0.9,0.1-1.2,0.4s-0.6,0.7-0.8,1.2c-0.2,0.8-0.4,1.6-0.4,2.5V60H140.9z"/>
	<path class="st14" d="M148.1,53.8c0-2.3,0.6-4,1.9-5.1c1.1-0.9,2.4-1.4,3.9-1.4c1.7,0,3.1,0.6,4.2,1.7s1.6,2.7,1.6,4.6
		c0,1.6-0.2,2.9-0.7,3.8s-1.2,1.6-2.1,2.1s-1.9,0.8-3,0.8c-1.7,0-3.2-0.6-4.2-1.7S148.1,55.9,148.1,53.8z M150.3,53.8
		c0,1.6,0.3,2.8,1,3.6s1.6,1.2,2.6,1.2c1,0,1.9-0.4,2.6-1.2s1-2,1-3.6c0-1.5-0.3-2.7-1-3.5S155,49,154,49c-1.1,0-1.9,0.4-2.6,1.2
		S150.3,52.2,150.3,53.8z"/>
	<path class="st14" d="M162.3,64.8V47.5h1.9v1.6c0.5-0.6,1-1.1,1.5-1.4s1.3-0.5,2.1-0.5c1.1,0,2,0.3,2.8,0.8s1.4,1.3,1.8,2.3
		s0.6,2.1,0.6,3.3c0,1.3-0.2,2.4-0.7,3.4s-1.1,1.8-2,2.3s-1.8,0.8-2.7,0.8c-0.7,0-1.3-0.1-1.9-0.4s-1-0.7-1.4-1.1v6.1H162.3z
		 M164.2,53.8c0,1.6,0.3,2.8,1,3.6s1.4,1.1,2.4,1.1c0.9,0,1.7-0.4,2.4-1.2s1-2,1-3.7c0-1.6-0.3-2.8-1-3.6s-1.4-1.2-2.3-1.2
		c-0.9,0-1.7,0.4-2.4,1.3S164.2,52.2,164.2,53.8z"/>
	<path class="st14" d="M174.8,56.3l2.1-0.3c0.1,0.8,0.4,1.5,1,1.9s1.3,0.7,2.2,0.7c1,0,1.7-0.2,2.2-0.6s0.7-0.9,0.7-1.4
		c0-0.5-0.2-0.9-0.6-1.1c-0.3-0.2-1-0.4-2.2-0.7c-1.5-0.4-2.6-0.7-3.2-1s-1.1-0.7-1.4-1.2s-0.5-1.1-0.5-1.7c0-0.6,0.1-1.1,0.4-1.5
		s0.6-0.9,1-1.2c0.3-0.2,0.8-0.4,1.3-0.6s1.2-0.3,1.8-0.3c1,0,1.8,0.1,2.6,0.4s1.3,0.7,1.6,1.1s0.6,1.1,0.7,1.9l-2.1,0.3
		c-0.1-0.6-0.4-1.1-0.8-1.5s-1.1-0.5-1.9-0.5c-1,0-1.7,0.2-2.1,0.5s-0.6,0.7-0.6,1.1c0,0.3,0.1,0.5,0.3,0.7c0.2,0.2,0.4,0.4,0.8,0.6
		c0.2,0.1,0.8,0.3,1.9,0.5c1.5,0.4,2.5,0.7,3.1,1s1.1,0.6,1.4,1.1s0.5,1.1,0.5,1.8c0,0.7-0.2,1.4-0.6,2s-1,1.1-1.8,1.4
		s-1.6,0.5-2.6,0.5c-1.6,0-2.8-0.3-3.7-1S175,57.6,174.8,56.3z"/>
	<path class="st14" d="M187.6,60V42.8h2.1v9.8l5-5.1h2.7l-4.8,4.6l5.2,7.8h-2.6l-4.1-6.4l-1.5,1.4V60H187.6z"/>
	<path class="st14" d="M207.7,58.5c-0.8,0.7-1.5,1.1-2.3,1.4s-1.5,0.4-2.3,0.4c-1.4,0-2.4-0.3-3.2-1s-1.1-1.5-1.1-2.6
		c0-0.6,0.1-1.2,0.4-1.7s0.6-0.9,1.1-1.2s1-0.5,1.5-0.7c0.4-0.1,1-0.2,1.9-0.3c1.7-0.2,3-0.4,3.8-0.7c0-0.3,0-0.5,0-0.6
		c0-0.9-0.2-1.5-0.6-1.8c-0.5-0.5-1.3-0.7-2.4-0.7c-1,0-1.7,0.2-2.2,0.5s-0.8,1-1,1.8l-2.1-0.3c0.2-0.9,0.5-1.6,0.9-2.1
		s1.1-1,1.9-1.3s1.8-0.4,2.8-0.4c1.1,0,1.9,0.1,2.6,0.4s1.2,0.6,1.5,0.9s0.5,0.9,0.7,1.4c0.1,0.4,0.1,1,0.1,1.9v2.8
		c0,2,0,3.2,0.1,3.7s0.3,1,0.5,1.5h-2.2C207.9,59.6,207.8,59,207.7,58.5z M207.6,53.7c-0.8,0.3-1.9,0.6-3.4,0.8
		c-0.9,0.1-1.5,0.3-1.8,0.4s-0.6,0.4-0.8,0.7s-0.3,0.6-0.3,1c0,0.6,0.2,1,0.6,1.4s1,0.6,1.9,0.6c0.8,0,1.5-0.2,2.2-0.5
		s1.1-0.8,1.4-1.5c0.2-0.5,0.3-1.2,0.3-2.1V53.7z M203.5,46l1.6-3.3h2.8l-2.6,3.3H203.5z"/>
	<path class="st14" d="M227.8,60v-1.8c-1,1.4-2.3,2.1-3.9,2.1c-0.7,0-1.4-0.1-2.1-0.4s-1.1-0.6-1.4-1.1s-0.5-0.9-0.7-1.6
		c-0.1-0.4-0.1-1.1-0.1-2v-7.7h2.1v6.9c0,1.1,0,1.8,0.1,2.2c0.1,0.6,0.4,1,0.8,1.3s1,0.5,1.6,0.5s1.2-0.2,1.8-0.5s0.9-0.8,1.2-1.3
		s0.3-1.4,0.3-2.4v-6.7h2.1V60H227.8z"/>
	<path class="st14" d="M233,60V47.5h1.9v1.8c0.9-1.4,2.2-2.1,4-2.1c0.8,0,1.4,0.1,2.1,0.4s1.1,0.6,1.4,1.1s0.5,1,0.7,1.6
		c0.1,0.4,0.1,1.1,0.1,2.1V60H241v-7.6c0-0.9-0.1-1.5-0.2-1.9s-0.5-0.8-0.9-1s-0.9-0.4-1.5-0.4c-0.9,0-1.7,0.3-2.3,0.9s-1,1.7-1,3.2
		V60H233z"/>
	<path class="st14" d="M246.3,45.2v-2.4h2.1v2.4H246.3z M246.3,60V47.5h2.1V60H246.3z"/>
	<path class="st14" d="M260.2,56l2.2,0.3c-0.3,1.3-1,2.3-1.9,3s-2.1,1.1-3.6,1.1c-1.8,0-3.3-0.6-4.3-1.7s-1.6-2.7-1.6-4.7
		c0-2.1,0.5-3.7,1.6-4.9s2.5-1.7,4.2-1.7c1.7,0,3,0.6,4.1,1.7s1.6,2.7,1.6,4.8c0,0.1,0,0.3,0,0.6h-9.3c0.1,1.4,0.5,2.4,1.2,3.1
		s1.6,1.1,2.6,1.1c0.8,0,1.4-0.2,2-0.6S259.9,56.9,260.2,56z M253.2,52.6h6.9c-0.1-1-0.4-1.8-0.8-2.4c-0.7-0.8-1.5-1.2-2.6-1.2
		c-1,0-1.8,0.3-2.4,1S253.3,51.5,253.2,52.6z"/>
</g>
</svg>
