<?xml version="1.0" encoding="utf-8"?>
<!-- Generator: Adobe Illustrator 23.1.1, SVG Export Plug-In . SVG Version: 6.00 Build 0)  -->
<svg version="1.1" id="Capa_1" xmlns="http://www.w3.org/2000/svg" xmlns:xlink="http://www.w3.org/1999/xlink" x="0px" y="0px"
	 viewBox="0 0 288.5 74" style="enable-background:new 0 0 288.5 74;" xml:space="preserve">
<style type="text/css">
	.st0{fill:#6C3088;}
	.st1{clip-path:url(#SVGID_2_);fill:#203C89;}
	.st2{clip-path:url(#SVGID_4_);fill:#FFCC04;}
	.st3{clip-path:url(#SVGID_6_);fill:#FFCC04;}
	.st4{clip-path:url(#SVGID_8_);fill:#FFCC04;}
	.st5{clip-path:url(#SVGID_10_);fill:#FFCC04;}
	.st6{clip-path:url(#SVGID_12_);fill:#FFCC04;}
	.st7{clip-path:url(#SVGID_14_);fill:#FFCC04;}
	.st8{clip-path:url(#SVGID_16_);fill:#FFCC04;}
	.st9{clip-path:url(#SVGID_18_);fill:#FFCC04;}
	.st10{clip-path:url(#SVGID_20_);fill:#FFCC04;}
	.st11{clip-path:url(#SVGID_22_);fill:#FFCC04;}
	.st12{clip-path:url(#SVGID_24_);fill:#FFCC04;}
	.st13{clip-path:url(#SVGID_26_);fill:#FFCC04;}
	.st14{fill:#020304;}
</style>
<g>
	<path class="st0" d="M101.2,16.4c1.8,0,3.2,0.5,4.3,1.5c1.1,1,1.6,2.5,1.6,4.4v1.7h-8.4c0,1,0.3,1.8,0.9,2.4
		c0.6,0.6,1.4,0.9,2.4,0.9c0.8,0,1.6-0.1,2.3-0.3c0.7-0.2,1.4-0.4,2.1-0.8V29c-0.7,0.3-1.3,0.6-2,0.7s-1.6,0.2-2.6,0.2
		c-1.3,0-2.5-0.2-3.5-0.7c-1-0.5-1.8-1.2-2.4-2.2c-0.6-1-0.9-2.2-0.9-3.8c0-1.5,0.3-2.8,0.8-3.8c0.5-1,1.2-1.8,2.2-2.3
		C98.9,16.6,100,16.4,101.2,16.4z M101.2,18.9c-0.7,0-1.3,0.2-1.7,0.7c-0.4,0.4-0.7,1.1-0.8,2.1h5c0-0.8-0.2-1.4-0.6-2
		C102.7,19.2,102.1,18.9,101.2,18.9z"/>
	<path class="st0" d="M122,16.6v13.1h-2.7l-0.5-1.7h-0.2c-0.4,0.7-1,1.2-1.7,1.5c-0.7,0.3-1.5,0.5-2.3,0.5c-1.4,0-2.5-0.4-3.4-1.1
		c-0.8-0.8-1.3-2-1.3-3.7v-8.5h3.6v7.7c0,0.9,0.2,1.7,0.5,2.1c0.3,0.5,0.9,0.7,1.6,0.7c1.1,0,1.8-0.4,2.2-1.1
		c0.4-0.7,0.6-1.8,0.6-3.2v-6.2H122z"/>
	<path class="st0" d="M133.1,16.4c0.2,0,0.4,0,0.6,0c0.2,0,0.4,0,0.6,0.1l-0.3,3.4c-0.1,0-0.3-0.1-0.5-0.1c-0.2,0-0.4,0-0.6,0
		c-0.6,0-1.2,0.1-1.8,0.3c-0.6,0.2-1,0.6-1.4,1c-0.3,0.5-0.5,1.1-0.5,2v6.7h-3.6V16.6h2.7l0.5,2.2h0.2c0.4-0.7,0.9-1.2,1.6-1.7
		C131.4,16.6,132.2,16.4,133.1,16.4z"/>
	<path class="st0" d="M148.1,23.1c0,2.2-0.6,3.9-1.7,5c-1.1,1.2-2.7,1.8-4.7,1.8c-1.2,0-2.3-0.3-3.3-0.8c-1-0.5-1.7-1.3-2.2-2.3
		c-0.5-1-0.8-2.3-0.8-3.7c0-2.2,0.6-3.8,1.7-5c1.1-1.2,2.7-1.8,4.7-1.8c1.2,0,2.3,0.3,3.3,0.8c0.9,0.5,1.7,1.3,2.2,2.3
		S148.1,21.7,148.1,23.1z M139,23.1c0,1.3,0.2,2.3,0.6,2.9c0.4,0.7,1.1,1,2.1,1c0.9,0,1.6-0.3,2.1-1c0.4-0.7,0.6-1.6,0.6-2.9
		c0-1.3-0.2-2.3-0.6-2.9c-0.4-0.6-1.1-1-2.1-1c-0.9,0-1.6,0.3-2.1,1S139,21.8,139,23.1z"/>
	<path class="st0" d="M158.3,16.4c1.5,0,2.7,0.6,3.6,1.7c0.9,1.1,1.4,2.8,1.4,5.1c0,2.2-0.5,3.9-1.4,5.1c-0.9,1.2-2.2,1.7-3.6,1.7
		c-0.9,0-1.7-0.2-2.3-0.5c-0.6-0.3-1-0.7-1.4-1.2h-0.2c0.1,0.7,0.2,1.3,0.2,1.9v5.3H151V16.6h2.9l0.5,1.7h0.2c0.4-0.5,0.8-1,1.4-1.4
		C156.6,16.6,157.4,16.4,158.3,16.4z M157.2,19.2c-0.9,0-1.6,0.3-2,0.9s-0.6,1.5-0.6,2.6v0.4c0,1.3,0.2,2.2,0.6,2.9
		c0.4,0.7,1.1,1,2.1,1c0.8,0,1.4-0.3,1.8-1c0.4-0.7,0.6-1.7,0.6-2.9C159.6,20.5,158.8,19.2,157.2,19.2z"/>
	<path class="st0" d="M171.6,16.3c1.8,0,3.1,0.4,4,1.1c0.9,0.8,1.4,1.9,1.4,3.5v8.7h-2.5l-0.7-1.8h-0.1c-0.6,0.7-1.2,1.2-1.8,1.5
		c-0.6,0.3-1.5,0.5-2.6,0.5c-1.2,0-2.1-0.3-2.9-1c-0.8-0.7-1.2-1.7-1.2-3.1c0-1.4,0.5-2.4,1.5-3.1c1-0.7,2.4-1,4.4-1.1l2.3-0.1V21
		c0-0.7-0.2-1.2-0.5-1.5c-0.4-0.3-0.9-0.5-1.5-0.5s-1.3,0.1-1.9,0.3c-0.6,0.2-1.2,0.4-1.8,0.7l-1.2-2.4c0.7-0.4,1.5-0.6,2.3-0.9
		S170.7,16.3,171.6,16.3z M173.5,23.6l-1.4,0c-1.2,0-2,0.2-2.4,0.6c-0.4,0.4-0.7,0.9-0.7,1.5c0,0.5,0.2,0.9,0.5,1.2
		c0.3,0.2,0.7,0.3,1.2,0.3c0.8,0,1.4-0.2,1.9-0.7c0.5-0.5,0.8-1.1,0.8-1.9V23.6z"/>
	<path class="st0" d="M189.9,25.8c0,1.3-0.5,2.3-1.4,3.1c-0.9,0.7-2.3,1.1-4.2,1.1c-0.9,0-1.7-0.1-2.4-0.2s-1.3-0.3-2-0.6v-3
		c0.7,0.3,1.5,0.6,2.3,0.8c0.8,0.2,1.5,0.3,2.2,0.3c0.7,0,1.2-0.1,1.5-0.3c0.3-0.2,0.5-0.5,0.5-0.8c0-0.2-0.1-0.4-0.2-0.6
		c-0.1-0.2-0.4-0.4-0.8-0.6c-0.4-0.2-1-0.5-1.9-0.9c-0.8-0.4-1.5-0.7-2-1c-0.5-0.3-0.9-0.8-1.2-1.2c-0.3-0.5-0.4-1.1-0.4-1.8
		c0-1.2,0.5-2.1,1.4-2.7c0.9-0.6,2.2-0.9,3.8-0.9c0.8,0,1.6,0.1,2.3,0.2c0.7,0.2,1.5,0.4,2.3,0.8l-1.1,2.6c-0.6-0.3-1.2-0.5-1.8-0.7
		c-0.6-0.2-1.2-0.3-1.8-0.3c-1.1,0-1.6,0.3-1.6,0.9c0,0.2,0.1,0.4,0.2,0.6c0.1,0.2,0.4,0.3,0.8,0.5c0.4,0.2,1,0.4,1.7,0.8
		c0.8,0.3,1.4,0.6,1.9,0.9c0.5,0.3,1,0.7,1.3,1.2C189.7,24.4,189.9,25.1,189.9,25.8z"/>
	<path class="st0" d="M201.8,25.8c0,1.3-0.5,2.3-1.4,3.1c-0.9,0.7-2.3,1.1-4.2,1.1c-0.9,0-1.7-0.1-2.4-0.2s-1.3-0.3-2-0.6v-3
		c0.7,0.3,1.5,0.6,2.3,0.8c0.8,0.2,1.5,0.3,2.2,0.3c0.7,0,1.2-0.1,1.5-0.3c0.3-0.2,0.5-0.5,0.5-0.8c0-0.2-0.1-0.4-0.2-0.6
		c-0.1-0.2-0.4-0.4-0.8-0.6c-0.4-0.2-1-0.5-1.9-0.9c-0.8-0.4-1.5-0.7-2-1c-0.5-0.3-0.9-0.8-1.2-1.2c-0.3-0.5-0.4-1.1-0.4-1.8
		c0-1.2,0.5-2.1,1.4-2.7c0.9-0.6,2.2-0.9,3.8-0.9c0.8,0,1.6,0.1,2.3,0.2c0.7,0.2,1.5,0.4,2.3,0.8l-1.1,2.6c-0.6-0.3-1.2-0.5-1.8-0.7
		c-0.6-0.2-1.2-0.3-1.8-0.3c-1.1,0-1.6,0.3-1.6,0.9c0,0.2,0.1,0.4,0.2,0.6c0.1,0.2,0.4,0.3,0.8,0.5c0.4,0.2,1,0.4,1.7,0.8
		c0.8,0.3,1.4,0.6,1.9,0.9c0.5,0.3,1,0.7,1.3,1.2C201.6,24.4,201.8,25.1,201.8,25.8z"/>
</g>
<g>
	<defs>
		<rect id="SVGID_1_" x="12.4" y="12.5" width="69" height="46"/>
	</defs>
	<clipPath id="SVGID_2_">
		<use xlink:href="#SVGID_1_"  style="overflow:visible;"/>
	</clipPath>
	<rect x="7.4" y="7.5" class="st1" width="79" height="56"/>
</g>
<g>
	<defs>
		<polygon id="SVGID_3_" points="47,49.1 45.5,48 46.1,49.7 44.6,50.8 46.4,50.7 47,52.5 47.5,50.7 49.3,50.8 47.8,49.7 48.4,48 		
			"/>
	</defs>
	<clipPath id="SVGID_4_">
		<use xlink:href="#SVGID_3_"  style="overflow:visible;"/>
	</clipPath>
	<rect x="39.6" y="43" class="st2" width="14.7" height="14.5"/>
</g>
<g>
	<defs>
		<polygon id="SVGID_5_" points="54.4,47.1 53,46 53.6,47.7 52.1,48.8 53.9,48.7 54.4,50.5 54.9,48.7 56.8,48.8 55.2,47.7 55.9,46 
					"/>
	</defs>
	<clipPath id="SVGID_6_">
		<use xlink:href="#SVGID_5_"  style="overflow:visible;"/>
	</clipPath>
	<rect x="47.1" y="41" class="st3" width="14.7" height="14.5"/>
</g>
<g>
	<defs>
		<polygon id="SVGID_7_" points="59.9,41.6 58.5,40.5 59.1,42.2 57.6,43.2 59.4,43.2 59.9,44.9 60.5,43.2 62.3,43.2 60.8,42.2 
			61.4,40.5 		"/>
	</defs>
	<clipPath id="SVGID_8_">
		<use xlink:href="#SVGID_7_"  style="overflow:visible;"/>
	</clipPath>
	<rect x="52.6" y="35.5" class="st4" width="14.7" height="14.5"/>
</g>
<g>
	<defs>
		<polygon id="SVGID_9_" points="61.9,34 60.5,32.9 61.1,34.7 59.6,35.7 61.4,35.7 61.9,37.4 62.5,35.7 64.3,35.7 62.8,34.7 
			63.4,32.9 		"/>
	</defs>
	<clipPath id="SVGID_10_">
		<use xlink:href="#SVGID_9_"  style="overflow:visible;"/>
	</clipPath>
	<rect x="54.6" y="27.9" class="st5" width="14.7" height="14.5"/>
</g>
<g>
	<defs>
		<polygon id="SVGID_11_" points="59.9,26.5 58.5,25.4 59.1,27.1 57.6,28.2 59.4,28.1 59.9,29.9 60.5,28.1 62.3,28.2 60.8,27.1 
			61.4,25.4 		"/>
	</defs>
	<clipPath id="SVGID_12_">
		<use xlink:href="#SVGID_11_"  style="overflow:visible;"/>
	</clipPath>
	<rect x="52.6" y="20.4" class="st6" width="14.7" height="14.5"/>
</g>
<g>
	<defs>
		<polygon id="SVGID_13_" points="54.4,21 53,19.9 53.6,21.6 52.1,22.6 53.9,22.6 54.4,24.3 54.9,22.6 56.8,22.6 55.2,21.6 
			55.9,19.9 		"/>
	</defs>
	<clipPath id="SVGID_14_">
		<use xlink:href="#SVGID_13_"  style="overflow:visible;"/>
	</clipPath>
	<rect x="47.1" y="14.9" class="st7" width="14.7" height="14.5"/>
</g>
<g>
	<defs>
		<polygon id="SVGID_15_" points="47,19.1 45.5,17.9 46.1,19.7 44.6,20.7 46.4,20.7 47,22.4 47.5,20.7 49.3,20.7 47.8,19.7 
			48.4,17.9 		"/>
	</defs>
	<clipPath id="SVGID_16_">
		<use xlink:href="#SVGID_15_"  style="overflow:visible;"/>
	</clipPath>
	<rect x="39.6" y="12.9" class="st8" width="14.7" height="14.5"/>
</g>
<g>
	<defs>
		<polygon id="SVGID_17_" points="39.3,21 37.9,19.9 38.5,21.6 37,22.6 38.8,22.6 39.3,24.3 39.9,22.6 41.7,22.6 40.2,21.6 
			40.8,19.9 		"/>
	</defs>
	<clipPath id="SVGID_18_">
		<use xlink:href="#SVGID_17_"  style="overflow:visible;"/>
	</clipPath>
	<rect x="32" y="14.9" class="st9" width="14.7" height="14.5"/>
</g>
<g>
	<defs>
		<polygon id="SVGID_19_" points="33.8,26.5 32.4,25.4 33,27.1 31.5,28.2 33.3,28.1 33.8,29.9 34.3,28.1 36.2,28.2 34.7,27.1 
			35.3,25.4 		"/>
	</defs>
	<clipPath id="SVGID_20_">
		<use xlink:href="#SVGID_19_"  style="overflow:visible;"/>
	</clipPath>
	<rect x="26.5" y="20.4" class="st10" width="14.7" height="14.5"/>
</g>
<g>
	<defs>
		<polygon id="SVGID_21_" points="31.9,34.1 30.4,33 31,34.7 29.5,35.8 31.4,35.7 31.9,37.5 32.4,35.7 34.2,35.8 32.7,34.7 33.3,33 
					"/>
	</defs>
	<clipPath id="SVGID_22_">
		<use xlink:href="#SVGID_21_"  style="overflow:visible;"/>
	</clipPath>
	<rect x="24.5" y="28" class="st11" width="14.7" height="14.5"/>
</g>
<g>
	<defs>
		<polygon id="SVGID_23_" points="33.8,41.6 32.4,40.5 33,42.2 31.5,43.2 33.3,43.2 33.8,44.9 34.3,43.2 36.2,43.2 34.7,42.2 
			35.3,40.5 		"/>
	</defs>
	<clipPath id="SVGID_24_">
		<use xlink:href="#SVGID_23_"  style="overflow:visible;"/>
	</clipPath>
	<rect x="26.5" y="35.5" class="st12" width="14.7" height="14.5"/>
</g>
<g>
	<defs>
		<polygon id="SVGID_25_" points="39.3,47.1 37.9,46 38.5,47.7 37,48.8 38.8,48.7 39.3,50.5 39.9,48.7 41.7,48.8 40.2,47.7 40.8,46 
					"/>
	</defs>
	<clipPath id="SVGID_26_">
		<use xlink:href="#SVGID_25_"  style="overflow:visible;"/>
	</clipPath>
	<rect x="32" y="41" class="st13" width="14.7" height="14.5"/>
</g>
<g>
	<path class="st14" d="M95.8,56.5V39.3h12.4v2H98.1v5.3h9.5v2h-9.5v5.8h10.5v2H95.8z"/>
	<path class="st14" d="M119.7,56.5v-1.8c-1,1.4-2.3,2.1-3.9,2.1c-0.7,0-1.4-0.1-2.1-0.4s-1.1-0.6-1.4-1.1s-0.5-0.9-0.7-1.6
		c-0.1-0.4-0.1-1.1-0.1-2V44h2.1v6.9c0,1.1,0,1.8,0.1,2.2c0.1,0.6,0.4,1,0.8,1.3s1,0.5,1.6,0.5s1.2-0.2,1.8-0.5s0.9-0.8,1.2-1.3
		s0.3-1.4,0.3-2.4V44h2.1v12.4H119.7z"/>
	<path class="st14" d="M124.9,56.5V44h1.9v1.9c0.5-0.9,0.9-1.5,1.3-1.7c0.4-0.3,0.9-0.4,1.4-0.4c0.7,0,1.4,0.2,2.2,0.7l-0.7,2
		c-0.5-0.3-1-0.5-1.5-0.5c-0.5,0-0.9,0.1-1.2,0.4c-0.4,0.3-0.6,0.7-0.8,1.2c-0.2,0.8-0.4,1.6-0.4,2.5v6.5H124.9z"/>
	<path class="st14" d="M132.1,50.3c0-2.3,0.6-4,1.9-5.1c1.1-0.9,2.4-1.4,3.9-1.4c1.7,0,3.1,0.6,4.2,1.7s1.6,2.7,1.6,4.6
		c0,1.6-0.2,2.9-0.7,3.8s-1.2,1.6-2.1,2.1s-1.9,0.8-3,0.8c-1.7,0-3.2-0.6-4.2-1.7S132.1,52.4,132.1,50.3z M134.3,50.3
		c0,1.6,0.3,2.8,1,3.6s1.6,1.2,2.6,1.2c1,0,1.9-0.4,2.6-1.2s1-2,1-3.6c0-1.5-0.3-2.7-1-3.5s-1.6-1.2-2.6-1.2c-1.1,0-1.9,0.4-2.6,1.2
		S134.3,48.7,134.3,50.3z"/>
	<path class="st14" d="M146.2,61.2V44h1.9v1.6c0.5-0.6,1-1.1,1.5-1.4s1.3-0.5,2.1-0.5c1.1,0,2,0.3,2.8,0.8s1.4,1.3,1.8,2.3
		s0.6,2.1,0.6,3.3c0,1.3-0.2,2.4-0.7,3.4s-1.1,1.8-2,2.3s-1.8,0.8-2.7,0.8c-0.7,0-1.3-0.1-1.9-0.4s-1-0.7-1.4-1.1v6.1H146.2z
		 M148.1,50.3c0,1.6,0.3,2.8,1,3.6s1.4,1.1,2.4,1.1c0.9,0,1.7-0.4,2.4-1.2s1-2,1-3.7c0-1.6-0.3-2.8-1-3.6s-1.4-1.2-2.3-1.2
		c-0.9,0-1.7,0.4-2.4,1.3S148.1,48.7,148.1,50.3z"/>
	<path class="st14" d="M158.8,50.3c0-2.3,0.6-4,1.9-5.1c1.1-0.9,2.4-1.4,3.9-1.4c1.7,0,3.1,0.6,4.2,1.7s1.6,2.7,1.6,4.6
		c0,1.6-0.2,2.9-0.7,3.8s-1.2,1.6-2.1,2.1s-1.9,0.8-3,0.8c-1.7,0-3.2-0.6-4.2-1.7S158.8,52.4,158.8,50.3z M160.9,50.3
		c0,1.6,0.3,2.8,1,3.6s1.6,1.2,2.6,1.2c1,0,1.9-0.4,2.6-1.2s1-2,1-3.6c0-1.5-0.3-2.7-1-3.5s-1.6-1.2-2.6-1.2c-1.1,0-1.9,0.4-2.6,1.2
		S160.9,48.7,160.9,50.3z"/>
	<path class="st14" d="M172.1,52.8l2.1-0.3c0.1,0.8,0.4,1.5,1,1.9s1.3,0.7,2.2,0.7c1,0,1.7-0.2,2.2-0.6s0.7-0.9,0.7-1.4
		c0-0.5-0.2-0.9-0.6-1.1c-0.3-0.2-1-0.4-2.2-0.7c-1.5-0.4-2.6-0.7-3.2-1s-1.1-0.7-1.4-1.2s-0.5-1.1-0.5-1.7c0-0.6,0.1-1.1,0.4-1.5
		s0.6-0.9,1-1.2c0.3-0.2,0.8-0.4,1.3-0.6s1.2-0.3,1.8-0.3c1,0,1.8,0.1,2.6,0.4s1.3,0.7,1.6,1.1s0.6,1.1,0.7,1.9l-2.1,0.3
		c-0.1-0.6-0.4-1.1-0.8-1.5s-1.1-0.5-1.9-0.5c-1,0-1.7,0.2-2.1,0.5s-0.6,0.7-0.6,1.1c0,0.3,0.1,0.5,0.3,0.7c0.2,0.2,0.4,0.4,0.8,0.6
		c0.2,0.1,0.8,0.3,1.9,0.5c1.5,0.4,2.5,0.7,3.1,1s1.1,0.6,1.4,1.1s0.5,1.1,0.5,1.8c0,0.7-0.2,1.4-0.6,2s-1,1.1-1.8,1.4
		s-1.6,0.5-2.6,0.5c-1.6,0-2.8-0.3-3.7-1S172.3,54.1,172.1,52.8z"/>
	<path class="st14" d="M191.1,51l2.1-0.2c0.1,0.9,0.3,1.6,0.7,2.1s0.9,1,1.7,1.3s1.7,0.5,2.6,0.5c0.9,0,1.6-0.1,2.3-0.4
		s1.2-0.6,1.5-1.1s0.5-0.9,0.5-1.5c0-0.5-0.2-1-0.5-1.4s-0.8-0.7-1.5-1c-0.5-0.2-1.5-0.5-3.1-0.8c-1.6-0.4-2.7-0.7-3.3-1.1
		c-0.8-0.4-1.4-1-1.8-1.6s-0.6-1.3-0.6-2.1c0-0.9,0.2-1.7,0.7-2.4s1.2-1.3,2.2-1.7s2-0.6,3.2-0.6c1.3,0,2.4,0.2,3.4,0.6
		s1.7,1,2.2,1.8s0.8,1.7,0.8,2.7l-2.2,0.2c-0.1-1.1-0.5-1.9-1.2-2.5s-1.7-0.8-3-0.8c-1.4,0-2.4,0.3-3,0.8s-0.9,1.1-0.9,1.8
		c0,0.6,0.2,1.1,0.7,1.5c0.4,0.4,1.6,0.8,3.4,1.2c1.8,0.4,3.1,0.8,3.8,1.1c1,0.5,1.7,1,2.2,1.8s0.7,1.5,0.7,2.4
		c0,0.9-0.3,1.8-0.8,2.6s-1.3,1.4-2.3,1.9s-2.1,0.7-3.3,0.7c-1.6,0-2.9-0.2-3.9-0.7s-1.9-1.1-2.5-2S191.1,52.1,191.1,51z"/>
	<path class="st14" d="M215.7,54.9c-0.8,0.7-1.5,1.1-2.3,1.4s-1.5,0.4-2.3,0.4c-1.4,0-2.4-0.3-3.2-1s-1.1-1.5-1.1-2.6
		c0-0.6,0.1-1.2,0.4-1.7s0.6-0.9,1.1-1.2s1-0.5,1.5-0.7c0.4-0.1,1-0.2,1.9-0.3c1.7-0.2,3-0.4,3.8-0.7c0-0.3,0-0.5,0-0.6
		c0-0.9-0.2-1.5-0.6-1.8c-0.5-0.5-1.3-0.7-2.4-0.7c-1,0-1.7,0.2-2.2,0.5s-0.8,1-1,1.8l-2.1-0.3c0.2-0.9,0.5-1.6,0.9-2.1
		s1.1-1,1.9-1.3s1.8-0.4,2.8-0.4c1.1,0,1.9,0.1,2.6,0.4s1.2,0.6,1.5,0.9s0.5,0.9,0.7,1.4c0.1,0.4,0.1,1,0.1,1.9v2.8
		c0,2,0,3.2,0.1,3.7s0.3,1,0.5,1.5h-2.2C215.9,56,215.8,55.5,215.7,54.9z M215.5,50.2c-0.8,0.3-1.9,0.6-3.4,0.8
		c-0.9,0.1-1.5,0.3-1.8,0.4s-0.6,0.4-0.8,0.7s-0.3,0.6-0.3,1c0,0.6,0.2,1,0.6,1.4s1,0.6,1.9,0.6c0.8,0,1.5-0.2,2.2-0.5
		s1.1-0.8,1.4-1.5c0.2-0.5,0.3-1.2,0.3-2.1V50.2z M217.9,56.5c-0.4,0.3-0.8,0.6-1,1s-0.4,0.8-0.4,1.2c0,0.3,0.1,0.6,0.3,0.8
		s0.5,0.3,0.9,0.3c0.2,0,0.4,0,0.6-0.1s0.4-0.1,0.5-0.2v1.5c-0.6,0.3-1.1,0.4-1.6,0.4c-0.4,0-0.7-0.1-1-0.2s-0.5-0.3-0.7-0.5
		s-0.3-0.4-0.4-0.7s-0.1-0.5-0.1-0.8c0-0.5,0.1-1,0.4-1.5s0.7-1,1.2-1.4H217.9z"/>
	<path class="st14" d="M218.3,61.3l0.4-1.8c0.4,0.1,0.8,0.2,1,0.2c0.4,0,0.8-0.1,1-0.4s0.3-1,0.3-2.1V44h2.1v13.1
		c0,1.5-0.2,2.6-0.6,3.2c-0.5,0.8-1.4,1.2-2.5,1.2C219.3,61.5,218.8,61.5,218.3,61.3z M220.9,41.7v-2.4h2.1v2.4H220.9z"/>
	<path class="st14" d="M234.4,56.5v-1.8c-1,1.4-2.3,2.1-3.9,2.1c-0.7,0-1.4-0.1-2.1-0.4s-1.1-0.6-1.4-1.1s-0.5-0.9-0.7-1.6
		c-0.1-0.4-0.1-1.1-0.1-2V44h2.1v6.9c0,1.1,0,1.8,0.1,2.2c0.1,0.6,0.4,1,0.8,1.3s1,0.5,1.6,0.5s1.2-0.2,1.8-0.5s0.9-0.8,1.2-1.3
		s0.3-1.4,0.3-2.4V44h2.1v12.4H234.4z"/>
	<path class="st14" d="M239.6,56.5V44h1.9v1.8c0.9-1.4,2.2-2.1,4-2.1c0.8,0,1.4,0.1,2.1,0.4s1.1,0.6,1.4,1.1s0.5,1,0.7,1.6
		c0.1,0.4,0.1,1.1,0.1,2.1v7.7h-2.1v-7.6c0-0.9-0.1-1.5-0.2-1.9s-0.5-0.8-0.9-1s-0.9-0.4-1.5-0.4c-0.9,0-1.7,0.3-2.3,0.9
		s-1,1.7-1,3.2v6.8H239.6z"/>
	<path class="st14" d="M252.6,57.5l2.1,0.3c0.1,0.6,0.3,1.1,0.7,1.4c0.5,0.4,1.2,0.6,2.1,0.6c1,0,1.7-0.2,2.3-0.6s0.9-0.9,1.1-1.6
		c0.1-0.4,0.2-1.3,0.2-2.7c-0.9,1.1-2.1,1.6-3.4,1.6c-1.7,0-3-0.6-4-1.9s-1.4-2.7-1.4-4.4c0-1.2,0.2-2.3,0.6-3.3s1.1-1.8,1.9-2.3
		s1.8-0.8,2.9-0.8c1.5,0,2.7,0.6,3.6,1.8V44h1.9v10.8c0,1.9-0.2,3.3-0.6,4.1s-1,1.4-1.9,1.9s-1.9,0.7-3.2,0.7c-1.5,0-2.7-0.3-3.6-1
		S252.5,58.8,252.6,57.5z M254.3,50c0,1.6,0.3,2.8,1,3.6s1.5,1.1,2.4,1.1c1,0,1.8-0.4,2.4-1.1s1-1.9,1-3.5c0-1.5-0.3-2.7-1-3.4
		s-1.5-1.2-2.4-1.2c-0.9,0-1.7,0.4-2.4,1.1S254.3,48.5,254.3,50z"/>
	<path class="st14" d="M274.4,54.9c-0.8,0.7-1.5,1.1-2.3,1.4s-1.5,0.4-2.3,0.4c-1.4,0-2.4-0.3-3.2-1s-1.1-1.5-1.1-2.6
		c0-0.6,0.1-1.2,0.4-1.7s0.6-0.9,1.1-1.2s1-0.5,1.5-0.7c0.4-0.1,1-0.2,1.9-0.3c1.7-0.2,3-0.4,3.8-0.7c0-0.3,0-0.5,0-0.6
		c0-0.9-0.2-1.5-0.6-1.8c-0.5-0.5-1.3-0.7-2.4-0.7c-1,0-1.7,0.2-2.2,0.5s-0.8,1-1,1.8l-2.1-0.3c0.2-0.9,0.5-1.6,0.9-2.1
		s1.1-1,1.9-1.3s1.8-0.4,2.8-0.4c1.1,0,1.9,0.1,2.6,0.4s1.2,0.6,1.5,0.9s0.5,0.9,0.7,1.4c0.1,0.4,0.1,1,0.1,1.9v2.8
		c0,2,0,3.2,0.1,3.7s0.3,1,0.5,1.5h-2.2C274.6,56,274.5,55.5,274.4,54.9z M274.3,50.2c-0.8,0.3-1.9,0.6-3.4,0.8
		c-0.9,0.1-1.5,0.3-1.8,0.4s-0.6,0.4-0.8,0.7s-0.3,0.6-0.3,1c0,0.6,0.2,1,0.6,1.4s1,0.6,1.9,0.6c0.8,0,1.5-0.2,2.2-0.5
		s1.1-0.8,1.4-1.5c0.2-0.5,0.3-1.2,0.3-2.1V50.2z"/>
</g>
</svg>
