<?xml version="1.0" encoding="utf-8"?>
<!-- Generator: Adobe Illustrator 23.1.1, SVG Export Plug-In . SVG Version: 6.00 Build 0)  -->
<svg version="1.1" id="Capa_1" xmlns="http://www.w3.org/2000/svg" xmlns:xlink="http://www.w3.org/1999/xlink" x="0px" y="0px"
	 viewBox="0 0 297.6 74" style="enable-background:new 0 0 297.6 74;" xml:space="preserve">
<style type="text/css">
	.st0{fill:#6C3088;}
	.st1{clip-path:url(#SVGID_2_);fill:#203C89;}
	.st2{clip-path:url(#SVGID_4_);fill:#FFCC04;}
	.st3{clip-path:url(#SVGID_6_);fill:#FFCC04;}
	.st4{clip-path:url(#SVGID_8_);fill:#FFCC04;}
	.st5{clip-path:url(#SVGID_10_);fill:#FFCC04;}
	.st6{clip-path:url(#SVGID_12_);fill:#FFCC04;}
	.st7{clip-path:url(#SVGID_14_);fill:#FFCC04;}
	.st8{clip-path:url(#SVGID_16_);fill:#FFCC04;}
	.st9{clip-path:url(#SVGID_18_);fill:#FFCC04;}
	.st10{clip-path:url(#SVGID_20_);fill:#FFCC04;}
	.st11{clip-path:url(#SVGID_22_);fill:#FFCC04;}
	.st12{clip-path:url(#SVGID_24_);fill:#FFCC04;}
	.st13{clip-path:url(#SVGID_26_);fill:#FFCC04;}
	.st14{fill:#020304;}
</style>
<g>
	<path class="st0" d="M117.9,16.4c1.8,0,3.2,0.5,4.3,1.5c1.1,1,1.6,2.5,1.6,4.4v1.7h-8.4c0,1,0.3,1.8,0.9,2.4
		c0.6,0.6,1.4,0.9,2.4,0.9c0.8,0,1.6-0.1,2.3-0.3c0.7-0.2,1.4-0.4,2.1-0.8V29c-0.7,0.3-1.3,0.6-2,0.7c-0.7,0.2-1.6,0.2-2.6,0.2
		c-1.3,0-2.5-0.2-3.5-0.7c-1-0.5-1.8-1.2-2.4-2.2c-0.6-1-0.9-2.2-0.9-3.8c0-1.5,0.3-2.8,0.8-3.8s1.2-1.8,2.2-2.3
		C115.6,16.6,116.7,16.4,117.9,16.4z M118,18.9c-0.7,0-1.3,0.2-1.7,0.7c-0.4,0.4-0.7,1.1-0.8,2.1h5c0-0.8-0.2-1.4-0.6-2
		C119.4,19.2,118.8,18.9,118,18.9z"/>
	<path class="st0" d="M138.8,16.6v13.1H136l-0.5-1.7h-0.2c-0.4,0.7-1,1.2-1.7,1.5s-1.5,0.5-2.3,0.5c-1.4,0-2.5-0.4-3.4-1.1
		c-0.8-0.8-1.3-2-1.3-3.7v-8.5h3.6v7.7c0,0.9,0.2,1.7,0.5,2.1c0.3,0.5,0.9,0.7,1.6,0.7c1.1,0,1.8-0.4,2.2-1.1
		c0.4-0.7,0.6-1.8,0.6-3.2v-6.2H138.8z"/>
	<path class="st0" d="M149.8,16.4c0.2,0,0.4,0,0.6,0c0.2,0,0.4,0,0.6,0.1l-0.3,3.4c-0.1,0-0.3-0.1-0.5-0.1c-0.2,0-0.4,0-0.6,0
		c-0.6,0-1.2,0.1-1.8,0.3c-0.6,0.2-1,0.6-1.4,1s-0.5,1.1-0.5,2v6.7h-3.6V16.6h2.7l0.5,2.2h0.2c0.4-0.7,0.9-1.2,1.6-1.7
		C148.2,16.6,148.9,16.4,149.8,16.4z"/>
	<path class="st0" d="M164.8,23.1c0,2.2-0.6,3.9-1.7,5c-1.1,1.2-2.7,1.8-4.7,1.8c-1.2,0-2.3-0.3-3.3-0.8c-1-0.5-1.7-1.3-2.2-2.3
		c-0.5-1-0.8-2.3-0.8-3.7c0-2.2,0.6-3.8,1.7-5c1.1-1.2,2.7-1.8,4.7-1.8c1.2,0,2.3,0.3,3.3,0.8c0.9,0.5,1.7,1.3,2.2,2.3
		S164.8,21.7,164.8,23.1z M155.8,23.1c0,1.3,0.2,2.3,0.6,2.9c0.4,0.7,1.1,1,2.1,1c0.9,0,1.6-0.3,2.1-1c0.4-0.7,0.6-1.6,0.6-2.9
		c0-1.3-0.2-2.3-0.6-2.9c-0.4-0.6-1.1-1-2.1-1c-0.9,0-1.6,0.3-2.1,1S155.8,21.8,155.8,23.1z"/>
	<path class="st0" d="M175.1,16.4c1.5,0,2.7,0.6,3.6,1.7c0.9,1.1,1.4,2.8,1.4,5.1c0,2.2-0.5,3.9-1.4,5.1c-0.9,1.2-2.2,1.7-3.6,1.7
		c-0.9,0-1.7-0.2-2.3-0.5c-0.6-0.3-1-0.7-1.4-1.2h-0.2c0.1,0.7,0.2,1.3,0.2,1.9v5.3h-3.6V16.6h2.9l0.5,1.7h0.2
		c0.4-0.5,0.8-1,1.4-1.4C173.4,16.6,174.1,16.4,175.1,16.4z M173.9,19.2c-0.9,0-1.6,0.3-2,0.9c-0.4,0.6-0.6,1.5-0.6,2.6v0.4
		c0,1.3,0.2,2.2,0.6,2.9c0.4,0.7,1.1,1,2.1,1c0.8,0,1.4-0.3,1.8-1c0.4-0.7,0.6-1.7,0.6-2.9C176.4,20.5,175.5,19.2,173.9,19.2z"/>
	<path class="st0" d="M188.3,16.3c1.8,0,3.1,0.4,4,1.1c0.9,0.8,1.4,1.9,1.4,3.5v8.7h-2.5l-0.7-1.8h-0.1c-0.6,0.7-1.2,1.2-1.8,1.5
		c-0.6,0.3-1.5,0.5-2.6,0.5c-1.2,0-2.1-0.3-2.9-1s-1.2-1.7-1.2-3.1c0-1.4,0.5-2.4,1.5-3.1c1-0.7,2.4-1,4.4-1.1l2.3-0.1V21
		c0-0.7-0.2-1.2-0.5-1.5c-0.4-0.3-0.9-0.5-1.5-0.5c-0.6,0-1.3,0.1-1.9,0.3c-0.6,0.2-1.2,0.4-1.8,0.7l-1.2-2.4
		c0.7-0.4,1.5-0.6,2.3-0.9C186.5,16.5,187.4,16.3,188.3,16.3z M190.2,23.6l-1.4,0c-1.2,0-2,0.2-2.4,0.6c-0.4,0.4-0.7,0.9-0.7,1.5
		c0,0.5,0.2,0.9,0.5,1.2c0.3,0.2,0.7,0.3,1.2,0.3c0.8,0,1.4-0.2,1.9-0.7s0.8-1.1,0.8-1.9V23.6z"/>
	<path class="st0" d="M206.6,25.8c0,1.3-0.5,2.3-1.4,3.1c-0.9,0.7-2.3,1.1-4.2,1.1c-0.9,0-1.7-0.1-2.4-0.2s-1.3-0.3-2-0.6v-3
		c0.7,0.3,1.5,0.6,2.3,0.8c0.8,0.2,1.5,0.3,2.2,0.3c0.7,0,1.2-0.1,1.5-0.3c0.3-0.2,0.5-0.5,0.5-0.8c0-0.2-0.1-0.4-0.2-0.6
		c-0.1-0.2-0.4-0.4-0.8-0.6c-0.4-0.2-1-0.5-1.9-0.9c-0.8-0.4-1.5-0.7-2-1s-0.9-0.8-1.2-1.2c-0.3-0.5-0.4-1.1-0.4-1.8
		c0-1.2,0.5-2.1,1.4-2.7c0.9-0.6,2.2-0.9,3.8-0.9c0.8,0,1.6,0.1,2.3,0.2c0.7,0.2,1.5,0.4,2.3,0.8l-1.1,2.6c-0.6-0.3-1.2-0.5-1.8-0.7
		c-0.6-0.2-1.2-0.3-1.8-0.3c-1.1,0-1.6,0.3-1.6,0.9c0,0.2,0.1,0.4,0.2,0.6c0.1,0.2,0.4,0.3,0.8,0.5c0.4,0.2,1,0.4,1.7,0.8
		c0.8,0.3,1.4,0.6,1.9,0.9c0.5,0.3,1,0.7,1.3,1.2C206.5,24.4,206.6,25.1,206.6,25.8z"/>
	<path class="st0" d="M218.5,25.8c0,1.3-0.5,2.3-1.4,3.1c-0.9,0.7-2.3,1.1-4.2,1.1c-0.9,0-1.7-0.1-2.4-0.2s-1.3-0.3-2-0.6v-3
		c0.7,0.3,1.5,0.6,2.3,0.8c0.8,0.2,1.5,0.3,2.2,0.3c0.7,0,1.2-0.1,1.5-0.3c0.3-0.2,0.5-0.5,0.5-0.8c0-0.2-0.1-0.4-0.2-0.6
		c-0.1-0.2-0.4-0.4-0.8-0.6c-0.4-0.2-1-0.5-1.9-0.9c-0.8-0.4-1.5-0.7-2-1s-0.9-0.8-1.2-1.2c-0.3-0.5-0.4-1.1-0.4-1.8
		c0-1.2,0.5-2.1,1.4-2.7c0.9-0.6,2.2-0.9,3.8-0.9c0.8,0,1.6,0.1,2.3,0.2c0.7,0.2,1.5,0.4,2.3,0.8l-1.1,2.6c-0.6-0.3-1.2-0.5-1.8-0.7
		c-0.6-0.2-1.2-0.3-1.8-0.3c-1.1,0-1.6,0.3-1.6,0.9c0,0.2,0.1,0.4,0.2,0.6c0.1,0.2,0.4,0.3,0.8,0.5c0.4,0.2,1,0.4,1.7,0.8
		c0.8,0.3,1.4,0.6,1.9,0.9c0.5,0.3,1,0.7,1.3,1.2C218.4,24.4,218.5,25.1,218.5,25.8z"/>
</g>
<g>
	<defs>
		<rect id="SVGID_1_" x="29.1" y="12.5" width="69" height="46"/>
	</defs>
	<clipPath id="SVGID_2_">
		<use xlink:href="#SVGID_1_"  style="overflow:visible;"/>
	</clipPath>
	<rect x="24.1" y="7.5" class="st1" width="79" height="56"/>
</g>
<g>
	<defs>
		<polygon id="SVGID_3_" points="63.7,49.1 62.2,48 62.8,49.7 61.3,50.8 63.2,50.7 63.7,52.5 64.2,50.7 66,50.8 64.5,49.7 65.1,48 
					"/>
	</defs>
	<clipPath id="SVGID_4_">
		<use xlink:href="#SVGID_3_"  style="overflow:visible;"/>
	</clipPath>
	<rect x="56.3" y="43" class="st2" width="14.7" height="14.5"/>
</g>
<g>
	<defs>
		<polygon id="SVGID_5_" points="71.1,47.1 69.7,46 70.3,47.7 68.8,48.8 70.6,48.7 71.1,50.5 71.7,48.7 73.5,48.8 72,47.7 72.6,46 
					"/>
	</defs>
	<clipPath id="SVGID_6_">
		<use xlink:href="#SVGID_5_"  style="overflow:visible;"/>
	</clipPath>
	<rect x="63.8" y="41" class="st3" width="14.7" height="14.5"/>
</g>
<g>
	<defs>
		<polygon id="SVGID_7_" points="76.7,41.6 75.2,40.5 75.8,42.2 74.3,43.2 76.1,43.2 76.7,44.9 77.2,43.2 79,43.2 77.5,42.2 
			78.1,40.5 		"/>
	</defs>
	<clipPath id="SVGID_8_">
		<use xlink:href="#SVGID_7_"  style="overflow:visible;"/>
	</clipPath>
	<rect x="69.3" y="35.5" class="st4" width="14.7" height="14.5"/>
</g>
<g>
	<defs>
		<polygon id="SVGID_9_" points="78.7,34 77.2,32.9 77.8,34.7 76.3,35.7 78.2,35.7 78.7,37.4 79.2,35.7 81,35.7 79.5,34.7 
			80.1,32.9 		"/>
	</defs>
	<clipPath id="SVGID_10_">
		<use xlink:href="#SVGID_9_"  style="overflow:visible;"/>
	</clipPath>
	<rect x="71.3" y="27.9" class="st5" width="14.7" height="14.5"/>
</g>
<g>
	<defs>
		<polygon id="SVGID_11_" points="76.7,26.5 75.2,25.4 75.8,27.1 74.3,28.2 76.1,28.1 76.7,29.9 77.2,28.1 79,28.2 77.5,27.1 
			78.1,25.4 		"/>
	</defs>
	<clipPath id="SVGID_12_">
		<use xlink:href="#SVGID_11_"  style="overflow:visible;"/>
	</clipPath>
	<rect x="69.3" y="20.4" class="st6" width="14.7" height="14.5"/>
</g>
<g>
	<defs>
		<polygon id="SVGID_13_" points="71.1,21 69.7,19.9 70.3,21.6 68.8,22.6 70.6,22.6 71.1,24.3 71.7,22.6 73.5,22.6 72,21.6 
			72.6,19.9 		"/>
	</defs>
	<clipPath id="SVGID_14_">
		<use xlink:href="#SVGID_13_"  style="overflow:visible;"/>
	</clipPath>
	<rect x="63.8" y="14.9" class="st7" width="14.7" height="14.5"/>
</g>
<g>
	<defs>
		<polygon id="SVGID_15_" points="63.7,19.1 62.2,17.9 62.8,19.7 61.3,20.7 63.2,20.7 63.7,22.4 64.2,20.7 66,20.7 64.5,19.7 
			65.1,17.9 		"/>
	</defs>
	<clipPath id="SVGID_16_">
		<use xlink:href="#SVGID_15_"  style="overflow:visible;"/>
	</clipPath>
	<rect x="56.3" y="12.9" class="st8" width="14.7" height="14.5"/>
</g>
<g>
	<defs>
		<polygon id="SVGID_17_" points="56.1,21 54.6,19.9 55.2,21.6 53.7,22.6 55.5,22.6 56.1,24.3 56.6,22.6 58.4,22.6 56.9,21.6 
			57.5,19.9 		"/>
	</defs>
	<clipPath id="SVGID_18_">
		<use xlink:href="#SVGID_17_"  style="overflow:visible;"/>
	</clipPath>
	<rect x="48.7" y="14.9" class="st9" width="14.7" height="14.5"/>
</g>
<g>
	<defs>
		<polygon id="SVGID_19_" points="50.5,26.5 49.1,25.4 49.7,27.1 48.2,28.2 50,28.1 50.5,29.9 51.1,28.1 52.9,28.2 51.4,27.1 
			52,25.4 		"/>
	</defs>
	<clipPath id="SVGID_20_">
		<use xlink:href="#SVGID_19_"  style="overflow:visible;"/>
	</clipPath>
	<rect x="43.2" y="20.4" class="st10" width="14.7" height="14.5"/>
</g>
<g>
	<defs>
		<polygon id="SVGID_21_" points="48.6,34.1 47.2,33 47.8,34.7 46.3,35.8 48.1,35.7 48.6,37.5 49.1,35.7 51,35.8 49.5,34.7 50.1,33 
					"/>
	</defs>
	<clipPath id="SVGID_22_">
		<use xlink:href="#SVGID_21_"  style="overflow:visible;"/>
	</clipPath>
	<rect x="41.3" y="28" class="st11" width="14.7" height="14.5"/>
</g>
<g>
	<defs>
		<polygon id="SVGID_23_" points="50.5,41.6 49.1,40.5 49.7,42.2 48.2,43.2 50,43.2 50.5,44.9 51.1,43.2 52.9,43.2 51.4,42.2 
			52,40.5 		"/>
	</defs>
	<clipPath id="SVGID_24_">
		<use xlink:href="#SVGID_23_"  style="overflow:visible;"/>
	</clipPath>
	<rect x="43.2" y="35.5" class="st12" width="14.7" height="14.5"/>
</g>
<g>
	<defs>
		<polygon id="SVGID_25_" points="56.1,47.1 54.6,46 55.2,47.7 53.7,48.8 55.5,48.7 56.1,50.5 56.6,48.7 58.4,48.8 56.9,47.7 
			57.5,46 		"/>
	</defs>
	<clipPath id="SVGID_26_">
		<use xlink:href="#SVGID_25_"  style="overflow:visible;"/>
	</clipPath>
	<rect x="48.7" y="41" class="st13" width="14.7" height="14.5"/>
</g>
<g>
	<path class="st14" d="M112.6,56.5V39.3H125v2h-10.1v5.3h9.5v2h-9.5v5.8h10.5v2H112.6z"/>
	<path class="st14" d="M128.3,44h4.9c1.2,0,2.1,0.1,2.7,0.3s1.1,0.6,1.5,1.1s0.6,1.2,0.6,1.9c0,0.6-0.1,1.1-0.4,1.6
		s-0.6,0.8-1.1,1.1c0.6,0.2,1.1,0.6,1.5,1.1s0.6,1.2,0.6,1.9c-0.1,1.2-0.5,2.1-1.3,2.6s-1.9,0.9-3.3,0.9h-5.6V44z M130.4,49.3h2.2
		c0.9,0,1.5,0,1.9-0.1s0.6-0.3,0.9-0.6s0.4-0.6,0.4-1c0-0.7-0.2-1.1-0.7-1.4s-1.3-0.4-2.4-0.4h-2.3V49.3z M130.4,54.7h2.8
		c1.2,0,2-0.1,2.5-0.4s0.7-0.8,0.7-1.4c0-0.4-0.1-0.8-0.4-1.1s-0.6-0.6-1-0.6s-1.1-0.1-2-0.1h-2.6V54.7z"/>
	<path class="st14" d="M141,61.2V44h1.9v1.6c0.5-0.6,1-1.1,1.5-1.4s1.3-0.5,2.1-0.5c1.1,0,2,0.3,2.8,0.8s1.4,1.3,1.8,2.3
		s0.6,2.1,0.6,3.3c0,1.3-0.2,2.4-0.7,3.4s-1.1,1.8-2,2.3s-1.8,0.8-2.7,0.8c-0.7,0-1.3-0.1-1.9-0.4s-1-0.7-1.4-1.1v6.1H141z
		 M142.9,50.3c0,1.6,0.3,2.8,1,3.6s1.4,1.1,2.4,1.1c0.9,0,1.7-0.4,2.4-1.2s1-2,1-3.7c0-1.6-0.3-2.8-1-3.6s-1.4-1.2-2.3-1.2
		c-0.9,0-1.7,0.4-2.4,1.3S142.9,48.7,142.9,50.3z"/>
	<path class="st14" d="M153.6,50.3c0-2.3,0.6-4,1.9-5.1c1.1-0.9,2.4-1.4,3.9-1.4c1.7,0,3.1,0.6,4.2,1.7s1.6,2.7,1.6,4.6
		c0,1.6-0.2,2.9-0.7,3.8s-1.2,1.6-2.1,2.1s-1.9,0.8-3,0.8c-1.7,0-3.2-0.6-4.2-1.7S153.6,52.4,153.6,50.3z M155.7,50.3
		c0,1.6,0.3,2.8,1,3.6s1.6,1.2,2.6,1.2c1,0,1.9-0.4,2.6-1.2s1-2,1-3.6c0-1.5-0.3-2.7-1-3.5s-1.6-1.2-2.6-1.2c-1.1,0-1.9,0.4-2.6,1.2
		S155.7,48.7,155.7,50.3z"/>
	<path class="st14" d="M167.7,44h9.8v12.4h-2.1V45.8h-5.6v10.7h-2.1V44z"/>
	<path class="st14" d="M188.8,51.9l2.1,0.3c-0.2,1.4-0.8,2.5-1.7,3.4s-2.1,1.2-3.4,1.2c-1.7,0-3.1-0.6-4.1-1.7s-1.6-2.7-1.6-4.8
		c0-1.3,0.2-2.5,0.7-3.5s1.1-1.8,2-2.3s1.9-0.8,3-0.8c1.4,0,2.5,0.3,3.3,1s1.4,1.7,1.7,2.9l-2.1,0.3c-0.2-0.8-0.5-1.5-1-1.9
		s-1.1-0.6-1.8-0.6c-1.1,0-1.9,0.4-2.6,1.1s-1,2-1,3.6c0,1.7,0.3,2.9,1,3.6s1.5,1.1,2.5,1.1c0.8,0,1.5-0.3,2.1-0.8
		S188.7,53,188.8,51.9z"/>
	<path class="st14" d="M192.7,44h2.1v5.4c0.7,0,1.1-0.1,1.4-0.4s0.7-1,1.2-2.2c0.4-1,0.8-1.6,1-1.9s0.6-0.5,0.9-0.6s0.9-0.2,1.6-0.2
		h0.4v1.7l-0.6,0c-0.6,0-0.9,0.1-1.1,0.2c-0.2,0.2-0.4,0.7-0.8,1.5c-0.3,0.8-0.6,1.4-0.9,1.7s-0.7,0.6-1.2,0.9
		c0.9,0.2,1.8,1.1,2.7,2.5l2.3,3.9h-2.3l-2.2-3.9c-0.5-0.8-0.9-1.3-1.2-1.5s-0.8-0.4-1.2-0.4v5.8h-2.1V44z"/>
	<path class="st14" d="M211.9,54.9c-0.8,0.7-1.5,1.1-2.3,1.4s-1.5,0.4-2.3,0.4c-1.4,0-2.4-0.3-3.2-1s-1.1-1.5-1.1-2.6
		c0-0.6,0.1-1.2,0.4-1.7s0.6-0.9,1.1-1.2s1-0.5,1.5-0.7c0.4-0.1,1-0.2,1.9-0.3c1.7-0.2,3-0.4,3.8-0.7c0-0.3,0-0.5,0-0.6
		c0-0.9-0.2-1.5-0.6-1.8c-0.5-0.5-1.3-0.7-2.4-0.7c-1,0-1.7,0.2-2.2,0.5s-0.8,1-1,1.8l-2.1-0.3c0.2-0.9,0.5-1.6,0.9-2.1
		s1.1-1,1.9-1.3s1.8-0.4,2.8-0.4c1.1,0,1.9,0.1,2.6,0.4s1.2,0.6,1.5,0.9s0.5,0.9,0.7,1.4c0.1,0.4,0.1,1,0.1,1.9v2.8
		c0,2,0,3.2,0.1,3.7s0.3,1,0.5,1.5h-2.2C212.1,56,211.9,55.5,211.9,54.9z M211.7,50.2c-0.8,0.3-1.9,0.6-3.4,0.8
		c-0.9,0.1-1.5,0.3-1.8,0.4s-0.6,0.4-0.8,0.7s-0.3,0.6-0.3,1c0,0.6,0.2,1,0.6,1.4s1,0.6,1.9,0.6c0.8,0,1.5-0.2,2.2-0.5
		s1.1-0.8,1.4-1.5c0.2-0.5,0.3-1.2,0.3-2.1V50.2z"/>
	<path class="st14" d="M222.3,39.3h2.3l5.6,10.5l4.9-10.5h2.3l-6.4,13.4c-0.8,1.7-1.5,2.8-2,3.3s-1.3,0.8-2.2,0.8
		c-0.6,0-1.3-0.1-2.2-0.4v-1.9c0.6,0.4,1.3,0.5,1.9,0.5c0.6,0,1-0.2,1.4-0.5s0.8-1.2,1.3-2.4L222.3,39.3z"/>
	<path class="st14" d="M237.9,44h2.1v5.2h5.8V44h2.1v12.4h-2.1V51H240v5.5h-2.1V44z"/>
	<path class="st14" d="M251.2,44h2.1v9.5l5.8-9.5h2.3v12.4h-2.1V47l-5.8,9.4h-2.3V44z"/>
	<path class="st14" d="M261.9,61.3l0.4-1.8c0.4,0.1,0.8,0.2,1,0.2c0.4,0,0.8-0.1,1-0.4s0.3-1,0.3-2.1V44h2.1v13.1
		c0,1.5-0.2,2.6-0.6,3.2c-0.5,0.8-1.4,1.2-2.5,1.2C263,61.5,262.4,61.5,261.9,61.3z M264.6,41.7v-2.4h2.1v2.4H264.6z"/>
	<path class="st14" d="M278,54.9c-0.8,0.7-1.5,1.1-2.3,1.4s-1.5,0.4-2.3,0.4c-1.4,0-2.4-0.3-3.2-1s-1.1-1.5-1.1-2.6
		c0-0.6,0.1-1.2,0.4-1.7s0.6-0.9,1.1-1.2s1-0.5,1.5-0.7c0.4-0.1,1-0.2,1.9-0.3c1.7-0.2,3-0.4,3.8-0.7c0-0.3,0-0.5,0-0.6
		c0-0.9-0.2-1.5-0.6-1.8c-0.5-0.5-1.3-0.7-2.4-0.7c-1,0-1.7,0.2-2.2,0.5s-0.8,1-1,1.8l-2.1-0.3c0.2-0.9,0.5-1.6,0.9-2.1
		s1.1-1,1.9-1.3s1.8-0.4,2.8-0.4c1.1,0,1.9,0.1,2.6,0.4s1.2,0.6,1.5,0.9s0.5,0.9,0.7,1.4c0.1,0.4,0.1,1,0.1,1.9v2.8
		c0,2,0,3.2,0.1,3.7s0.3,1,0.5,1.5h-2.2C278.2,56,278.1,55.5,278,54.9z M277.9,50.2c-0.8,0.3-1.9,0.6-3.4,0.8
		c-0.9,0.1-1.5,0.3-1.8,0.4s-0.6,0.4-0.8,0.7s-0.3,0.6-0.3,1c0,0.6,0.2,1,0.6,1.4s1,0.6,1.9,0.6c0.8,0,1.5-0.2,2.2-0.5
		s1.1-0.8,1.4-1.5c0.2-0.5,0.3-1.2,0.3-2.1V50.2z"/>
</g>
</svg>
