<?xml version="1.0" encoding="utf-8"?>
<!-- Generator: Adobe Illustrator 23.1.1, SVG Export Plug-In . SVG Version: 6.00 Build 0)  -->
<svg version="1.1" id="Capa_1" xmlns="http://www.w3.org/2000/svg" xmlns:xlink="http://www.w3.org/1999/xlink" x="0px" y="0px"
	 viewBox="0 0 322.3 80.8" style="enable-background:new 0 0 322.3 80.8;" xml:space="preserve">
<style type="text/css">
	.st0{fill:#6C3088;}
	.st1{clip-path:url(#SVGID_2_);fill:#203C89;}
	.st2{clip-path:url(#SVGID_4_);fill:#FFCC04;}
	.st3{clip-path:url(#SVGID_6_);fill:#FFCC04;}
	.st4{clip-path:url(#SVGID_8_);fill:#FFCC04;}
	.st5{clip-path:url(#SVGID_10_);fill:#FFCC04;}
	.st6{clip-path:url(#SVGID_12_);fill:#FFCC04;}
	.st7{clip-path:url(#SVGID_14_);fill:#FFCC04;}
	.st8{clip-path:url(#SVGID_16_);fill:#FFCC04;}
	.st9{clip-path:url(#SVGID_18_);fill:#FFCC04;}
	.st10{clip-path:url(#SVGID_20_);fill:#FFCC04;}
	.st11{clip-path:url(#SVGID_22_);fill:#FFCC04;}
	.st12{clip-path:url(#SVGID_24_);fill:#FFCC04;}
	.st13{clip-path:url(#SVGID_26_);fill:#FFCC04;}
	.st14{fill:#020304;}
</style>
<g>
	<path class="st0" d="M130.3,19.9c1.8,0,3.2,0.5,4.3,1.5c1.1,1,1.6,2.5,1.6,4.4v1.7h-8.4c0,1,0.3,1.8,0.9,2.4
		c0.6,0.6,1.4,0.9,2.4,0.9c0.8,0,1.6-0.1,2.3-0.3c0.7-0.2,1.4-0.4,2.1-0.8v2.8c-0.7,0.3-1.3,0.6-2,0.7c-0.7,0.2-1.6,0.2-2.6,0.2
		c-1.3,0-2.5-0.2-3.5-0.7c-1-0.5-1.8-1.2-2.4-2.2c-0.6-1-0.9-2.2-0.9-3.8s0.3-2.8,0.8-3.8c0.5-1,1.2-1.8,2.2-2.3
		C128,20.1,129.1,19.9,130.3,19.9z M130.3,22.4c-0.7,0-1.3,0.2-1.7,0.7s-0.7,1.1-0.8,2.1h5c0-0.8-0.2-1.4-0.6-2
		C131.8,22.7,131.1,22.4,130.3,22.4z"/>
	<path class="st0" d="M151.1,20.1v13.1h-2.7l-0.5-1.7h-0.2c-0.4,0.7-1,1.2-1.7,1.5s-1.5,0.5-2.3,0.5c-1.4,0-2.5-0.4-3.4-1.1
		c-0.8-0.8-1.3-2-1.3-3.7v-8.5h3.6v7.7c0,0.9,0.2,1.7,0.5,2.1s0.9,0.7,1.6,0.7c1.1,0,1.8-0.4,2.2-1.1c0.4-0.7,0.6-1.8,0.6-3.2v-6.2
		H151.1z"/>
	<path class="st0" d="M162.2,19.9c0.2,0,0.4,0,0.6,0c0.2,0,0.4,0,0.6,0.1l-0.3,3.4c-0.1,0-0.3-0.1-0.5-0.1c-0.2,0-0.4,0-0.6,0
		c-0.6,0-1.2,0.1-1.8,0.3c-0.6,0.2-1,0.6-1.4,1c-0.3,0.5-0.5,1.1-0.5,2v6.7h-3.6V20.1h2.7l0.5,2.2h0.2c0.4-0.7,0.9-1.2,1.6-1.7
		C160.5,20.1,161.3,19.9,162.2,19.9z"/>
	<path class="st0" d="M177.2,26.7c0,2.2-0.6,3.9-1.7,5c-1.1,1.2-2.7,1.8-4.7,1.8c-1.2,0-2.3-0.3-3.3-0.8c-1-0.5-1.7-1.3-2.2-2.3
		c-0.5-1-0.8-2.3-0.8-3.7c0-2.2,0.6-3.8,1.7-5c1.1-1.2,2.7-1.8,4.7-1.8c1.2,0,2.3,0.3,3.3,0.8c0.9,0.5,1.7,1.3,2.2,2.3
		S177.2,25.2,177.2,26.7z M168.1,26.7c0,1.3,0.2,2.3,0.6,2.9c0.4,0.7,1.1,1,2.1,1c0.9,0,1.6-0.3,2.1-1c0.4-0.7,0.6-1.6,0.6-2.9
		s-0.2-2.3-0.6-2.9c-0.4-0.6-1.1-1-2.1-1c-0.9,0-1.6,0.3-2.1,1C168.3,24.4,168.1,25.4,168.1,26.7z"/>
	<path class="st0" d="M187.4,19.9c1.5,0,2.7,0.6,3.6,1.7c0.9,1.1,1.4,2.8,1.4,5.1c0,2.2-0.5,3.9-1.4,5.1s-2.2,1.7-3.6,1.7
		c-0.9,0-1.7-0.2-2.3-0.5s-1-0.7-1.4-1.2h-0.2c0.1,0.7,0.2,1.3,0.2,1.9V39h-3.6V20.1h2.9l0.5,1.7h0.2c0.4-0.5,0.8-1,1.4-1.4
		C185.7,20.1,186.5,19.9,187.4,19.9z M186.3,22.7c-0.9,0-1.6,0.3-2,0.9c-0.4,0.6-0.6,1.5-0.6,2.6v0.4c0,1.3,0.2,2.2,0.6,2.9
		c0.4,0.7,1.1,1,2.1,1c0.8,0,1.4-0.3,1.8-1c0.4-0.7,0.6-1.7,0.6-2.9C188.7,24,187.9,22.7,186.3,22.7z"/>
	<path class="st0" d="M200.7,19.9c1.8,0,3.1,0.4,4,1.1c0.9,0.8,1.4,1.9,1.4,3.5v8.7h-2.5l-0.7-1.8h-0.1c-0.6,0.7-1.2,1.2-1.8,1.5
		s-1.5,0.5-2.6,0.5c-1.2,0-2.1-0.3-2.9-1s-1.2-1.7-1.2-3.1c0-1.4,0.5-2.4,1.5-3.1c1-0.7,2.4-1,4.4-1.1l2.3-0.1v-0.6
		c0-0.7-0.2-1.2-0.5-1.5s-0.9-0.5-1.5-0.5c-0.6,0-1.3,0.1-1.9,0.3c-0.6,0.2-1.2,0.4-1.8,0.7l-1.2-2.4c0.7-0.4,1.5-0.6,2.3-0.9
		C198.9,20,199.7,19.9,200.7,19.9z M202.6,27.2l-1.4,0c-1.2,0-2,0.2-2.4,0.6c-0.4,0.4-0.7,0.9-0.7,1.5c0,0.5,0.2,0.9,0.5,1.2
		c0.3,0.2,0.7,0.3,1.2,0.3c0.8,0,1.4-0.2,1.9-0.7s0.8-1.1,0.8-1.9V27.2z"/>
	<path class="st0" d="M218.9,29.3c0,1.3-0.5,2.3-1.4,3.1s-2.3,1.1-4.2,1.1c-0.9,0-1.7-0.1-2.4-0.2s-1.3-0.3-2-0.6v-3
		c0.7,0.3,1.5,0.6,2.3,0.8c0.8,0.2,1.5,0.3,2.2,0.3c0.7,0,1.2-0.1,1.5-0.3c0.3-0.2,0.5-0.5,0.5-0.8c0-0.2-0.1-0.4-0.2-0.6
		c-0.1-0.2-0.4-0.4-0.8-0.6s-1-0.5-1.9-0.9c-0.8-0.4-1.5-0.7-2-1c-0.5-0.3-0.9-0.8-1.2-1.2c-0.3-0.5-0.4-1.1-0.4-1.8
		c0-1.2,0.5-2.1,1.4-2.7c0.9-0.6,2.2-0.9,3.8-0.9c0.8,0,1.6,0.1,2.3,0.2c0.7,0.2,1.5,0.4,2.3,0.8l-1.1,2.6c-0.6-0.3-1.2-0.5-1.8-0.7
		c-0.6-0.2-1.2-0.3-1.8-0.3c-1.1,0-1.6,0.3-1.6,0.9c0,0.2,0.1,0.4,0.2,0.6c0.1,0.2,0.4,0.3,0.8,0.5s1,0.4,1.7,0.8
		c0.8,0.3,1.4,0.6,1.9,0.9c0.5,0.3,1,0.7,1.3,1.2S218.9,28.6,218.9,29.3z"/>
	<path class="st0" d="M230.9,29.3c0,1.3-0.5,2.3-1.4,3.1s-2.3,1.1-4.2,1.1c-0.9,0-1.7-0.1-2.4-0.2s-1.3-0.3-2-0.6v-3
		c0.7,0.3,1.5,0.6,2.3,0.8c0.8,0.2,1.5,0.3,2.2,0.3c0.7,0,1.2-0.1,1.5-0.3c0.3-0.2,0.5-0.5,0.5-0.8c0-0.2-0.1-0.4-0.2-0.6
		c-0.1-0.2-0.4-0.4-0.8-0.6s-1-0.5-1.9-0.9c-0.8-0.4-1.5-0.7-2-1c-0.5-0.3-0.9-0.8-1.2-1.2c-0.3-0.5-0.4-1.1-0.4-1.8
		c0-1.2,0.5-2.1,1.4-2.7c0.9-0.6,2.2-0.9,3.8-0.9c0.8,0,1.6,0.1,2.3,0.2c0.7,0.2,1.5,0.4,2.3,0.8l-1.1,2.6c-0.6-0.3-1.2-0.5-1.8-0.7
		c-0.6-0.2-1.2-0.3-1.8-0.3c-1.1,0-1.6,0.3-1.6,0.9c0,0.2,0.1,0.4,0.2,0.6c0.1,0.2,0.4,0.3,0.8,0.5s1,0.4,1.7,0.8
		c0.8,0.3,1.4,0.6,1.9,0.9c0.5,0.3,1,0.7,1.3,1.2S230.9,28.6,230.9,29.3z"/>
</g>
<g>
	<defs>
		<rect id="SVGID_1_" x="41.5" y="16" width="69" height="46"/>
	</defs>
	<clipPath id="SVGID_2_">
		<use xlink:href="#SVGID_1_"  style="overflow:visible;"/>
	</clipPath>
	<rect x="36.5" y="11" class="st1" width="79" height="56"/>
</g>
<g>
	<defs>
		<polygon id="SVGID_3_" points="76,52.6 74.6,51.5 75.2,53.2 73.7,54.3 75.5,54.2 76,56 76.6,54.2 78.4,54.3 76.9,53.2 77.5,51.5 
					"/>
	</defs>
	<clipPath id="SVGID_4_">
		<use xlink:href="#SVGID_3_"  style="overflow:visible;"/>
	</clipPath>
	<rect x="68.7" y="46.5" class="st2" width="14.7" height="14.5"/>
</g>
<g>
	<defs>
		<polygon id="SVGID_5_" points="83.5,50.6 82,49.5 82.6,51.2 81.1,52.3 83,52.2 83.5,54 84,52.2 85.8,52.3 84.3,51.2 84.9,49.5 		
			"/>
	</defs>
	<clipPath id="SVGID_6_">
		<use xlink:href="#SVGID_5_"  style="overflow:visible;"/>
	</clipPath>
	<rect x="76.1" y="44.5" class="st3" width="14.7" height="14.5"/>
</g>
<g>
	<defs>
		<polygon id="SVGID_7_" points="89,45.1 87.6,44 88.2,45.7 86.7,46.8 88.5,46.7 89,48.5 89.5,46.7 91.4,46.8 89.9,45.7 90.5,44 		
			"/>
	</defs>
	<clipPath id="SVGID_8_">
		<use xlink:href="#SVGID_7_"  style="overflow:visible;"/>
	</clipPath>
	<rect x="81.7" y="39" class="st4" width="14.7" height="14.5"/>
</g>
<g>
	<defs>
		<polygon id="SVGID_9_" points="91,37.6 89.6,36.5 90.2,38.2 88.7,39.2 90.5,39.2 91,40.9 91.5,39.2 93.4,39.2 91.9,38.2 
			92.5,36.5 		"/>
	</defs>
	<clipPath id="SVGID_10_">
		<use xlink:href="#SVGID_9_"  style="overflow:visible;"/>
	</clipPath>
	<rect x="83.7" y="31.5" class="st5" width="14.7" height="14.5"/>
</g>
<g>
	<defs>
		<polygon id="SVGID_11_" points="89,30 87.6,28.9 88.2,30.6 86.7,31.7 88.5,31.6 89,33.4 89.5,31.6 91.4,31.7 89.9,30.6 90.5,28.9 
					"/>
	</defs>
	<clipPath id="SVGID_12_">
		<use xlink:href="#SVGID_11_"  style="overflow:visible;"/>
	</clipPath>
	<rect x="81.7" y="23.9" class="st6" width="14.7" height="14.5"/>
</g>
<g>
	<defs>
		<polygon id="SVGID_13_" points="83.5,24.5 82,23.4 82.6,25.1 81.1,26.2 83,26.1 83.5,27.9 84,26.1 85.8,26.2 84.3,25.1 84.9,23.4 
					"/>
	</defs>
	<clipPath id="SVGID_14_">
		<use xlink:href="#SVGID_13_"  style="overflow:visible;"/>
	</clipPath>
	<rect x="76.1" y="18.4" class="st7" width="14.7" height="14.5"/>
</g>
<g>
	<defs>
		<polygon id="SVGID_15_" points="76,22.6 74.6,21.5 75.2,23.2 73.7,24.2 75.5,24.2 76,25.9 76.6,24.2 78.4,24.2 76.9,23.2 
			77.5,21.5 		"/>
	</defs>
	<clipPath id="SVGID_16_">
		<use xlink:href="#SVGID_15_"  style="overflow:visible;"/>
	</clipPath>
	<rect x="68.7" y="16.5" class="st8" width="14.7" height="14.5"/>
</g>
<g>
	<defs>
		<polygon id="SVGID_17_" points="68.4,24.5 67,23.4 67.6,25.1 66.1,26.2 67.9,26.1 68.4,27.9 68.9,26.1 70.8,26.2 69.3,25.1 
			69.9,23.4 		"/>
	</defs>
	<clipPath id="SVGID_18_">
		<use xlink:href="#SVGID_17_"  style="overflow:visible;"/>
	</clipPath>
	<rect x="61.1" y="18.4" class="st9" width="14.7" height="14.5"/>
</g>
<g>
	<defs>
		<polygon id="SVGID_19_" points="62.9,30 61.4,28.9 62,30.6 60.5,31.7 62.4,31.6 62.9,33.4 63.4,31.6 65.2,31.7 63.7,30.6 
			64.3,28.9 		"/>
	</defs>
	<clipPath id="SVGID_20_">
		<use xlink:href="#SVGID_19_"  style="overflow:visible;"/>
	</clipPath>
	<rect x="55.5" y="23.9" class="st10" width="14.7" height="14.5"/>
</g>
<g>
	<defs>
		<polygon id="SVGID_21_" points="61,37.6 59.5,36.5 60.1,38.3 58.6,39.3 60.4,39.3 61,41 61.5,39.3 63.3,39.3 61.8,38.3 62.4,36.5 
					"/>
	</defs>
	<clipPath id="SVGID_22_">
		<use xlink:href="#SVGID_21_"  style="overflow:visible;"/>
	</clipPath>
	<rect x="53.6" y="31.5" class="st11" width="14.7" height="14.5"/>
</g>
<g>
	<defs>
		<polygon id="SVGID_23_" points="62.9,45.1 61.4,44 62,45.7 60.5,46.8 62.4,46.7 62.9,48.5 63.4,46.7 65.2,46.8 63.7,45.7 64.3,44 
					"/>
	</defs>
	<clipPath id="SVGID_24_">
		<use xlink:href="#SVGID_23_"  style="overflow:visible;"/>
	</clipPath>
	<rect x="55.5" y="39" class="st12" width="14.7" height="14.5"/>
</g>
<g>
	<defs>
		<polygon id="SVGID_25_" points="68.4,50.6 67,49.5 67.6,51.2 66.1,52.3 67.9,52.2 68.4,54 68.9,52.2 70.8,52.3 69.3,51.2 
			69.9,49.5 		"/>
	</defs>
	<clipPath id="SVGID_26_">
		<use xlink:href="#SVGID_25_"  style="overflow:visible;"/>
	</clipPath>
	<rect x="61.1" y="44.5" class="st13" width="14.7" height="14.5"/>
</g>
<g>
	<path class="st14" d="M124.9,60V42.8h12.4v2h-10.1v5.3h9.5v2h-9.5V58h10.5v2H124.9z"/>
	<path class="st14" d="M148.8,60v-1.8c-1,1.4-2.3,2.1-3.9,2.1c-0.7,0-1.4-0.1-2.1-0.4s-1.1-0.6-1.4-1.1s-0.5-0.9-0.7-1.6
		c-0.1-0.4-0.1-1.1-0.1-2v-7.7h2.1v6.9c0,1.1,0,1.8,0.1,2.2c0.1,0.6,0.4,1,0.8,1.3s1,0.5,1.6,0.5s1.2-0.2,1.8-0.5s0.9-0.8,1.2-1.3
		s0.3-1.4,0.3-2.4v-6.7h2.1V60H148.8z"/>
	<path class="st14" d="M153.9,60V47.5h1.9v1.9c0.5-0.9,0.9-1.5,1.3-1.7s0.9-0.4,1.4-0.4c0.7,0,1.4,0.2,2.2,0.7l-0.7,2
		c-0.5-0.3-1-0.5-1.5-0.5c-0.5,0-0.9,0.1-1.2,0.4s-0.6,0.7-0.8,1.2c-0.2,0.8-0.4,1.6-0.4,2.5V60H153.9z"/>
	<path class="st14" d="M161.2,53.8c0-2.3,0.6-4,1.9-5.1c1.1-0.9,2.4-1.4,3.9-1.4c1.7,0,3.1,0.6,4.2,1.7s1.6,2.7,1.6,4.6
		c0,1.6-0.2,2.9-0.7,3.8s-1.2,1.6-2.1,2.1s-1.9,0.8-3,0.8c-1.7,0-3.2-0.6-4.2-1.7S161.2,55.9,161.2,53.8z M163.3,53.8
		c0,1.6,0.3,2.8,1,3.6s1.6,1.2,2.6,1.2c1,0,1.9-0.4,2.6-1.2s1-2,1-3.6c0-1.5-0.3-2.7-1-3.5S168,49,167,49c-1.1,0-1.9,0.4-2.6,1.2
		S163.3,52.2,163.3,53.8z"/>
	<path class="st14" d="M175.3,64.8V47.5h1.9v1.6c0.5-0.6,1-1.1,1.5-1.4s1.3-0.5,2.1-0.5c1.1,0,2,0.3,2.8,0.8s1.4,1.3,1.8,2.3
		s0.6,2.1,0.6,3.3c0,1.3-0.2,2.4-0.7,3.4s-1.1,1.8-2,2.3s-1.8,0.8-2.7,0.8c-0.7,0-1.3-0.1-1.9-0.4s-1-0.7-1.4-1.1v6.1H175.3z
		 M177.2,53.8c0,1.6,0.3,2.8,1,3.6s1.4,1.1,2.4,1.1c0.9,0,1.7-0.4,2.4-1.2s1-2,1-3.7c0-1.6-0.3-2.8-1-3.6s-1.4-1.2-2.3-1.2
		c-0.9,0-1.7,0.4-2.4,1.3S177.2,52.2,177.2,53.8z"/>
	<path class="st14" d="M197.2,56l2.2,0.3c-0.3,1.3-1,2.3-1.9,3s-2.1,1.1-3.6,1.1c-1.8,0-3.3-0.6-4.3-1.7s-1.6-2.7-1.6-4.7
		c0-2.1,0.5-3.7,1.6-4.9s2.5-1.7,4.2-1.7c1.7,0,3,0.6,4.1,1.7s1.6,2.7,1.6,4.8c0,0.1,0,0.3,0,0.6h-9.3c0.1,1.4,0.5,2.4,1.2,3.1
		s1.6,1.1,2.6,1.1c0.8,0,1.4-0.2,2-0.6S196.8,56.9,197.2,56z M190.2,52.6h6.9c-0.1-1-0.4-1.8-0.8-2.4c-0.7-0.8-1.5-1.2-2.6-1.2
		c-1,0-1.8,0.3-2.4,1S190.3,51.5,190.2,52.6z"/>
	<path class="st14" d="M201.1,56.3l2.1-0.3c0.1,0.8,0.4,1.5,1,1.9s1.3,0.7,2.2,0.7c1,0,1.7-0.2,2.2-0.6s0.7-0.9,0.7-1.4
		c0-0.5-0.2-0.9-0.6-1.1c-0.3-0.2-1-0.4-2.2-0.7c-1.5-0.4-2.6-0.7-3.2-1s-1.1-0.7-1.4-1.2s-0.5-1.1-0.5-1.7c0-0.6,0.1-1.1,0.4-1.5
		s0.6-0.9,1-1.2c0.3-0.2,0.8-0.4,1.3-0.6s1.2-0.3,1.8-0.3c1,0,1.8,0.1,2.6,0.4s1.3,0.7,1.6,1.1s0.6,1.1,0.7,1.9l-2.1,0.3
		c-0.1-0.6-0.4-1.1-0.8-1.5S207,49,206.2,49c-1,0-1.7,0.2-2.1,0.5s-0.6,0.7-0.6,1.1c0,0.3,0.1,0.5,0.3,0.7c0.2,0.2,0.4,0.4,0.8,0.6
		c0.2,0.1,0.8,0.3,1.9,0.5c1.5,0.4,2.5,0.7,3.1,1s1.1,0.6,1.4,1.1s0.5,1.1,0.5,1.8c0,0.7-0.2,1.4-0.6,2s-1,1.1-1.8,1.4
		s-1.6,0.5-2.6,0.5c-1.6,0-2.8-0.3-3.7-1S201.4,57.6,201.1,56.3z"/>
	<path class="st14" d="M222.5,56l2.2,0.3c-0.3,1.3-1,2.3-1.9,3s-2.1,1.1-3.6,1.1c-1.8,0-3.3-0.6-4.3-1.7s-1.6-2.7-1.6-4.7
		c0-2.1,0.5-3.7,1.6-4.9s2.5-1.7,4.2-1.7c1.7,0,3,0.6,4.1,1.7s1.6,2.7,1.6,4.8c0,0.1,0,0.3,0,0.6h-9.3c0.1,1.4,0.5,2.4,1.2,3.1
		s1.6,1.1,2.6,1.1c0.8,0,1.4-0.2,2-0.6S222.2,56.9,222.5,56z M215.6,52.6h6.9c-0.1-1-0.4-1.8-0.8-2.4c-0.7-0.8-1.5-1.2-2.6-1.2
		c-1,0-1.8,0.3-2.4,1S215.7,51.5,215.6,52.6z"/>
	<path class="st14" d="M245.5,42.8h2.3v9.9c0,1.7-0.2,3.1-0.6,4.1s-1.1,1.8-2.1,2.5s-2.4,1-4,1c-1.6,0-2.9-0.3-3.9-0.8
		s-1.8-1.4-2.2-2.4s-0.7-2.5-0.7-4.3v-9.9h2.3v9.9c0,1.5,0.1,2.6,0.4,3.3s0.8,1.3,1.4,1.6s1.5,0.6,2.5,0.6c1.7,0,2.9-0.4,3.6-1.1
		s1.1-2.2,1.1-4.4V42.8z"/>
	<path class="st14" d="M251.3,60V47.5h1.9v1.8c0.9-1.4,2.2-2.1,4-2.1c0.8,0,1.4,0.1,2.1,0.4s1.1,0.6,1.4,1.1s0.5,1,0.7,1.6
		c0.1,0.4,0.1,1.1,0.1,2.1V60h-2.1v-7.6c0-0.9-0.1-1.5-0.2-1.9s-0.5-0.8-0.9-1s-0.9-0.4-1.5-0.4c-0.9,0-1.7,0.3-2.3,0.9
		s-1,1.7-1,3.2V60H251.3z"/>
	<path class="st14" d="M264.7,45.2v-2.4h2.1v2.4H264.7z M264.7,60V47.5h2.1V60H264.7z"/>
	<path class="st14" d="M278.5,56l2.2,0.3c-0.3,1.3-1,2.3-1.9,3s-2.1,1.1-3.6,1.1c-1.8,0-3.3-0.6-4.3-1.7s-1.6-2.7-1.6-4.7
		c0-2.1,0.5-3.7,1.6-4.9s2.5-1.7,4.2-1.7c1.7,0,3,0.6,4.1,1.7s1.6,2.7,1.6,4.8c0,0.1,0,0.3,0,0.6h-9.3c0.1,1.4,0.5,2.4,1.2,3.1
		s1.6,1.1,2.6,1.1c0.8,0,1.4-0.2,2-0.6S278.2,56.9,278.5,56z M271.6,52.6h6.9c-0.1-1-0.4-1.8-0.8-2.4c-0.7-0.8-1.5-1.2-2.6-1.2
		c-1,0-1.8,0.3-2.4,1S271.7,51.5,271.6,52.6z"/>
</g>
</svg>
