<?xml version="1.0" encoding="utf-8"?>
<!-- Generator: Adobe Illustrator 23.1.1, SVG Export Plug-In . SVG Version: 6.00 Build 0)  -->
<svg version="1.1" id="Capa_1" xmlns="http://www.w3.org/2000/svg" xmlns:xlink="http://www.w3.org/1999/xlink" x="0px" y="0px"
	 viewBox="0 0 315.7 80.8" style="enable-background:new 0 0 315.7 80.8;" xml:space="preserve">
<style type="text/css">
	.st0{fill:#6C3088;}
	.st1{clip-path:url(#SVGID_2_);fill:#203C89;}
	.st2{clip-path:url(#SVGID_4_);fill:#FFCC04;}
	.st3{clip-path:url(#SVGID_6_);fill:#FFCC04;}
	.st4{clip-path:url(#SVGID_8_);fill:#FFCC04;}
	.st5{clip-path:url(#SVGID_10_);fill:#FFCC04;}
	.st6{clip-path:url(#SVGID_12_);fill:#FFCC04;}
	.st7{clip-path:url(#SVGID_14_);fill:#FFCC04;}
	.st8{clip-path:url(#SVGID_16_);fill:#FFCC04;}
	.st9{clip-path:url(#SVGID_18_);fill:#FFCC04;}
	.st10{clip-path:url(#SVGID_20_);fill:#FFCC04;}
	.st11{clip-path:url(#SVGID_22_);fill:#FFCC04;}
	.st12{clip-path:url(#SVGID_24_);fill:#FFCC04;}
	.st13{clip-path:url(#SVGID_26_);fill:#FFCC04;}
	.st14{fill:#020304;}
</style>
<g>
	<path class="st0" d="M121,19.7c1.8,0,3.2,0.5,4.3,1.5c1.1,1,1.6,2.5,1.6,4.4v1.7h-8.4c0,1,0.3,1.8,0.9,2.4c0.6,0.6,1.4,0.9,2.4,0.9
		c0.8,0,1.6-0.1,2.3-0.3c0.7-0.2,1.4-0.4,2.1-0.8v2.8c-0.7,0.3-1.3,0.6-2,0.7c-0.7,0.2-1.6,0.2-2.6,0.2c-1.3,0-2.5-0.2-3.5-0.7
		c-1-0.5-1.8-1.2-2.4-2.2c-0.6-1-0.9-2.2-0.9-3.8c0-1.5,0.3-2.8,0.8-3.8c0.5-1,1.2-1.8,2.2-2.3C118.7,20,119.7,19.7,121,19.7z
		 M121,22.3c-0.7,0-1.3,0.2-1.7,0.7c-0.4,0.4-0.7,1.1-0.8,2.1h5c0-0.8-0.2-1.4-0.6-2C122.4,22.6,121.8,22.3,121,22.3z"/>
	<path class="st0" d="M141.8,20v13.1H139l-0.5-1.7h-0.2c-0.4,0.7-1,1.2-1.7,1.5s-1.5,0.5-2.3,0.5c-1.4,0-2.5-0.4-3.4-1.1
		s-1.3-2-1.3-3.7V20h3.6v7.7c0,0.9,0.2,1.7,0.5,2.1c0.3,0.5,0.9,0.7,1.6,0.7c1.1,0,1.8-0.4,2.2-1.1c0.4-0.7,0.6-1.8,0.6-3.2V20
		H141.8z"/>
	<path class="st0" d="M152.8,19.7c0.2,0,0.4,0,0.6,0c0.2,0,0.4,0,0.6,0.1l-0.3,3.4c-0.1,0-0.3-0.1-0.5-0.1c-0.2,0-0.4,0-0.6,0
		c-0.6,0-1.2,0.1-1.8,0.3s-1,0.6-1.4,1c-0.3,0.5-0.5,1.1-0.5,2v6.7h-3.6V20h2.7l0.5,2.2h0.2c0.4-0.7,0.9-1.2,1.6-1.7
		C151.2,20,152,19.7,152.8,19.7z"/>
	<path class="st0" d="M167.8,26.5c0,2.2-0.6,3.9-1.7,5c-1.1,1.2-2.7,1.8-4.7,1.8c-1.2,0-2.3-0.3-3.3-0.8c-1-0.5-1.7-1.3-2.2-2.3
		c-0.5-1-0.8-2.3-0.8-3.7c0-2.2,0.6-3.8,1.7-5c1.1-1.2,2.7-1.8,4.7-1.8c1.2,0,2.3,0.3,3.3,0.8c0.9,0.5,1.7,1.3,2.2,2.3
		S167.8,25.1,167.8,26.5z M158.8,26.5c0,1.3,0.2,2.3,0.6,2.9s1.1,1,2.1,1c0.9,0,1.6-0.3,2.1-1c0.4-0.7,0.6-1.6,0.6-2.9
		c0-1.3-0.2-2.3-0.6-2.9c-0.4-0.6-1.1-1-2.1-1c-0.9,0-1.6,0.3-2.1,1C159,24.2,158.8,25.2,158.8,26.5z"/>
	<path class="st0" d="M178.1,19.7c1.5,0,2.7,0.6,3.6,1.7c0.9,1.1,1.4,2.8,1.4,5.1c0,2.2-0.5,3.9-1.4,5.1c-0.9,1.2-2.2,1.7-3.6,1.7
		c-0.9,0-1.7-0.2-2.3-0.5c-0.6-0.3-1-0.7-1.4-1.2h-0.2c0.1,0.7,0.2,1.3,0.2,1.9v5.3h-3.6V20h2.9l0.5,1.7h0.2c0.4-0.5,0.8-1,1.4-1.4
		S177.1,19.7,178.1,19.7z M176.9,22.6c-0.9,0-1.6,0.3-2,0.9c-0.4,0.6-0.6,1.5-0.6,2.6v0.4c0,1.3,0.2,2.2,0.6,2.9
		c0.4,0.7,1.1,1,2.1,1c0.8,0,1.4-0.3,1.8-1s0.6-1.7,0.6-2.9C179.4,23.9,178.6,22.6,176.9,22.6z"/>
	<path class="st0" d="M191.4,19.7c1.8,0,3.1,0.4,4,1.1s1.4,1.9,1.4,3.5v8.7h-2.5l-0.7-1.8h-0.1c-0.6,0.7-1.2,1.2-1.8,1.5
		c-0.6,0.3-1.5,0.5-2.6,0.5c-1.2,0-2.1-0.3-2.9-1s-1.2-1.7-1.2-3.1c0-1.4,0.5-2.4,1.5-3.1c1-0.7,2.4-1,4.4-1.1l2.3-0.1v-0.6
		c0-0.7-0.2-1.2-0.5-1.5c-0.4-0.3-0.9-0.5-1.5-0.5c-0.6,0-1.3,0.1-1.9,0.3c-0.6,0.2-1.2,0.4-1.8,0.7l-1.2-2.4
		c0.7-0.4,1.5-0.6,2.3-0.9C189.5,19.8,190.4,19.7,191.4,19.7z M193.3,27l-1.4,0c-1.2,0-2,0.2-2.4,0.6c-0.4,0.4-0.7,0.9-0.7,1.5
		c0,0.5,0.2,0.9,0.5,1.2c0.3,0.2,0.7,0.3,1.2,0.3c0.8,0,1.4-0.2,1.9-0.7s0.8-1.1,0.8-1.9V27z"/>
	<path class="st0" d="M209.6,29.2c0,1.3-0.5,2.3-1.4,3.1c-0.9,0.7-2.3,1.1-4.2,1.1c-0.9,0-1.7-0.1-2.4-0.2s-1.3-0.3-2-0.6v-3
		c0.7,0.3,1.5,0.6,2.3,0.8c0.8,0.2,1.5,0.3,2.2,0.3c0.7,0,1.2-0.1,1.5-0.3c0.3-0.2,0.5-0.5,0.5-0.8c0-0.2-0.1-0.4-0.2-0.6
		s-0.4-0.4-0.8-0.6c-0.4-0.2-1-0.5-1.9-0.9c-0.8-0.4-1.5-0.7-2-1c-0.5-0.3-0.9-0.8-1.2-1.2s-0.4-1.1-0.4-1.8c0-1.2,0.5-2.1,1.4-2.7
		c0.9-0.6,2.2-0.9,3.8-0.9c0.8,0,1.6,0.1,2.3,0.2s1.5,0.4,2.3,0.8l-1.1,2.6c-0.6-0.3-1.2-0.5-1.8-0.7c-0.6-0.2-1.2-0.3-1.8-0.3
		c-1.1,0-1.6,0.3-1.6,0.9c0,0.2,0.1,0.4,0.2,0.6c0.1,0.2,0.4,0.3,0.8,0.5c0.4,0.2,1,0.4,1.7,0.8c0.8,0.3,1.4,0.6,1.9,0.9
		s1,0.7,1.3,1.2C209.5,27.8,209.6,28.4,209.6,29.2z"/>
	<path class="st0" d="M221.5,29.2c0,1.3-0.5,2.3-1.4,3.1c-0.9,0.7-2.3,1.1-4.2,1.1c-0.9,0-1.7-0.1-2.4-0.2s-1.3-0.3-2-0.6v-3
		c0.7,0.3,1.5,0.6,2.3,0.8c0.8,0.2,1.5,0.3,2.2,0.3c0.7,0,1.2-0.1,1.5-0.3c0.3-0.2,0.5-0.5,0.5-0.8c0-0.2-0.1-0.4-0.2-0.6
		s-0.4-0.4-0.8-0.6c-0.4-0.2-1-0.5-1.9-0.9c-0.8-0.4-1.5-0.7-2-1c-0.5-0.3-0.9-0.8-1.2-1.2s-0.4-1.1-0.4-1.8c0-1.2,0.5-2.1,1.4-2.7
		c0.9-0.6,2.2-0.9,3.8-0.9c0.8,0,1.6,0.1,2.3,0.2s1.5,0.4,2.3,0.8l-1.1,2.6c-0.6-0.3-1.2-0.5-1.8-0.7c-0.6-0.2-1.2-0.3-1.8-0.3
		c-1.1,0-1.6,0.3-1.6,0.9c0,0.2,0.1,0.4,0.2,0.6c0.1,0.2,0.4,0.3,0.8,0.5c0.4,0.2,1,0.4,1.7,0.8c0.8,0.3,1.4,0.6,1.9,0.9
		s1,0.7,1.3,1.2C221.4,27.8,221.5,28.4,221.5,29.2z"/>
</g>
<g>
	<defs>
		<rect id="SVGID_1_" x="32.2" y="15.9" width="69" height="46"/>
	</defs>
	<clipPath id="SVGID_2_">
		<use xlink:href="#SVGID_1_"  style="overflow:visible;"/>
	</clipPath>
	<rect x="27.2" y="10.9" class="st1" width="79" height="56"/>
</g>
<g>
	<defs>
		<polygon id="SVGID_3_" points="66.7,52.5 65.3,51.4 65.9,53.1 64.4,54.1 66.2,54.1 66.7,55.9 67.2,54.1 69.1,54.1 67.6,53.1 
			68.2,51.4 		"/>
	</defs>
	<clipPath id="SVGID_4_">
		<use xlink:href="#SVGID_3_"  style="overflow:visible;"/>
	</clipPath>
	<rect x="59.4" y="46.4" class="st2" width="14.7" height="14.5"/>
</g>
<g>
	<defs>
		<polygon id="SVGID_5_" points="74.2,50.5 72.7,49.4 73.3,51.1 71.8,52.1 73.6,52.1 74.2,53.8 74.7,52.1 76.5,52.1 75,51.1 
			75.6,49.4 		"/>
	</defs>
	<clipPath id="SVGID_6_">
		<use xlink:href="#SVGID_5_"  style="overflow:visible;"/>
	</clipPath>
	<rect x="66.8" y="44.4" class="st3" width="14.7" height="14.5"/>
</g>
<g>
	<defs>
		<polygon id="SVGID_7_" points="79.7,45 78.2,43.8 78.8,45.6 77.3,46.6 79.2,46.6 79.7,48.3 80.2,46.6 82,46.6 80.5,45.6 
			81.1,43.8 		"/>
	</defs>
	<clipPath id="SVGID_8_">
		<use xlink:href="#SVGID_7_"  style="overflow:visible;"/>
	</clipPath>
	<rect x="72.3" y="38.8" class="st4" width="14.7" height="14.5"/>
</g>
<g>
	<defs>
		<polygon id="SVGID_9_" points="81.7,37.4 80.2,36.3 80.8,38 79.3,39.1 81.2,39 81.7,40.8 82.2,39 84,39.1 82.5,38 83.1,36.3 		"/>
	</defs>
	<clipPath id="SVGID_10_">
		<use xlink:href="#SVGID_9_"  style="overflow:visible;"/>
	</clipPath>
	<rect x="74.3" y="31.3" class="st5" width="14.7" height="14.5"/>
</g>
<g>
	<defs>
		<polygon id="SVGID_11_" points="79.7,29.9 78.2,28.8 78.8,30.5 77.3,31.5 79.2,31.5 79.7,33.2 80.2,31.5 82,31.5 80.5,30.5 
			81.1,28.8 		"/>
	</defs>
	<clipPath id="SVGID_12_">
		<use xlink:href="#SVGID_11_"  style="overflow:visible;"/>
	</clipPath>
	<rect x="72.3" y="23.8" class="st6" width="14.7" height="14.5"/>
</g>
<g>
	<defs>
		<polygon id="SVGID_13_" points="74.2,24.4 72.7,23.3 73.3,25 71.8,26 73.6,26 74.2,27.7 74.7,26 76.5,26 75,25 75.6,23.3 		"/>
	</defs>
	<clipPath id="SVGID_14_">
		<use xlink:href="#SVGID_13_"  style="overflow:visible;"/>
	</clipPath>
	<rect x="66.8" y="18.3" class="st7" width="14.7" height="14.5"/>
</g>
<g>
	<defs>
		<polygon id="SVGID_15_" points="66.7,22.4 65.3,21.3 65.9,23 64.4,24.1 66.2,24 66.7,25.8 67.2,24 69.1,24.1 67.6,23 68.2,21.3 		
			"/>
	</defs>
	<clipPath id="SVGID_16_">
		<use xlink:href="#SVGID_15_"  style="overflow:visible;"/>
	</clipPath>
	<rect x="59.4" y="16.3" class="st8" width="14.7" height="14.5"/>
</g>
<g>
	<defs>
		<polygon id="SVGID_17_" points="59.1,24.4 57.6,23.3 58.2,25 56.7,26 58.6,26 59.1,27.7 59.6,26 61.4,26 59.9,25 60.5,23.3 		"/>
	</defs>
	<clipPath id="SVGID_18_">
		<use xlink:href="#SVGID_17_"  style="overflow:visible;"/>
	</clipPath>
	<rect x="51.7" y="18.3" class="st9" width="14.7" height="14.5"/>
</g>
<g>
	<defs>
		<polygon id="SVGID_19_" points="53.6,29.9 52.1,28.8 52.7,30.5 51.2,31.5 53,31.5 53.6,33.2 54.1,31.5 55.9,31.5 54.4,30.5 
			55,28.8 		"/>
	</defs>
	<clipPath id="SVGID_20_">
		<use xlink:href="#SVGID_19_"  style="overflow:visible;"/>
	</clipPath>
	<rect x="46.2" y="23.8" class="st10" width="14.7" height="14.5"/>
</g>
<g>
	<defs>
		<polygon id="SVGID_21_" points="51.6,37.5 50.2,36.4 50.8,38.1 49.3,39.2 51.1,39.1 51.6,40.9 52.2,39.1 54,39.2 52.5,38.1 
			53.1,36.4 		"/>
	</defs>
	<clipPath id="SVGID_22_">
		<use xlink:href="#SVGID_21_"  style="overflow:visible;"/>
	</clipPath>
	<rect x="44.3" y="31.4" class="st11" width="14.7" height="14.5"/>
</g>
<g>
	<defs>
		<polygon id="SVGID_23_" points="53.6,45 52.1,43.8 52.7,45.6 51.2,46.6 53,46.6 53.6,48.3 54.1,46.6 55.9,46.6 54.4,45.6 55,43.8 
					"/>
	</defs>
	<clipPath id="SVGID_24_">
		<use xlink:href="#SVGID_23_"  style="overflow:visible;"/>
	</clipPath>
	<rect x="46.2" y="38.8" class="st12" width="14.7" height="14.5"/>
</g>
<g>
	<defs>
		<polygon id="SVGID_25_" points="59.1,50.5 57.6,49.4 58.2,51.1 56.7,52.1 58.6,52.1 59.1,53.8 59.6,52.1 61.4,52.1 59.9,51.1 
			60.5,49.4 		"/>
	</defs>
	<clipPath id="SVGID_26_">
		<use xlink:href="#SVGID_25_"  style="overflow:visible;"/>
	</clipPath>
	<rect x="51.7" y="44.4" class="st13" width="14.7" height="14.5"/>
</g>
<g>
	<path class="st14" d="M126.8,42.7h2.3v9.9c0,1.7-0.2,3.1-0.6,4.1s-1.1,1.8-2.1,2.5s-2.4,1-4,1c-1.6,0-2.9-0.3-3.9-0.8
		s-1.8-1.4-2.2-2.4s-0.7-2.5-0.7-4.3v-9.9h2.3v9.9c0,1.5,0.1,2.6,0.4,3.3s0.8,1.3,1.4,1.6s1.5,0.6,2.5,0.6c1.7,0,2.9-0.4,3.6-1.1
		s1.1-2.2,1.1-4.4V42.7z"/>
	<path class="st14" d="M132.6,59.9V47.4h1.9v1.8c0.9-1.4,2.2-2.1,4-2.1c0.8,0,1.4,0.1,2.1,0.4s1.1,0.6,1.4,1.1s0.5,1,0.7,1.6
		c0.1,0.4,0.1,1.1,0.1,2.1v7.7h-2.1v-7.6c0-0.9-0.1-1.5-0.2-1.9s-0.5-0.8-0.9-1S138.6,49,138,49c-0.9,0-1.7,0.3-2.3,0.9
		s-1,1.7-1,3.2v6.8H132.6z"/>
	<path class="st14" d="M146,45.1v-2.4h2.1v2.4H146z M146,59.9V47.4h2.1v12.4H146z"/>
	<path class="st14" d="M159.4,58.3c-0.8,0.7-1.5,1.1-2.3,1.4s-1.5,0.4-2.3,0.4c-1.4,0-2.4-0.3-3.2-1s-1.1-1.5-1.1-2.6
		c0-0.6,0.1-1.2,0.4-1.7s0.6-0.9,1.1-1.2s1-0.5,1.5-0.7c0.4-0.1,1-0.2,1.9-0.3c1.7-0.2,3-0.4,3.8-0.7c0-0.3,0-0.5,0-0.6
		c0-0.9-0.2-1.5-0.6-1.8c-0.5-0.5-1.3-0.7-2.4-0.7c-1,0-1.7,0.2-2.2,0.5s-0.8,1-1,1.8l-2.1-0.3c0.2-0.9,0.5-1.6,0.9-2.1
		s1.1-1,1.9-1.3s1.8-0.4,2.8-0.4c1.1,0,1.9,0.1,2.6,0.4s1.2,0.6,1.5,0.9s0.5,0.9,0.7,1.4c0.1,0.4,0.1,1,0.1,1.9v2.8
		c0,2,0,3.2,0.1,3.7s0.3,1,0.5,1.5h-2.2C159.6,59.4,159.5,58.9,159.4,58.3z M159.2,53.6c-0.8,0.3-1.9,0.6-3.4,0.8
		c-0.9,0.1-1.5,0.3-1.8,0.4s-0.6,0.4-0.8,0.7s-0.3,0.6-0.3,1c0,0.6,0.2,1,0.6,1.4s1,0.6,1.9,0.6c0.8,0,1.5-0.2,2.2-0.5
		s1.1-0.8,1.4-1.5c0.2-0.5,0.3-1.2,0.3-2.1V53.6z"/>
	<path class="st14" d="M171.6,59.9V42.7H184v2h-10.1V50h9.5v2h-9.5v5.8h10.5v2H171.6z"/>
	<path class="st14" d="M195.5,59.9V58c-1,1.4-2.3,2.1-3.9,2.1c-0.7,0-1.4-0.1-2.1-0.4s-1.1-0.6-1.4-1.1s-0.5-0.9-0.7-1.6
		c-0.1-0.4-0.1-1.1-0.1-2v-7.7h2.1v6.9c0,1.1,0,1.8,0.1,2.2c0.1,0.6,0.4,1,0.8,1.3s1,0.5,1.6,0.5s1.2-0.2,1.8-0.5s0.9-0.8,1.2-1.3
		s0.3-1.4,0.3-2.4v-6.7h2.1v12.4H195.5z"/>
	<path class="st14" d="M200.6,59.9V47.4h1.9v1.9c0.5-0.9,0.9-1.5,1.3-1.7s0.9-0.4,1.4-0.4c0.7,0,1.4,0.2,2.2,0.7l-0.7,2
		c-0.5-0.3-1-0.5-1.5-0.5c-0.5,0-0.9,0.1-1.2,0.4s-0.6,0.7-0.8,1.2c-0.2,0.8-0.4,1.6-0.4,2.5v6.5H200.6z"/>
	<path class="st14" d="M207.9,53.6c0-2.3,0.6-4,1.9-5.1c1.1-0.9,2.4-1.4,3.9-1.4c1.7,0,3.1,0.6,4.2,1.7c1.1,1.1,1.6,2.7,1.6,4.6
		c0,1.6-0.2,2.9-0.7,3.8s-1.2,1.6-2.1,2.1s-1.9,0.8-3,0.8c-1.7,0-3.2-0.6-4.2-1.7S207.9,55.7,207.9,53.6z M210,53.6
		c0,1.6,0.3,2.8,1,3.6s1.6,1.2,2.6,1.2c1,0,1.9-0.4,2.6-1.2s1-2,1-3.6c0-1.5-0.3-2.7-1-3.5s-1.6-1.2-2.6-1.2c-1.1,0-1.9,0.4-2.6,1.2
		S210,52,210,53.6z"/>
	<path class="st14" d="M222,64.6V47.4h1.9V49c0.5-0.6,1-1.1,1.5-1.4s1.3-0.5,2.1-0.5c1.1,0,2,0.3,2.8,0.8s1.4,1.3,1.8,2.3
		s0.6,2.1,0.6,3.3c0,1.3-0.2,2.4-0.7,3.4s-1.1,1.8-2,2.3s-1.8,0.8-2.7,0.8c-0.7,0-1.3-0.1-1.9-0.4s-1-0.7-1.4-1.1v6.1H222z
		 M223.9,53.7c0,1.6,0.3,2.8,1,3.6s1.4,1.1,2.4,1.1c0.9,0,1.7-0.4,2.4-1.2s1-2,1-3.7c0-1.6-0.3-2.8-1-3.6s-1.4-1.2-2.3-1.2
		c-0.9,0-1.7,0.4-2.4,1.3S223.9,52.1,223.9,53.7z"/>
	<path class="st14" d="M243.9,55.8l2.2,0.3c-0.3,1.3-1,2.3-1.9,3s-2.1,1.1-3.6,1.1c-1.8,0-3.3-0.6-4.3-1.7s-1.6-2.7-1.6-4.7
		c0-2.1,0.5-3.7,1.6-4.9s2.5-1.7,4.2-1.7c1.7,0,3,0.6,4.1,1.7s1.6,2.7,1.6,4.8c0,0.1,0,0.3,0,0.6h-9.3c0.1,1.4,0.5,2.4,1.2,3.1
		s1.6,1.1,2.6,1.1c0.8,0,1.4-0.2,2-0.6S243.5,56.7,243.9,55.8z M236.9,52.4h6.9c-0.1-1-0.4-1.8-0.8-2.4c-0.7-0.8-1.5-1.2-2.6-1.2
		c-1,0-1.8,0.3-2.4,1S237,51.3,236.9,52.4z"/>
	<path class="st14" d="M246,64.7l0.4-1.8c0.4,0.1,0.8,0.2,1,0.2c0.4,0,0.8-0.1,1-0.4s0.3-1,0.3-2.1V47.4h2.1v13.1
		c0,1.5-0.2,2.6-0.6,3.2c-0.5,0.8-1.4,1.2-2.5,1.2C247.1,64.9,246.5,64.8,246,64.7z M248.7,45.1v-2.4h2.1v2.4H248.7z"/>
	<path class="st14" d="M253.2,56.1l2.1-0.3c0.1,0.8,0.4,1.5,1,1.9s1.3,0.7,2.2,0.7c1,0,1.7-0.2,2.2-0.6s0.7-0.9,0.7-1.4
		c0-0.5-0.2-0.9-0.6-1.1c-0.3-0.2-1-0.4-2.2-0.7c-1.5-0.4-2.6-0.7-3.2-1s-1.1-0.7-1.4-1.2s-0.5-1.1-0.5-1.7c0-0.6,0.1-1.1,0.4-1.5
		s0.6-0.9,1-1.2c0.3-0.2,0.8-0.4,1.3-0.6s1.2-0.3,1.8-0.3c1,0,1.8,0.1,2.6,0.4s1.3,0.7,1.6,1.1s0.6,1.1,0.7,1.9l-2.1,0.3
		c-0.1-0.6-0.4-1.1-0.8-1.5s-1.1-0.5-1.9-0.5c-1,0-1.7,0.2-2.1,0.5s-0.6,0.7-0.6,1.1c0,0.3,0.1,0.5,0.3,0.7c0.2,0.2,0.4,0.4,0.8,0.6
		c0.2,0.1,0.8,0.3,1.9,0.5c1.5,0.4,2.5,0.7,3.1,1s1.1,0.6,1.4,1.1s0.5,1.1,0.5,1.8c0,0.7-0.2,1.4-0.6,2s-1,1.1-1.8,1.4
		s-1.6,0.5-2.6,0.5c-1.6,0-2.8-0.3-3.7-1S253.4,57.5,253.2,56.1z"/>
	<path class="st14" d="M266,59.9V42.7h2.1v9.8l5-5.1h2.7l-4.8,4.6l5.2,7.8h-2.6l-4.1-6.4l-1.5,1.4v4.9H266z"/>
	<path class="st14" d="M286.1,58.3c-0.8,0.7-1.5,1.1-2.3,1.4s-1.5,0.4-2.3,0.4c-1.4,0-2.4-0.3-3.2-1s-1.1-1.5-1.1-2.6
		c0-0.6,0.1-1.2,0.4-1.7s0.6-0.9,1.1-1.2s1-0.5,1.5-0.7c0.4-0.1,1-0.2,1.9-0.3c1.7-0.2,3-0.4,3.8-0.7c0-0.3,0-0.5,0-0.6
		c0-0.9-0.2-1.5-0.6-1.8c-0.5-0.5-1.3-0.7-2.4-0.7c-1,0-1.7,0.2-2.2,0.5s-0.8,1-1,1.8l-2.1-0.3c0.2-0.9,0.5-1.6,0.9-2.1
		s1.1-1,1.9-1.3s1.8-0.4,2.8-0.4c1.1,0,1.9,0.1,2.6,0.4s1.2,0.6,1.5,0.9s0.5,0.9,0.7,1.4c0.1,0.4,0.1,1,0.1,1.9v2.8
		c0,2,0,3.2,0.1,3.7s0.3,1,0.5,1.5h-2.2C286.3,59.4,286.2,58.9,286.1,58.3z M286,53.6c-0.8,0.3-1.9,0.6-3.4,0.8
		c-0.9,0.1-1.5,0.3-1.8,0.4s-0.6,0.4-0.8,0.7s-0.3,0.6-0.3,1c0,0.6,0.2,1,0.6,1.4s1,0.6,1.9,0.6c0.8,0,1.5-0.2,2.2-0.5
		s1.1-0.8,1.4-1.5c0.2-0.5,0.3-1.2,0.3-2.1V53.6z"/>
</g>
</svg>
