<?xml version="1.0" encoding="utf-8"?>
<!-- Generator: Adobe Illustrator 23.1.1, SVG Export Plug-In . SVG Version: 6.00 Build 0)  -->
<svg version="1.1" id="Capa_1" xmlns="http://www.w3.org/2000/svg" xmlns:xlink="http://www.w3.org/1999/xlink" x="0px" y="0px"
	 viewBox="0 0 315.7 80.8" style="enable-background:new 0 0 315.7 80.8;" xml:space="preserve">
<style type="text/css">
	.st0{fill:#6C3088;}
	.st1{clip-path:url(#SVGID_2_);fill:#203C89;}
	.st2{clip-path:url(#SVGID_4_);fill:#FFCC04;}
	.st3{clip-path:url(#SVGID_6_);fill:#FFCC04;}
	.st4{clip-path:url(#SVGID_8_);fill:#FFCC04;}
	.st5{clip-path:url(#SVGID_10_);fill:#FFCC04;}
	.st6{clip-path:url(#SVGID_12_);fill:#FFCC04;}
	.st7{clip-path:url(#SVGID_14_);fill:#FFCC04;}
	.st8{clip-path:url(#SVGID_16_);fill:#FFCC04;}
	.st9{clip-path:url(#SVGID_18_);fill:#FFCC04;}
	.st10{clip-path:url(#SVGID_20_);fill:#FFCC04;}
	.st11{clip-path:url(#SVGID_22_);fill:#FFCC04;}
	.st12{clip-path:url(#SVGID_24_);fill:#FFCC04;}
	.st13{clip-path:url(#SVGID_26_);fill:#FFCC04;}
	.st14{fill:#020304;}
</style>
<g>
	<path class="st0" d="M99.6,19.9c1.8,0,3.2,0.5,4.3,1.5c1.1,1,1.6,2.5,1.6,4.4v1.7h-8.4c0,1,0.3,1.8,0.9,2.4
		c0.6,0.6,1.4,0.9,2.4,0.9c0.8,0,1.6-0.1,2.3-0.3c0.7-0.2,1.4-0.4,2.1-0.8v2.8c-0.7,0.3-1.3,0.6-2,0.7c-0.7,0.2-1.6,0.2-2.6,0.2
		c-1.3,0-2.5-0.2-3.5-0.7c-1-0.5-1.8-1.2-2.4-2.2c-0.6-1-0.9-2.2-0.9-3.8c0-1.5,0.3-2.8,0.8-3.8c0.5-1,1.2-1.8,2.2-2.3
		C97.3,20.1,98.4,19.9,99.6,19.9z M99.7,22.4c-0.7,0-1.3,0.2-1.7,0.7c-0.4,0.4-0.7,1.1-0.8,2.1h5c0-0.8-0.2-1.4-0.6-2
		C101.1,22.7,100.5,22.4,99.7,22.4z"/>
	<path class="st0" d="M120.4,20.1v13.1h-2.7l-0.5-1.7H117c-0.4,0.7-1,1.2-1.7,1.5s-1.5,0.5-2.3,0.5c-1.4,0-2.5-0.4-3.4-1.1
		c-0.8-0.8-1.3-2-1.3-3.7v-8.5h3.6v7.7c0,0.9,0.2,1.7,0.5,2.1c0.3,0.5,0.9,0.7,1.6,0.7c1.1,0,1.8-0.4,2.2-1.1
		c0.4-0.7,0.6-1.8,0.6-3.2v-6.2H120.4z"/>
	<path class="st0" d="M131.5,19.9c0.2,0,0.4,0,0.6,0c0.2,0,0.4,0,0.6,0.1l-0.3,3.4c-0.1,0-0.3-0.1-0.5-0.1c-0.2,0-0.4,0-0.6,0
		c-0.6,0-1.2,0.1-1.8,0.3s-1,0.6-1.4,1c-0.3,0.5-0.5,1.1-0.5,2v6.7h-3.6V20.1h2.7l0.5,2.2h0.2c0.4-0.7,0.9-1.2,1.6-1.7
		C129.9,20.1,130.6,19.9,131.5,19.9z"/>
	<path class="st0" d="M146.5,26.7c0,2.2-0.6,3.9-1.7,5c-1.1,1.2-2.7,1.8-4.7,1.8c-1.2,0-2.3-0.3-3.3-0.8c-1-0.5-1.7-1.3-2.2-2.3
		c-0.5-1-0.8-2.3-0.8-3.7c0-2.2,0.6-3.8,1.7-5c1.1-1.2,2.7-1.8,4.7-1.8c1.2,0,2.3,0.3,3.3,0.8c0.9,0.5,1.7,1.3,2.2,2.3
		S146.5,25.2,146.5,26.7z M137.5,26.7c0,1.3,0.2,2.3,0.6,2.9s1.1,1,2.1,1c0.9,0,1.6-0.3,2.1-1c0.4-0.7,0.6-1.6,0.6-2.9
		c0-1.3-0.2-2.3-0.6-2.9c-0.4-0.6-1.1-1-2.1-1c-0.9,0-1.6,0.3-2.1,1C137.7,24.4,137.5,25.4,137.5,26.7z"/>
	<path class="st0" d="M156.8,19.9c1.5,0,2.7,0.6,3.6,1.7c0.9,1.1,1.4,2.8,1.4,5.1c0,2.2-0.5,3.9-1.4,5.1c-0.9,1.2-2.2,1.7-3.6,1.7
		c-0.9,0-1.7-0.2-2.3-0.5c-0.6-0.3-1-0.7-1.4-1.2h-0.2c0.1,0.7,0.2,1.3,0.2,1.9V39h-3.6V20.1h2.9l0.5,1.7h0.2c0.4-0.5,0.8-1,1.4-1.4
		S155.8,19.9,156.8,19.9z M155.6,22.7c-0.9,0-1.6,0.3-2,0.9c-0.4,0.6-0.6,1.5-0.6,2.6v0.4c0,1.3,0.2,2.2,0.6,2.9
		c0.4,0.7,1.1,1,2.1,1c0.8,0,1.4-0.3,1.8-1s0.6-1.7,0.6-2.9C158.1,24,157.2,22.7,155.6,22.7z"/>
	<path class="st0" d="M170,19.9c1.8,0,3.1,0.4,4,1.1s1.4,1.9,1.4,3.5v8.7H173l-0.7-1.8h-0.1c-0.6,0.7-1.2,1.2-1.8,1.5
		c-0.6,0.3-1.5,0.5-2.6,0.5c-1.2,0-2.1-0.3-2.9-1c-0.8-0.7-1.2-1.7-1.2-3.1c0-1.4,0.5-2.4,1.5-3.1c1-0.7,2.4-1,4.4-1.1l2.3-0.1v-0.6
		c0-0.7-0.2-1.2-0.5-1.5c-0.4-0.3-0.9-0.5-1.5-0.5c-0.6,0-1.3,0.1-1.9,0.3c-0.6,0.2-1.2,0.4-1.8,0.7L165,21c0.7-0.4,1.5-0.6,2.3-0.9
		C168.2,20,169.1,19.9,170,19.9z M171.9,27.2l-1.4,0c-1.2,0-2,0.2-2.4,0.6c-0.4,0.4-0.7,0.9-0.7,1.5c0,0.5,0.2,0.9,0.5,1.2
		c0.3,0.2,0.7,0.3,1.2,0.3c0.8,0,1.4-0.2,1.9-0.7s0.8-1.1,0.8-1.9V27.2z"/>
	<path class="st0" d="M188.3,29.3c0,1.3-0.5,2.3-1.4,3.1c-0.9,0.7-2.3,1.1-4.2,1.1c-0.9,0-1.7-0.1-2.4-0.2s-1.3-0.3-2-0.6v-3
		c0.7,0.3,1.5,0.6,2.3,0.8c0.8,0.2,1.5,0.3,2.2,0.3c0.7,0,1.2-0.1,1.5-0.3c0.3-0.2,0.5-0.5,0.5-0.8c0-0.2-0.1-0.4-0.2-0.6
		s-0.4-0.4-0.8-0.6c-0.4-0.2-1-0.5-1.9-0.9c-0.8-0.4-1.5-0.7-2-1c-0.5-0.3-0.9-0.8-1.2-1.2s-0.4-1.1-0.4-1.8c0-1.2,0.5-2.1,1.4-2.7
		c0.9-0.6,2.2-0.9,3.8-0.9c0.8,0,1.6,0.1,2.3,0.2s1.5,0.4,2.3,0.8l-1.1,2.6c-0.6-0.3-1.2-0.5-1.8-0.7c-0.6-0.2-1.2-0.3-1.8-0.3
		c-1.1,0-1.6,0.3-1.6,0.9c0,0.2,0.1,0.4,0.2,0.6c0.1,0.2,0.4,0.3,0.8,0.5c0.4,0.2,1,0.4,1.7,0.8c0.8,0.3,1.4,0.6,1.9,0.9
		s1,0.7,1.3,1.2C188.1,27.9,188.3,28.6,188.3,29.3z"/>
	<path class="st0" d="M200.2,29.3c0,1.3-0.5,2.3-1.4,3.1c-0.9,0.7-2.3,1.1-4.2,1.1c-0.9,0-1.7-0.1-2.4-0.2s-1.3-0.3-2-0.6v-3
		c0.7,0.3,1.5,0.6,2.3,0.8c0.8,0.2,1.5,0.3,2.2,0.3c0.7,0,1.2-0.1,1.5-0.3c0.3-0.2,0.5-0.5,0.5-0.8c0-0.2-0.1-0.4-0.2-0.6
		s-0.4-0.4-0.8-0.6c-0.4-0.2-1-0.5-1.9-0.9c-0.8-0.4-1.5-0.7-2-1c-0.5-0.3-0.9-0.8-1.2-1.2s-0.4-1.1-0.4-1.8c0-1.2,0.5-2.1,1.4-2.7
		c0.9-0.6,2.2-0.9,3.8-0.9c0.8,0,1.6,0.1,2.3,0.2s1.5,0.4,2.3,0.8l-1.1,2.6c-0.6-0.3-1.2-0.5-1.8-0.7c-0.6-0.2-1.2-0.3-1.8-0.3
		c-1.1,0-1.6,0.3-1.6,0.9c0,0.2,0.1,0.4,0.2,0.6c0.1,0.2,0.4,0.3,0.8,0.5c0.4,0.2,1,0.4,1.7,0.8c0.8,0.3,1.4,0.6,1.9,0.9
		s1,0.7,1.3,1.2C200.1,27.9,200.2,28.6,200.2,29.3z"/>
</g>
<g>
	<defs>
		<rect id="SVGID_1_" x="10.8" y="16" width="69" height="46"/>
	</defs>
	<clipPath id="SVGID_2_">
		<use xlink:href="#SVGID_1_"  style="overflow:visible;"/>
	</clipPath>
	<rect x="5.8" y="11" class="st1" width="79" height="56"/>
</g>
<g>
	<defs>
		<polygon id="SVGID_3_" points="45.4,52.6 43.9,51.5 44.5,53.2 43,54.3 44.9,54.2 45.4,56 45.9,54.2 47.7,54.3 46.2,53.2 
			46.8,51.5 		"/>
	</defs>
	<clipPath id="SVGID_4_">
		<use xlink:href="#SVGID_3_"  style="overflow:visible;"/>
	</clipPath>
	<rect x="38" y="46.5" class="st2" width="14.7" height="14.5"/>
</g>
<g>
	<defs>
		<polygon id="SVGID_5_" points="52.8,50.6 51.4,49.5 52,51.2 50.5,52.3 52.3,52.2 52.8,54 53.4,52.2 55.2,52.3 53.7,51.2 
			54.3,49.5 		"/>
	</defs>
	<clipPath id="SVGID_6_">
		<use xlink:href="#SVGID_5_"  style="overflow:visible;"/>
	</clipPath>
	<rect x="45.5" y="44.5" class="st3" width="14.7" height="14.5"/>
</g>
<g>
	<defs>
		<polygon id="SVGID_7_" points="58.4,45.1 56.9,44 57.5,45.7 56,46.8 57.8,46.7 58.4,48.5 58.9,46.7 60.7,46.8 59.2,45.7 59.8,44 
					"/>
	</defs>
	<clipPath id="SVGID_8_">
		<use xlink:href="#SVGID_7_"  style="overflow:visible;"/>
	</clipPath>
	<rect x="51" y="39" class="st4" width="14.7" height="14.5"/>
</g>
<g>
	<defs>
		<polygon id="SVGID_9_" points="60.4,37.6 58.9,36.5 59.5,38.2 58,39.2 59.8,39.2 60.4,40.9 60.9,39.2 62.7,39.2 61.2,38.2 
			61.8,36.5 		"/>
	</defs>
	<clipPath id="SVGID_10_">
		<use xlink:href="#SVGID_9_"  style="overflow:visible;"/>
	</clipPath>
	<rect x="53" y="31.5" class="st5" width="14.7" height="14.5"/>
</g>
<g>
	<defs>
		<polygon id="SVGID_11_" points="58.4,30 56.9,28.9 57.5,30.6 56,31.7 57.8,31.6 58.4,33.4 58.9,31.6 60.7,31.7 59.2,30.6 
			59.8,28.9 		"/>
	</defs>
	<clipPath id="SVGID_12_">
		<use xlink:href="#SVGID_11_"  style="overflow:visible;"/>
	</clipPath>
	<rect x="51" y="23.9" class="st6" width="14.7" height="14.5"/>
</g>
<g>
	<defs>
		<polygon id="SVGID_13_" points="52.8,24.5 51.4,23.4 52,25.1 50.5,26.2 52.3,26.1 52.8,27.9 53.4,26.1 55.2,26.2 53.7,25.1 
			54.3,23.4 		"/>
	</defs>
	<clipPath id="SVGID_14_">
		<use xlink:href="#SVGID_13_"  style="overflow:visible;"/>
	</clipPath>
	<rect x="45.5" y="18.4" class="st7" width="14.7" height="14.5"/>
</g>
<g>
	<defs>
		<polygon id="SVGID_15_" points="45.4,22.6 43.9,21.5 44.5,23.2 43,24.2 44.9,24.2 45.4,25.9 45.9,24.2 47.7,24.2 46.2,23.2 
			46.8,21.5 		"/>
	</defs>
	<clipPath id="SVGID_16_">
		<use xlink:href="#SVGID_15_"  style="overflow:visible;"/>
	</clipPath>
	<rect x="38" y="16.5" class="st8" width="14.7" height="14.5"/>
</g>
<g>
	<defs>
		<polygon id="SVGID_17_" points="37.8,24.5 36.3,23.4 36.9,25.1 35.4,26.2 37.2,26.1 37.8,27.9 38.3,26.1 40.1,26.2 38.6,25.1 
			39.2,23.4 		"/>
	</defs>
	<clipPath id="SVGID_18_">
		<use xlink:href="#SVGID_17_"  style="overflow:visible;"/>
	</clipPath>
	<rect x="30.4" y="18.4" class="st9" width="14.7" height="14.5"/>
</g>
<g>
	<defs>
		<polygon id="SVGID_19_" points="32.2,30 30.8,28.9 31.4,30.6 29.9,31.7 31.7,31.6 32.2,33.4 32.8,31.6 34.6,31.7 33.1,30.6 
			33.7,28.9 		"/>
	</defs>
	<clipPath id="SVGID_20_">
		<use xlink:href="#SVGID_19_"  style="overflow:visible;"/>
	</clipPath>
	<rect x="24.9" y="23.9" class="st10" width="14.7" height="14.5"/>
</g>
<g>
	<defs>
		<polygon id="SVGID_21_" points="30.3,37.6 28.9,36.5 29.5,38.3 28,39.3 29.8,39.3 30.3,41 30.8,39.3 32.7,39.3 31.2,38.3 
			31.8,36.5 		"/>
	</defs>
	<clipPath id="SVGID_22_">
		<use xlink:href="#SVGID_21_"  style="overflow:visible;"/>
	</clipPath>
	<rect x="23" y="31.5" class="st11" width="14.7" height="14.5"/>
</g>
<g>
	<defs>
		<polygon id="SVGID_23_" points="32.2,45.1 30.8,44 31.4,45.7 29.9,46.8 31.7,46.7 32.2,48.5 32.8,46.7 34.6,46.8 33.1,45.7 
			33.7,44 		"/>
	</defs>
	<clipPath id="SVGID_24_">
		<use xlink:href="#SVGID_23_"  style="overflow:visible;"/>
	</clipPath>
	<rect x="24.9" y="39" class="st12" width="14.7" height="14.5"/>
</g>
<g>
	<defs>
		<polygon id="SVGID_25_" points="37.8,50.6 36.3,49.5 36.9,51.2 35.4,52.3 37.2,52.2 37.8,54 38.3,52.2 40.1,52.3 38.6,51.2 
			39.2,49.5 		"/>
	</defs>
	<clipPath id="SVGID_26_">
		<use xlink:href="#SVGID_25_"  style="overflow:visible;"/>
	</clipPath>
	<rect x="30.4" y="44.5" class="st13" width="14.7" height="14.5"/>
</g>
<g>
	<path class="st14" d="M105.5,42.8h2.3v9.9c0,1.7-0.2,3.1-0.6,4.1s-1.1,1.8-2.1,2.5s-2.4,1-4,1c-1.6,0-2.9-0.3-3.9-0.8
		s-1.8-1.4-2.2-2.4s-0.7-2.5-0.7-4.3v-9.9h2.3v9.9c0,1.5,0.1,2.6,0.4,3.3s0.8,1.3,1.4,1.6s1.5,0.6,2.5,0.6c1.7,0,2.9-0.4,3.6-1.1
		s1.1-2.2,1.1-4.4V42.8z"/>
	<path class="st14" d="M111.3,60V47.5h1.9v1.8c0.9-1.4,2.2-2.1,4-2.1c0.8,0,1.4,0.1,2.1,0.4s1.1,0.6,1.4,1.1s0.5,1,0.7,1.6
		c0.1,0.4,0.1,1.1,0.1,2.1V60h-2.1v-7.6c0-0.9-0.1-1.5-0.2-1.9s-0.5-0.8-0.9-1s-0.9-0.4-1.5-0.4c-0.9,0-1.7,0.3-2.3,0.9
		s-1,1.7-1,3.2V60H111.3z"/>
	<path class="st14" d="M124.6,45.2v-2.4h2.1v2.4H124.6z M124.6,60V47.5h2.1V60H124.6z"/>
	<path class="st14" d="M138.1,60v-1.8c-1,1.4-2.3,2.1-3.9,2.1c-0.7,0-1.4-0.1-2.1-0.4s-1.1-0.6-1.4-1.1s-0.5-0.9-0.7-1.6
		c-0.1-0.4-0.1-1.1-0.1-2v-7.7h2.1v6.9c0,1.1,0,1.8,0.1,2.2c0.1,0.6,0.4,1,0.8,1.3s1,0.5,1.6,0.5s1.2-0.2,1.8-0.5s0.9-0.8,1.2-1.3
		s0.3-1.4,0.3-2.4v-6.7h2.1V60H138.1z"/>
	<path class="st14" d="M143.3,60V47.5h1.9v1.8c0.9-1.4,2.2-2.1,4-2.1c0.8,0,1.4,0.1,2.1,0.4s1.1,0.6,1.4,1.1s0.5,1,0.7,1.6
		c0.1,0.4,0.1,1.1,0.1,2.1V60h-2.1v-7.6c0-0.9-0.1-1.5-0.2-1.9s-0.5-0.8-0.9-1s-0.9-0.4-1.5-0.4c-0.9,0-1.7,0.3-2.3,0.9
		s-1,1.7-1,3.2V60H143.3z"/>
	<path class="st14" d="M165.2,56l2.2,0.3c-0.3,1.3-1,2.3-1.9,3s-2.1,1.1-3.6,1.1c-1.8,0-3.3-0.6-4.3-1.7s-1.6-2.7-1.6-4.7
		c0-2.1,0.5-3.7,1.6-4.9s2.5-1.7,4.2-1.7c1.7,0,3,0.6,4.1,1.7s1.6,2.7,1.6,4.8c0,0.1,0,0.3,0,0.6h-9.3c0.1,1.4,0.5,2.4,1.2,3.1
		s1.6,1.1,2.6,1.1c0.8,0,1.4-0.2,2-0.6S164.9,56.9,165.2,56z M158.3,52.6h6.9c-0.1-1-0.4-1.8-0.8-2.4c-0.7-0.8-1.5-1.2-2.6-1.2
		c-1,0-1.8,0.3-2.4,1S158.3,51.5,158.3,52.6z"/>
	<path class="st14" d="M178.1,58.5c-0.8,0.7-1.5,1.1-2.3,1.4s-1.5,0.4-2.3,0.4c-1.4,0-2.4-0.3-3.2-1s-1.1-1.5-1.1-2.6
		c0-0.6,0.1-1.2,0.4-1.7s0.6-0.9,1.1-1.2s1-0.5,1.5-0.7c0.4-0.1,1-0.2,1.9-0.3c1.7-0.2,3-0.4,3.8-0.7c0-0.3,0-0.5,0-0.6
		c0-0.9-0.2-1.5-0.6-1.8c-0.5-0.5-1.3-0.7-2.4-0.7c-1,0-1.7,0.2-2.2,0.5s-0.8,1-1,1.8l-2.1-0.3c0.2-0.9,0.5-1.6,0.9-2.1
		s1.1-1,1.9-1.3s1.8-0.4,2.8-0.4c1.1,0,1.9,0.1,2.6,0.4s1.2,0.6,1.5,0.9s0.5,0.9,0.7,1.4c0.1,0.4,0.1,1,0.1,1.9v2.8
		c0,2,0,3.2,0.1,3.7s0.3,1,0.5,1.5h-2.2C178.3,59.6,178.2,59,178.1,58.5z M178,53.7c-0.8,0.3-1.9,0.6-3.4,0.8
		c-0.9,0.1-1.5,0.3-1.8,0.4s-0.6,0.4-0.8,0.7s-0.3,0.6-0.3,1c0,0.6,0.2,1,0.6,1.4s1,0.6,1.9,0.6c0.8,0,1.5-0.2,2.2-0.5
		s1.1-0.8,1.4-1.5c0.2-0.5,0.3-1.2,0.3-2.1V53.7z"/>
	<path class="st14" d="M190.3,60V42.8h12.4v2h-10.1v5.3h9.5v2h-9.5V58h10.5v2H190.3z"/>
	<path class="st14" d="M214.2,60v-1.8c-1,1.4-2.3,2.1-3.9,2.1c-0.7,0-1.4-0.1-2.1-0.4s-1.1-0.6-1.4-1.1s-0.5-0.9-0.7-1.6
		c-0.1-0.4-0.1-1.1-0.1-2v-7.7h2.1v6.9c0,1.1,0,1.8,0.1,2.2c0.1,0.6,0.4,1,0.8,1.3s1,0.5,1.6,0.5s1.2-0.2,1.8-0.5s0.9-0.8,1.2-1.3
		s0.3-1.4,0.3-2.4v-6.7h2.1V60H214.2z"/>
	<path class="st14" d="M219.4,60V47.5h1.9v1.9c0.5-0.9,0.9-1.5,1.3-1.7s0.9-0.4,1.4-0.4c0.7,0,1.4,0.2,2.2,0.7l-0.7,2
		c-0.5-0.3-1-0.5-1.5-0.5c-0.5,0-0.9,0.1-1.2,0.4s-0.6,0.7-0.8,1.2c-0.2,0.8-0.4,1.6-0.4,2.5V60H219.4z"/>
	<path class="st14" d="M226.6,53.8c0-2.3,0.6-4,1.9-5.1c1.1-0.9,2.4-1.4,3.9-1.4c1.7,0,3.1,0.6,4.2,1.7s1.6,2.7,1.6,4.6
		c0,1.6-0.2,2.9-0.7,3.8s-1.2,1.6-2.1,2.1s-1.9,0.8-3,0.8c-1.7,0-3.2-0.6-4.2-1.7S226.6,55.9,226.6,53.8z M228.8,53.8
		c0,1.6,0.3,2.8,1,3.6s1.6,1.2,2.6,1.2c1,0,1.9-0.4,2.6-1.2s1-2,1-3.6c0-1.5-0.3-2.7-1-3.5s-1.6-1.2-2.6-1.2c-1.1,0-1.9,0.4-2.6,1.2
		S228.8,52.2,228.8,53.8z"/>
	<path class="st14" d="M240.7,64.8V47.5h1.9v1.6c0.5-0.6,1-1.1,1.5-1.4s1.3-0.5,2.1-0.5c1.1,0,2,0.3,2.8,0.8s1.4,1.3,1.8,2.3
		s0.6,2.1,0.6,3.3c0,1.3-0.2,2.4-0.7,3.4s-1.1,1.8-2,2.3s-1.8,0.8-2.7,0.8c-0.7,0-1.3-0.1-1.9-0.4s-1-0.7-1.4-1.1v6.1H240.7z
		 M242.6,53.8c0,1.6,0.3,2.8,1,3.6s1.4,1.1,2.4,1.1c0.9,0,1.7-0.4,2.4-1.2s1-2,1-3.7c0-1.6-0.3-2.8-1-3.6s-1.4-1.2-2.3-1.2
		c-0.9,0-1.7,0.4-2.4,1.3S242.6,52.2,242.6,53.8z"/>
	<path class="st14" d="M262.6,56l2.2,0.3c-0.3,1.3-1,2.3-1.9,3s-2.1,1.1-3.6,1.1c-1.8,0-3.3-0.6-4.3-1.7c-1.1-1.1-1.6-2.7-1.6-4.7
		c0-2.1,0.5-3.7,1.6-4.9c1.1-1.2,2.5-1.7,4.2-1.7c1.7,0,3,0.6,4.1,1.7s1.6,2.7,1.6,4.8c0,0.1,0,0.3,0,0.6h-9.3
		c0.1,1.4,0.5,2.4,1.2,3.1s1.6,1.1,2.6,1.1c0.8,0,1.4-0.2,2-0.6S262.3,56.9,262.6,56z M255.7,52.6h6.9c-0.1-1-0.4-1.8-0.8-2.4
		c-0.7-0.8-1.5-1.2-2.6-1.2c-1,0-1.8,0.3-2.4,1S255.7,51.5,255.7,52.6z"/>
	<path class="st14" d="M275.5,58.5c-0.8,0.7-1.5,1.1-2.3,1.4s-1.5,0.4-2.3,0.4c-1.4,0-2.4-0.3-3.2-1s-1.1-1.5-1.1-2.6
		c0-0.6,0.1-1.2,0.4-1.7s0.6-0.9,1.1-1.2s1-0.5,1.5-0.7c0.4-0.1,1-0.2,1.9-0.3c1.7-0.2,3-0.4,3.8-0.7c0-0.3,0-0.5,0-0.6
		c0-0.9-0.2-1.5-0.6-1.8c-0.5-0.5-1.3-0.7-2.4-0.7c-1,0-1.7,0.2-2.2,0.5s-0.8,1-1,1.8l-2.1-0.3c0.2-0.9,0.5-1.6,0.9-2.1
		s1.1-1,1.9-1.3s1.8-0.4,2.8-0.4c1.1,0,1.9,0.1,2.6,0.4s1.2,0.6,1.5,0.9s0.5,0.9,0.7,1.4c0.1,0.4,0.1,1,0.1,1.9v2.8
		c0,2,0,3.2,0.1,3.7s0.3,1,0.5,1.5H276C275.7,59.6,275.6,59,275.5,58.5z M275.4,53.7c-0.8,0.3-1.9,0.6-3.4,0.8
		c-0.9,0.1-1.5,0.3-1.8,0.4s-0.6,0.4-0.8,0.7s-0.3,0.6-0.3,1c0,0.6,0.2,1,0.6,1.4s1,0.6,1.9,0.6c0.8,0,1.5-0.2,2.2-0.5
		s1.1-0.8,1.4-1.5c0.2-0.5,0.3-1.2,0.3-2.1V53.7z"/>
	<path class="st14" d="M280.8,60V47.5h1.9v1.8c0.9-1.4,2.2-2.1,4-2.1c0.8,0,1.4,0.1,2.1,0.4s1.1,0.6,1.4,1.1s0.5,1,0.7,1.6
		c0.1,0.4,0.1,1.1,0.1,2.1V60h-2.1v-7.6c0-0.9-0.1-1.5-0.2-1.9s-0.5-0.8-0.9-1c-0.4-0.3-0.9-0.4-1.5-0.4c-0.9,0-1.7,0.3-2.3,0.9
		s-1,1.7-1,3.2V60H280.8z"/>
	<path class="st14" d="M302.2,58.5c-0.8,0.7-1.5,1.1-2.3,1.4s-1.5,0.4-2.3,0.4c-1.4,0-2.4-0.3-3.2-1s-1.1-1.5-1.1-2.6
		c0-0.6,0.1-1.2,0.4-1.7s0.6-0.9,1.1-1.2s1-0.5,1.5-0.7c0.4-0.1,1-0.2,1.9-0.3c1.7-0.2,3-0.4,3.8-0.7c0-0.3,0-0.5,0-0.6
		c0-0.9-0.2-1.5-0.6-1.8c-0.5-0.5-1.3-0.7-2.4-0.7c-1,0-1.7,0.2-2.2,0.5s-0.8,1-1,1.8l-2.1-0.3c0.2-0.9,0.5-1.6,0.9-2.1
		s1.1-1,1.9-1.3s1.8-0.4,2.8-0.4c1.1,0,1.9,0.1,2.6,0.4s1.2,0.6,1.5,0.9s0.5,0.9,0.7,1.4c0.1,0.4,0.1,1,0.1,1.9v2.8
		c0,2,0,3.2,0.1,3.7s0.3,1,0.5,1.5h-2.2C302.4,59.6,302.3,59,302.2,58.5z M302.1,53.7c-0.8,0.3-1.9,0.6-3.4,0.8
		c-0.9,0.1-1.5,0.3-1.8,0.4s-0.6,0.4-0.8,0.7s-0.3,0.6-0.3,1c0,0.6,0.2,1,0.6,1.4s1,0.6,1.9,0.6c0.8,0,1.5-0.2,2.2-0.5
		s1.1-0.8,1.4-1.5c0.2-0.5,0.3-1.2,0.3-2.1V53.7z M301.4,42.8h1.4c-0.1,1-0.5,1.7-1.1,2.2s-1.4,0.8-2.4,0.8c-1,0-1.8-0.3-2.4-0.8
		s-1-1.3-1.1-2.3h1.4c0.1,0.5,0.3,0.9,0.7,1.2s0.8,0.4,1.3,0.4c0.6,0,1.1-0.1,1.4-0.4S301.3,43.4,301.4,42.8z"/>
</g>
</svg>
