<?xml version="1.0" encoding="utf-8"?>
<!-- Generator: Adobe Illustrator 23.1.1, SVG Export Plug-In . SVG Version: 6.00 Build 0)  -->
<svg version="1.1" id="Capa_1" xmlns="http://www.w3.org/2000/svg" xmlns:xlink="http://www.w3.org/1999/xlink" x="0px" y="0px"
	 viewBox="0 0 284.4 80.8" style="enable-background:new 0 0 284.4 80.8;" xml:space="preserve">
<style type="text/css">
	.st0{fill:#6C3088;}
	.st1{clip-path:url(#SVGID_2_);fill:#203C89;}
	.st2{clip-path:url(#SVGID_4_);fill:#FFCC04;}
	.st3{clip-path:url(#SVGID_6_);fill:#FFCC04;}
	.st4{clip-path:url(#SVGID_8_);fill:#FFCC04;}
	.st5{clip-path:url(#SVGID_10_);fill:#FFCC04;}
	.st6{clip-path:url(#SVGID_12_);fill:#FFCC04;}
	.st7{clip-path:url(#SVGID_14_);fill:#FFCC04;}
	.st8{clip-path:url(#SVGID_16_);fill:#FFCC04;}
	.st9{clip-path:url(#SVGID_18_);fill:#FFCC04;}
	.st10{clip-path:url(#SVGID_20_);fill:#FFCC04;}
	.st11{clip-path:url(#SVGID_22_);fill:#FFCC04;}
	.st12{clip-path:url(#SVGID_24_);fill:#FFCC04;}
	.st13{clip-path:url(#SVGID_26_);fill:#FFCC04;}
	.st14{fill:#020304;}
</style>
<g>
	<path class="st0" d="M120.6,19.7c1.8,0,3.2,0.5,4.3,1.5c1.1,1,1.6,2.5,1.6,4.4v1.7H118c0,1,0.3,1.8,0.9,2.4
		c0.6,0.6,1.4,0.9,2.4,0.9c0.8,0,1.6-0.1,2.3-0.3c0.7-0.2,1.4-0.4,2.1-0.8v2.8c-0.7,0.3-1.3,0.6-2,0.7c-0.7,0.2-1.6,0.2-2.6,0.2
		c-1.3,0-2.5-0.2-3.5-0.7c-1-0.5-1.8-1.2-2.4-2.2c-0.6-1-0.9-2.2-0.9-3.8c0-1.5,0.3-2.8,0.8-3.8s1.2-1.8,2.2-2.3
		C118.3,20,119.4,19.7,120.6,19.7z M120.6,22.3c-0.7,0-1.3,0.2-1.7,0.7c-0.4,0.4-0.7,1.1-0.8,2.1h5c0-0.8-0.2-1.4-0.6-2
		C122.1,22.6,121.4,22.3,120.6,22.3z"/>
	<path class="st0" d="M141.4,20v13.1h-2.7l-0.5-1.7H138c-0.4,0.7-1,1.2-1.7,1.5s-1.5,0.5-2.3,0.5c-1.4,0-2.5-0.4-3.4-1.1
		c-0.8-0.8-1.3-2-1.3-3.7V20h3.6v7.7c0,0.9,0.2,1.7,0.5,2.1c0.3,0.5,0.9,0.7,1.6,0.7c1.1,0,1.8-0.4,2.2-1.1c0.4-0.7,0.6-1.8,0.6-3.2
		V20H141.4z"/>
	<path class="st0" d="M152.5,19.7c0.2,0,0.4,0,0.6,0c0.2,0,0.4,0,0.6,0.1l-0.3,3.4c-0.1,0-0.3-0.1-0.5-0.1c-0.2,0-0.4,0-0.6,0
		c-0.6,0-1.2,0.1-1.8,0.3c-0.6,0.2-1,0.6-1.4,1s-0.5,1.1-0.5,2v6.7h-3.6V20h2.7l0.5,2.2h0.2c0.4-0.7,0.9-1.2,1.6-1.7
		C150.8,20,151.6,19.7,152.5,19.7z"/>
	<path class="st0" d="M167.5,26.5c0,2.2-0.6,3.9-1.7,5c-1.1,1.2-2.7,1.8-4.7,1.8c-1.2,0-2.3-0.3-3.3-0.8c-1-0.5-1.7-1.3-2.2-2.3
		c-0.5-1-0.8-2.3-0.8-3.7c0-2.2,0.6-3.8,1.7-5c1.1-1.2,2.7-1.8,4.7-1.8c1.2,0,2.3,0.3,3.3,0.8c0.9,0.5,1.7,1.3,2.2,2.3
		S167.5,25.1,167.5,26.5z M158.4,26.5c0,1.3,0.2,2.3,0.6,2.9c0.4,0.7,1.1,1,2.1,1c0.9,0,1.6-0.3,2.1-1c0.4-0.7,0.6-1.6,0.6-2.9
		c0-1.3-0.2-2.3-0.6-2.9c-0.4-0.6-1.1-1-2.1-1c-0.9,0-1.6,0.3-2.1,1S158.4,25.2,158.4,26.5z"/>
	<path class="st0" d="M177.7,19.7c1.5,0,2.7,0.6,3.6,1.7c0.9,1.1,1.4,2.8,1.4,5.1c0,2.2-0.5,3.9-1.4,5.1c-0.9,1.2-2.2,1.7-3.6,1.7
		c-0.9,0-1.7-0.2-2.3-0.5c-0.6-0.3-1-0.7-1.4-1.2h-0.2c0.1,0.7,0.2,1.3,0.2,1.9v5.3h-3.6V20h2.9l0.5,1.7h0.2c0.4-0.5,0.8-1,1.4-1.4
		C176,19.9,176.8,19.7,177.7,19.7z M176.6,22.6c-0.9,0-1.6,0.3-2,0.9c-0.4,0.6-0.6,1.5-0.6,2.6v0.4c0,1.3,0.2,2.2,0.6,2.9
		c0.4,0.7,1.1,1,2.1,1c0.8,0,1.4-0.3,1.8-1c0.4-0.7,0.6-1.7,0.6-2.9C179,23.9,178.2,22.6,176.6,22.6z"/>
	<path class="st0" d="M191,19.7c1.8,0,3.1,0.4,4,1.1c0.9,0.8,1.4,1.9,1.4,3.5v8.7h-2.5l-0.7-1.8h-0.1c-0.6,0.7-1.2,1.2-1.8,1.5
		c-0.6,0.3-1.5,0.5-2.6,0.5c-1.2,0-2.1-0.3-2.9-1s-1.2-1.7-1.2-3.1c0-1.4,0.5-2.4,1.5-3.1c1-0.7,2.4-1,4.4-1.1l2.3-0.1v-0.6
		c0-0.7-0.2-1.2-0.5-1.5c-0.4-0.3-0.9-0.5-1.5-0.5c-0.6,0-1.3,0.1-1.9,0.3c-0.6,0.2-1.2,0.4-1.8,0.7l-1.2-2.4
		c0.7-0.4,1.5-0.6,2.3-0.9C189.2,19.8,190.1,19.7,191,19.7z M192.9,27l-1.4,0c-1.2,0-2,0.2-2.4,0.6c-0.4,0.4-0.7,0.9-0.7,1.5
		c0,0.5,0.2,0.9,0.5,1.2c0.3,0.2,0.7,0.3,1.2,0.3c0.8,0,1.4-0.2,1.9-0.7s0.8-1.1,0.8-1.9V27z"/>
	<path class="st0" d="M209.2,29.2c0,1.3-0.5,2.3-1.4,3.1c-0.9,0.7-2.3,1.1-4.2,1.1c-0.9,0-1.7-0.1-2.4-0.2s-1.3-0.3-2-0.6v-3
		c0.7,0.3,1.5,0.6,2.3,0.8c0.8,0.2,1.5,0.3,2.2,0.3c0.7,0,1.2-0.1,1.5-0.3c0.3-0.2,0.5-0.5,0.5-0.8c0-0.2-0.1-0.4-0.2-0.6
		c-0.1-0.2-0.4-0.4-0.8-0.6c-0.4-0.2-1-0.5-1.9-0.9c-0.8-0.4-1.5-0.7-2-1s-0.9-0.8-1.2-1.2c-0.3-0.5-0.4-1.1-0.4-1.8
		c0-1.2,0.5-2.1,1.4-2.7c0.9-0.6,2.2-0.9,3.8-0.9c0.8,0,1.6,0.1,2.3,0.2c0.7,0.2,1.5,0.4,2.3,0.8l-1.1,2.6c-0.6-0.3-1.2-0.5-1.8-0.7
		c-0.6-0.2-1.2-0.3-1.8-0.3c-1.1,0-1.6,0.3-1.6,0.9c0,0.2,0.1,0.4,0.2,0.6c0.1,0.2,0.4,0.3,0.8,0.5c0.4,0.2,1,0.4,1.7,0.8
		c0.8,0.3,1.4,0.6,1.9,0.9c0.5,0.3,1,0.7,1.3,1.2C209.1,27.8,209.2,28.4,209.2,29.2z"/>
	<path class="st0" d="M221.2,29.2c0,1.3-0.5,2.3-1.4,3.1c-0.9,0.7-2.3,1.1-4.2,1.1c-0.9,0-1.7-0.1-2.4-0.2s-1.3-0.3-2-0.6v-3
		c0.7,0.3,1.5,0.6,2.3,0.8c0.8,0.2,1.5,0.3,2.2,0.3c0.7,0,1.2-0.1,1.5-0.3c0.3-0.2,0.5-0.5,0.5-0.8c0-0.2-0.1-0.4-0.2-0.6
		c-0.1-0.2-0.4-0.4-0.8-0.6c-0.4-0.2-1-0.5-1.9-0.9c-0.8-0.4-1.5-0.7-2-1s-0.9-0.8-1.2-1.2c-0.3-0.5-0.4-1.1-0.4-1.8
		c0-1.2,0.5-2.1,1.4-2.7c0.9-0.6,2.2-0.9,3.8-0.9c0.8,0,1.6,0.1,2.3,0.2c0.7,0.2,1.5,0.4,2.3,0.8l-1.1,2.6c-0.6-0.3-1.2-0.5-1.8-0.7
		c-0.6-0.2-1.2-0.3-1.8-0.3c-1.1,0-1.6,0.3-1.6,0.9c0,0.2,0.1,0.4,0.2,0.6c0.1,0.2,0.4,0.3,0.8,0.5c0.4,0.2,1,0.4,1.7,0.8
		c0.8,0.3,1.4,0.6,1.9,0.9c0.5,0.3,1,0.7,1.3,1.2C221,27.8,221.2,28.4,221.2,29.2z"/>
</g>
<g>
	<defs>
		<rect id="SVGID_1_" x="31.8" y="15.9" width="69" height="46"/>
	</defs>
	<clipPath id="SVGID_2_">
		<use xlink:href="#SVGID_1_"  style="overflow:visible;"/>
	</clipPath>
	<rect x="26.8" y="10.9" class="st1" width="79" height="56"/>
</g>
<g>
	<defs>
		<polygon id="SVGID_3_" points="66.3,52.5 64.9,51.4 65.5,53.1 64,54.1 65.8,54.1 66.3,55.9 66.9,54.1 68.7,54.1 67.2,53.1 
			67.8,51.4 		"/>
	</defs>
	<clipPath id="SVGID_4_">
		<use xlink:href="#SVGID_3_"  style="overflow:visible;"/>
	</clipPath>
	<rect x="59" y="46.4" class="st2" width="14.7" height="14.5"/>
</g>
<g>
	<defs>
		<polygon id="SVGID_5_" points="73.8,50.5 72.3,49.4 72.9,51.1 71.4,52.1 73.3,52.1 73.8,53.8 74.3,52.1 76.1,52.1 74.6,51.1 
			75.2,49.4 		"/>
	</defs>
	<clipPath id="SVGID_6_">
		<use xlink:href="#SVGID_5_"  style="overflow:visible;"/>
	</clipPath>
	<rect x="66.4" y="44.4" class="st3" width="14.7" height="14.5"/>
</g>
<g>
	<defs>
		<polygon id="SVGID_7_" points="79.3,45 77.9,43.8 78.5,45.6 77,46.6 78.8,46.6 79.3,48.3 79.8,46.6 81.7,46.6 80.2,45.6 
			80.8,43.8 		"/>
	</defs>
	<clipPath id="SVGID_8_">
		<use xlink:href="#SVGID_7_"  style="overflow:visible;"/>
	</clipPath>
	<rect x="72" y="38.8" class="st4" width="14.7" height="14.5"/>
</g>
<g>
	<defs>
		<polygon id="SVGID_9_" points="81.3,37.4 79.9,36.3 80.5,38 79,39.1 80.8,39 81.3,40.8 81.8,39 83.7,39.1 82.2,38 82.8,36.3 		"/>
	</defs>
	<clipPath id="SVGID_10_">
		<use xlink:href="#SVGID_9_"  style="overflow:visible;"/>
	</clipPath>
	<rect x="74" y="31.3" class="st5" width="14.7" height="14.5"/>
</g>
<g>
	<defs>
		<polygon id="SVGID_11_" points="79.3,29.9 77.9,28.8 78.5,30.5 77,31.5 78.8,31.5 79.3,33.2 79.8,31.5 81.7,31.5 80.2,30.5 
			80.8,28.8 		"/>
	</defs>
	<clipPath id="SVGID_12_">
		<use xlink:href="#SVGID_11_"  style="overflow:visible;"/>
	</clipPath>
	<rect x="72" y="23.8" class="st6" width="14.7" height="14.5"/>
</g>
<g>
	<defs>
		<polygon id="SVGID_13_" points="73.8,24.4 72.3,23.3 72.9,25 71.4,26 73.3,26 73.8,27.7 74.3,26 76.1,26 74.6,25 75.2,23.3 		"/>
	</defs>
	<clipPath id="SVGID_14_">
		<use xlink:href="#SVGID_13_"  style="overflow:visible;"/>
	</clipPath>
	<rect x="66.4" y="18.3" class="st7" width="14.7" height="14.5"/>
</g>
<g>
	<defs>
		<polygon id="SVGID_15_" points="66.3,22.4 64.9,21.3 65.5,23 64,24.1 65.8,24 66.3,25.8 66.9,24 68.7,24.1 67.2,23 67.8,21.3 		
			"/>
	</defs>
	<clipPath id="SVGID_16_">
		<use xlink:href="#SVGID_15_"  style="overflow:visible;"/>
	</clipPath>
	<rect x="59" y="16.3" class="st8" width="14.7" height="14.5"/>
</g>
<g>
	<defs>
		<polygon id="SVGID_17_" points="58.7,24.4 57.3,23.3 57.9,25 56.4,26 58.2,26 58.7,27.7 59.2,26 61.1,26 59.6,25 60.2,23.3 		"/>
	</defs>
	<clipPath id="SVGID_18_">
		<use xlink:href="#SVGID_17_"  style="overflow:visible;"/>
	</clipPath>
	<rect x="51.4" y="18.3" class="st9" width="14.7" height="14.5"/>
</g>
<g>
	<defs>
		<polygon id="SVGID_19_" points="53.2,29.9 51.7,28.8 52.3,30.5 50.8,31.5 52.7,31.5 53.2,33.2 53.7,31.5 55.5,31.5 54,30.5 
			54.6,28.8 		"/>
	</defs>
	<clipPath id="SVGID_20_">
		<use xlink:href="#SVGID_19_"  style="overflow:visible;"/>
	</clipPath>
	<rect x="45.8" y="23.8" class="st10" width="14.7" height="14.5"/>
</g>
<g>
	<defs>
		<polygon id="SVGID_21_" points="51.3,37.5 49.8,36.4 50.4,38.1 48.9,39.2 50.7,39.1 51.3,40.9 51.8,39.1 53.6,39.2 52.1,38.1 
			52.7,36.4 		"/>
	</defs>
	<clipPath id="SVGID_22_">
		<use xlink:href="#SVGID_21_"  style="overflow:visible;"/>
	</clipPath>
	<rect x="43.9" y="31.4" class="st11" width="14.7" height="14.5"/>
</g>
<g>
	<defs>
		<polygon id="SVGID_23_" points="53.2,45 51.7,43.8 52.3,45.6 50.8,46.6 52.7,46.6 53.2,48.3 53.7,46.6 55.5,46.6 54,45.6 
			54.6,43.8 		"/>
	</defs>
	<clipPath id="SVGID_24_">
		<use xlink:href="#SVGID_23_"  style="overflow:visible;"/>
	</clipPath>
	<rect x="45.8" y="38.8" class="st12" width="14.7" height="14.5"/>
</g>
<g>
	<defs>
		<polygon id="SVGID_25_" points="58.7,50.5 57.3,49.4 57.9,51.1 56.4,52.1 58.2,52.1 58.7,53.8 59.2,52.1 61.1,52.1 59.6,51.1 
			60.2,49.4 		"/>
	</defs>
	<clipPath id="SVGID_26_">
		<use xlink:href="#SVGID_25_"  style="overflow:visible;"/>
	</clipPath>
	<rect x="51.4" y="44.4" class="st13" width="14.7" height="14.5"/>
</g>
<g>
	<path class="st14" d="M113.3,59.9l6.6-17.2h2.4l7,17.2h-2.6l-2-5.2h-7.2l-1.9,5.2H113.3z M118.2,52.8h5.8l-1.8-4.8
		c-0.5-1.4-1-2.6-1.2-3.6c-0.2,1.1-0.5,2.2-0.9,3.3L118.2,52.8z"/>
	<path class="st14" d="M133.9,59.9l-4.7-12.4h2.2l2.7,7.5c0.3,0.8,0.6,1.6,0.8,2.5c0.2-0.7,0.4-1.4,0.8-2.4l2.8-7.6h2.2l-4.7,12.4
		H133.9z"/>
	<path class="st14" d="M142.5,59.9V47.4h1.9v1.9c0.5-0.9,0.9-1.5,1.3-1.7s0.9-0.4,1.4-0.4c0.7,0,1.4,0.2,2.2,0.7l-0.7,2
		c-0.5-0.3-1-0.5-1.5-0.5c-0.5,0-0.9,0.1-1.2,0.4s-0.6,0.7-0.8,1.2c-0.2,0.8-0.4,1.6-0.4,2.5v6.5H142.5z"/>
	<path class="st14" d="M158.6,59.9V58c-1,1.4-2.3,2.1-3.9,2.1c-0.7,0-1.4-0.1-2.1-0.4s-1.1-0.6-1.4-1.1s-0.5-0.9-0.7-1.6
		c-0.1-0.4-0.1-1.1-0.1-2v-7.7h2.1v6.9c0,1.1,0,1.8,0.1,2.2c0.1,0.6,0.4,1,0.8,1.3s1,0.5,1.6,0.5s1.2-0.2,1.8-0.5s0.9-0.8,1.2-1.3
		s0.3-1.4,0.3-2.4v-6.7h2.1v12.4H158.6z"/>
	<path class="st14" d="M163.8,64.6V47.4h1.9V49c0.5-0.6,1-1.1,1.5-1.4s1.3-0.5,2.1-0.5c1.1,0,2,0.3,2.8,0.8s1.4,1.3,1.8,2.3
		s0.6,2.1,0.6,3.3c0,1.3-0.2,2.4-0.7,3.4s-1.1,1.8-2,2.3s-1.8,0.8-2.7,0.8c-0.7,0-1.3-0.1-1.9-0.4s-1-0.7-1.4-1.1v6.1H163.8z
		 M165.7,53.7c0,1.6,0.3,2.8,1,3.6s1.4,1.1,2.4,1.1c0.9,0,1.7-0.4,2.4-1.2s1-2,1-3.7c0-1.6-0.3-2.8-1-3.6s-1.4-1.2-2.3-1.2
		c-0.9,0-1.7,0.4-2.4,1.3S165.7,52.1,165.7,53.7z"/>
	<path class="st14" d="M185.3,58.3c-0.8,0.7-1.5,1.1-2.3,1.4s-1.5,0.4-2.3,0.4c-1.4,0-2.4-0.3-3.2-1s-1.1-1.5-1.1-2.6
		c0-0.6,0.1-1.2,0.4-1.7s0.6-0.9,1.1-1.2s1-0.5,1.5-0.7c0.4-0.1,1-0.2,1.9-0.3c1.7-0.2,3-0.4,3.8-0.7c0-0.3,0-0.5,0-0.6
		c0-0.9-0.2-1.5-0.6-1.8c-0.5-0.5-1.3-0.7-2.4-0.7c-1,0-1.7,0.2-2.2,0.5s-0.8,1-1,1.8l-2.1-0.3c0.2-0.9,0.5-1.6,0.9-2.1
		s1.1-1,1.9-1.3s1.8-0.4,2.8-0.4c1.1,0,1.9,0.1,2.6,0.4s1.2,0.6,1.5,0.9s0.5,0.9,0.7,1.4c0.1,0.4,0.1,1,0.1,1.9v2.8
		c0,2,0,3.2,0.1,3.7s0.3,1,0.5,1.5h-2.2C185.5,59.4,185.3,58.9,185.3,58.3z M185.1,53.6c-0.8,0.3-1.9,0.6-3.4,0.8
		c-0.9,0.1-1.5,0.3-1.8,0.4s-0.6,0.4-0.8,0.7s-0.3,0.6-0.3,1c0,0.6,0.2,1,0.6,1.4s1,0.6,1.9,0.6c0.8,0,1.5-0.2,2.2-0.5
		s1.1-0.8,1.4-1.5c0.2-0.5,0.3-1.2,0.3-2.1V53.6z"/>
	<path class="st14" d="M197.4,59.9V42.7h6.4c1.3,0,2.4,0.2,3.2,0.5s1.4,0.9,1.9,1.6s0.7,1.5,0.7,2.3c0,0.7-0.2,1.4-0.6,2.1
		s-1,1.2-1.8,1.6c1,0.3,1.8,0.8,2.4,1.6s0.8,1.6,0.8,2.6c0,0.8-0.2,1.6-0.5,2.2s-0.8,1.2-1.3,1.6s-1.1,0.7-1.9,0.8s-1.7,0.3-2.8,0.3
		H197.4z M199.6,49.9h3.7c1,0,1.7-0.1,2.2-0.2c0.6-0.2,1-0.5,1.3-0.9s0.4-0.9,0.4-1.5c0-0.6-0.1-1.1-0.4-1.5s-0.7-0.7-1.2-0.9
		s-1.4-0.2-2.6-0.2h-3.4V49.9z M199.6,57.8h4.3c0.7,0,1.2,0,1.5-0.1c0.5-0.1,1-0.2,1.3-0.5s0.6-0.5,0.9-1s0.3-0.9,0.3-1.4
		c0-0.6-0.2-1.2-0.5-1.7s-0.8-0.8-1.4-1s-1.4-0.3-2.5-0.3h-4V57.8z"/>
	<path class="st14" d="M213.2,45.1v-2.4h2.1v2.4H213.2z M213.2,59.9V47.4h2.1v12.4H213.2z"/>
	<path class="st14" d="M218.5,59.9V47.4h1.9v1.9c0.5-0.9,0.9-1.5,1.3-1.7s0.9-0.4,1.4-0.4c0.7,0,1.4,0.2,2.2,0.7l-0.7,2
		c-0.5-0.3-1-0.5-1.5-0.5c-0.5,0-0.9,0.1-1.2,0.4s-0.6,0.7-0.8,1.2c-0.2,0.8-0.4,1.6-0.4,2.5v6.5H218.5z"/>
	<path class="st14" d="M226.5,59.9V42.7h2.1v17.2H226.5z"/>
	<path class="st14" d="M231.9,45.1v-2.4h2.1v2.4H231.9z M231.9,59.9V47.4h2.1v12.4H231.9z"/>
	<path class="st14" d="M236.8,60.9l2.1,0.3c0.1,0.6,0.3,1.1,0.7,1.4c0.5,0.4,1.2,0.6,2.1,0.6c1,0,1.7-0.2,2.3-0.6s0.9-0.9,1.1-1.6
		c0.1-0.4,0.2-1.3,0.2-2.7c-0.9,1.1-2.1,1.6-3.4,1.6c-1.7,0-3-0.6-4-1.9s-1.4-2.7-1.4-4.4c0-1.2,0.2-2.3,0.6-3.3s1.1-1.8,1.9-2.3
		s1.8-0.8,2.9-0.8c1.5,0,2.7,0.6,3.6,1.8v-1.5h1.9v10.8c0,1.9-0.2,3.3-0.6,4.1s-1,1.4-1.9,1.9c-0.9,0.5-1.9,0.7-3.2,0.7
		c-1.5,0-2.7-0.3-3.6-1C237.2,63.2,236.8,62.2,236.8,60.9z M238.5,53.4c0,1.6,0.3,2.8,1,3.6s1.5,1.1,2.4,1.1c1,0,1.8-0.4,2.4-1.1
		s1-1.9,1-3.5c0-1.5-0.3-2.7-1-3.4s-1.5-1.2-2.4-1.2c-0.9,0-1.7,0.4-2.4,1.1S238.5,51.9,238.5,53.4z M244.3,42.7h1.4
		c-0.1,1-0.5,1.7-1.1,2.2s-1.4,0.8-2.4,0.8c-1,0-1.8-0.3-2.4-0.8s-1-1.3-1.1-2.3h1.4c0.1,0.5,0.3,0.9,0.7,1.2s0.8,0.4,1.3,0.4
		c0.6,0,1.1-0.1,1.4-0.4S244.2,43.2,244.3,42.7z"/>
	<path class="st14" d="M250.5,45.1v-2.4h2.1v2.4H250.5z M250.5,59.9V47.4h2.1v12.4H250.5z"/>
</g>
</svg>
