<?xml version="1.0" encoding="utf-8"?>
<!-- Generator: Adobe Illustrator 23.1.1, SVG Export Plug-In . SVG Version: 6.00 Build 0)  -->
<svg version="1.1" id="Capa_1" xmlns="http://www.w3.org/2000/svg" xmlns:xlink="http://www.w3.org/1999/xlink" x="0px" y="0px"
	 viewBox="0 0 364.8 80.8" style="enable-background:new 0 0 364.8 80.8;" xml:space="preserve">
<style type="text/css">
	.st0{fill:#6C3088;}
	.st1{clip-path:url(#SVGID_2_);fill:#203C89;}
	.st2{clip-path:url(#SVGID_4_);fill:#FFCC04;}
	.st3{clip-path:url(#SVGID_6_);fill:#FFCC04;}
	.st4{clip-path:url(#SVGID_8_);fill:#FFCC04;}
	.st5{clip-path:url(#SVGID_10_);fill:#FFCC04;}
	.st6{clip-path:url(#SVGID_12_);fill:#FFCC04;}
	.st7{clip-path:url(#SVGID_14_);fill:#FFCC04;}
	.st8{clip-path:url(#SVGID_16_);fill:#FFCC04;}
	.st9{clip-path:url(#SVGID_18_);fill:#FFCC04;}
	.st10{clip-path:url(#SVGID_20_);fill:#FFCC04;}
	.st11{clip-path:url(#SVGID_22_);fill:#FFCC04;}
	.st12{clip-path:url(#SVGID_24_);fill:#FFCC04;}
	.st13{clip-path:url(#SVGID_26_);fill:#FFCC04;}
	.st14{fill:#020304;}
</style>
<g>
	<path class="st0" d="M102.6,19.9c1.8,0,3.2,0.5,4.3,1.5c1.1,1,1.6,2.5,1.6,4.4v1.7H100c0,1,0.3,1.8,0.9,2.4
		c0.6,0.6,1.4,0.9,2.4,0.9c0.8,0,1.6-0.1,2.3-0.3c0.7-0.2,1.4-0.4,2.1-0.8v2.8c-0.7,0.3-1.3,0.6-2,0.7c-0.7,0.2-1.6,0.2-2.6,0.2
		c-1.3,0-2.5-0.2-3.5-0.7s-1.8-1.2-2.4-2.2s-0.9-2.2-0.9-3.8s0.3-2.8,0.8-3.8c0.5-1,1.2-1.8,2.2-2.3S101.3,19.9,102.6,19.9z
		 M102.6,22.4c-0.7,0-1.3,0.2-1.7,0.7c-0.4,0.4-0.7,1.1-0.8,2.1h5c0-0.8-0.2-1.4-0.6-2C104,22.7,103.4,22.4,102.6,22.4z"/>
	<path class="st0" d="M123.4,20.1v13.1h-2.7l-0.5-1.7H120c-0.4,0.7-1,1.2-1.7,1.5c-0.7,0.3-1.5,0.5-2.3,0.5c-1.4,0-2.5-0.4-3.4-1.1
		c-0.8-0.8-1.3-2-1.3-3.7v-8.5h3.6v7.7c0,0.9,0.2,1.7,0.5,2.1s0.9,0.7,1.6,0.7c1.1,0,1.8-0.4,2.2-1.1c0.4-0.7,0.6-1.8,0.6-3.2v-6.2
		H123.4z"/>
	<path class="st0" d="M134.4,19.9c0.2,0,0.4,0,0.6,0c0.2,0,0.4,0,0.6,0.1l-0.3,3.4c-0.1,0-0.3-0.1-0.5-0.1c-0.2,0-0.4,0-0.6,0
		c-0.6,0-1.2,0.1-1.8,0.3c-0.6,0.2-1,0.6-1.4,1c-0.3,0.5-0.5,1.1-0.5,2v6.7h-3.6V20.1h2.7l0.5,2.2h0.2c0.4-0.7,0.9-1.2,1.6-1.7
		C132.8,20.1,133.5,19.9,134.4,19.9z"/>
	<path class="st0" d="M149.4,26.7c0,2.2-0.6,3.9-1.7,5c-1.1,1.2-2.7,1.8-4.7,1.8c-1.2,0-2.3-0.3-3.3-0.8c-1-0.5-1.7-1.3-2.2-2.3
		c-0.5-1-0.8-2.3-0.8-3.7c0-2.2,0.6-3.8,1.7-5c1.1-1.2,2.7-1.8,4.7-1.8c1.2,0,2.3,0.3,3.3,0.8c0.9,0.5,1.7,1.3,2.2,2.3
		S149.4,25.2,149.4,26.7z M140.4,26.7c0,1.3,0.2,2.3,0.6,2.9c0.4,0.7,1.1,1,2.1,1c0.9,0,1.6-0.3,2.1-1c0.4-0.7,0.6-1.6,0.6-2.9
		s-0.2-2.3-0.6-2.9c-0.4-0.6-1.1-1-2.1-1c-0.9,0-1.6,0.3-2.1,1C140.6,24.4,140.4,25.4,140.4,26.7z"/>
	<path class="st0" d="M159.7,19.9c1.5,0,2.7,0.6,3.6,1.7c0.9,1.1,1.4,2.8,1.4,5.1c0,2.2-0.5,3.9-1.4,5.1c-0.9,1.2-2.2,1.7-3.6,1.7
		c-0.9,0-1.7-0.2-2.3-0.5c-0.6-0.3-1-0.7-1.4-1.2h-0.2c0.1,0.7,0.2,1.3,0.2,1.9V39h-3.6V20.1h2.9l0.5,1.7h0.2c0.4-0.5,0.8-1,1.4-1.4
		C158,20.1,158.7,19.9,159.7,19.9z M158.5,22.7c-0.9,0-1.6,0.3-2,0.9s-0.6,1.5-0.6,2.6v0.4c0,1.3,0.2,2.2,0.6,2.9
		c0.4,0.7,1.1,1,2.1,1c0.8,0,1.4-0.3,1.8-1c0.4-0.7,0.6-1.7,0.6-2.9C161,24,160.2,22.7,158.5,22.7z"/>
	<path class="st0" d="M172.9,19.9c1.8,0,3.1,0.4,4,1.1c0.9,0.8,1.4,1.9,1.4,3.5v8.7h-2.5l-0.7-1.8h-0.1c-0.6,0.7-1.2,1.2-1.8,1.5
		s-1.5,0.5-2.6,0.5c-1.2,0-2.1-0.3-2.9-1c-0.8-0.7-1.2-1.7-1.2-3.1c0-1.4,0.5-2.4,1.5-3.1c1-0.7,2.4-1,4.4-1.1l2.3-0.1v-0.6
		c0-0.7-0.2-1.2-0.5-1.5c-0.4-0.3-0.9-0.5-1.5-0.5s-1.3,0.1-1.9,0.3s-1.2,0.4-1.8,0.7l-1.2-2.4c0.7-0.4,1.5-0.6,2.3-0.9
		S172,19.9,172.9,19.9z M174.8,27.2l-1.4,0c-1.2,0-2,0.2-2.4,0.6s-0.7,0.9-0.7,1.5c0,0.5,0.2,0.9,0.5,1.2c0.3,0.2,0.7,0.3,1.2,0.3
		c0.8,0,1.4-0.2,1.9-0.7c0.5-0.5,0.8-1.1,0.8-1.9V27.2z"/>
	<path class="st0" d="M191.2,29.3c0,1.3-0.5,2.3-1.4,3.1c-0.9,0.7-2.3,1.1-4.2,1.1c-0.9,0-1.7-0.1-2.4-0.2s-1.3-0.3-2-0.6v-3
		c0.7,0.3,1.5,0.6,2.3,0.8c0.8,0.2,1.5,0.3,2.2,0.3c0.7,0,1.2-0.1,1.5-0.3c0.3-0.2,0.5-0.5,0.5-0.8c0-0.2-0.1-0.4-0.2-0.6
		c-0.1-0.2-0.4-0.4-0.8-0.6c-0.4-0.2-1-0.5-1.9-0.9c-0.8-0.4-1.5-0.7-2-1c-0.5-0.3-0.9-0.8-1.2-1.2c-0.3-0.5-0.4-1.1-0.4-1.8
		c0-1.2,0.5-2.1,1.4-2.7c0.9-0.6,2.2-0.9,3.8-0.9c0.8,0,1.6,0.1,2.3,0.2c0.7,0.2,1.5,0.4,2.3,0.8l-1.1,2.6c-0.6-0.3-1.2-0.5-1.8-0.7
		c-0.6-0.2-1.2-0.3-1.8-0.3c-1.1,0-1.6,0.3-1.6,0.9c0,0.2,0.1,0.4,0.2,0.6c0.1,0.2,0.4,0.3,0.8,0.5c0.4,0.2,1,0.4,1.7,0.8
		c0.8,0.3,1.4,0.6,1.9,0.9c0.5,0.3,1,0.7,1.3,1.2S191.2,28.6,191.2,29.3z"/>
	<path class="st0" d="M203.1,29.3c0,1.3-0.5,2.3-1.4,3.1c-0.9,0.7-2.3,1.1-4.2,1.1c-0.9,0-1.7-0.1-2.4-0.2s-1.3-0.3-2-0.6v-3
		c0.7,0.3,1.5,0.6,2.3,0.8c0.8,0.2,1.5,0.3,2.2,0.3c0.7,0,1.2-0.1,1.5-0.3c0.3-0.2,0.5-0.5,0.5-0.8c0-0.2-0.1-0.4-0.2-0.6
		c-0.1-0.2-0.4-0.4-0.8-0.6c-0.4-0.2-1-0.5-1.9-0.9c-0.8-0.4-1.5-0.7-2-1c-0.5-0.3-0.9-0.8-1.2-1.2c-0.3-0.5-0.4-1.1-0.4-1.8
		c0-1.2,0.5-2.1,1.4-2.7c0.9-0.6,2.2-0.9,3.8-0.9c0.8,0,1.6,0.1,2.3,0.2c0.7,0.2,1.5,0.4,2.3,0.8l-1.1,2.6c-0.6-0.3-1.2-0.5-1.8-0.7
		c-0.6-0.2-1.2-0.3-1.8-0.3c-1.1,0-1.6,0.3-1.6,0.9c0,0.2,0.1,0.4,0.2,0.6c0.1,0.2,0.4,0.3,0.8,0.5c0.4,0.2,1,0.4,1.7,0.8
		c0.8,0.3,1.4,0.6,1.9,0.9c0.5,0.3,1,0.7,1.3,1.2S203.1,28.6,203.1,29.3z"/>
</g>
<g>
	<defs>
		<rect id="SVGID_1_" x="13.8" y="16" width="69" height="46"/>
	</defs>
	<clipPath id="SVGID_2_">
		<use xlink:href="#SVGID_1_"  style="overflow:visible;"/>
	</clipPath>
	<rect x="8.8" y="11" class="st1" width="79" height="56"/>
</g>
<g>
	<defs>
		<polygon id="SVGID_3_" points="48.3,52.6 46.8,51.5 47.5,53.2 45.9,54.3 47.8,54.2 48.3,56 48.8,54.2 50.6,54.3 49.1,53.2 
			49.7,51.5 		"/>
	</defs>
	<clipPath id="SVGID_4_">
		<use xlink:href="#SVGID_3_"  style="overflow:visible;"/>
	</clipPath>
	<rect x="40.9" y="46.5" class="st2" width="14.7" height="14.5"/>
</g>
<g>
	<defs>
		<polygon id="SVGID_5_" points="55.7,50.6 54.3,49.5 54.9,51.2 53.4,52.3 55.2,52.2 55.7,54 56.3,52.2 58.1,52.3 56.6,51.2 
			57.2,49.5 		"/>
	</defs>
	<clipPath id="SVGID_6_">
		<use xlink:href="#SVGID_5_"  style="overflow:visible;"/>
	</clipPath>
	<rect x="48.4" y="44.5" class="st3" width="14.7" height="14.5"/>
</g>
<g>
	<defs>
		<polygon id="SVGID_7_" points="61.3,45.1 59.8,44 60.4,45.7 58.9,46.8 60.8,46.7 61.3,48.5 61.8,46.7 63.6,46.8 62.1,45.7 
			62.7,44 		"/>
	</defs>
	<clipPath id="SVGID_8_">
		<use xlink:href="#SVGID_7_"  style="overflow:visible;"/>
	</clipPath>
	<rect x="53.9" y="39" class="st4" width="14.7" height="14.5"/>
</g>
<g>
	<defs>
		<polygon id="SVGID_9_" points="63.3,37.6 61.8,36.5 62.4,38.2 60.9,39.2 62.8,39.2 63.3,40.9 63.8,39.2 65.6,39.2 64.1,38.2 
			64.7,36.5 		"/>
	</defs>
	<clipPath id="SVGID_10_">
		<use xlink:href="#SVGID_9_"  style="overflow:visible;"/>
	</clipPath>
	<rect x="55.9" y="31.5" class="st5" width="14.7" height="14.5"/>
</g>
<g>
	<defs>
		<polygon id="SVGID_11_" points="61.3,30 59.8,28.9 60.4,30.6 58.9,31.7 60.8,31.6 61.3,33.4 61.8,31.6 63.6,31.7 62.1,30.6 
			62.7,28.9 		"/>
	</defs>
	<clipPath id="SVGID_12_">
		<use xlink:href="#SVGID_11_"  style="overflow:visible;"/>
	</clipPath>
	<rect x="53.9" y="23.9" class="st6" width="14.7" height="14.5"/>
</g>
<g>
	<defs>
		<polygon id="SVGID_13_" points="55.7,24.5 54.3,23.4 54.9,25.1 53.4,26.2 55.2,26.1 55.7,27.9 56.3,26.1 58.1,26.2 56.6,25.1 
			57.2,23.4 		"/>
	</defs>
	<clipPath id="SVGID_14_">
		<use xlink:href="#SVGID_13_"  style="overflow:visible;"/>
	</clipPath>
	<rect x="48.4" y="18.4" class="st7" width="14.7" height="14.5"/>
</g>
<g>
	<defs>
		<polygon id="SVGID_15_" points="48.3,22.6 46.8,21.5 47.5,23.2 45.9,24.2 47.8,24.2 48.3,25.9 48.8,24.2 50.6,24.2 49.1,23.2 
			49.7,21.5 		"/>
	</defs>
	<clipPath id="SVGID_16_">
		<use xlink:href="#SVGID_15_"  style="overflow:visible;"/>
	</clipPath>
	<rect x="40.9" y="16.5" class="st8" width="14.7" height="14.5"/>
</g>
<g>
	<defs>
		<polygon id="SVGID_17_" points="40.7,24.5 39.2,23.4 39.8,25.1 38.3,26.2 40.2,26.1 40.7,27.9 41.2,26.1 43,26.2 41.5,25.1 
			42.1,23.4 		"/>
	</defs>
	<clipPath id="SVGID_18_">
		<use xlink:href="#SVGID_17_"  style="overflow:visible;"/>
	</clipPath>
	<rect x="33.3" y="18.4" class="st9" width="14.7" height="14.5"/>
</g>
<g>
	<defs>
		<polygon id="SVGID_19_" points="35.1,30 33.7,28.9 34.3,30.6 32.8,31.7 34.6,31.6 35.1,33.4 35.7,31.6 37.5,31.7 36,30.6 
			36.6,28.9 		"/>
	</defs>
	<clipPath id="SVGID_20_">
		<use xlink:href="#SVGID_19_"  style="overflow:visible;"/>
	</clipPath>
	<rect x="27.8" y="23.9" class="st10" width="14.7" height="14.5"/>
</g>
<g>
	<defs>
		<polygon id="SVGID_21_" points="33.2,37.6 31.8,36.5 32.4,38.3 30.9,39.3 32.7,39.3 33.2,41 33.7,39.3 35.6,39.3 34.1,38.3 
			34.7,36.5 		"/>
	</defs>
	<clipPath id="SVGID_22_">
		<use xlink:href="#SVGID_21_"  style="overflow:visible;"/>
	</clipPath>
	<rect x="25.9" y="31.5" class="st11" width="14.7" height="14.5"/>
</g>
<g>
	<defs>
		<polygon id="SVGID_23_" points="35.1,45.1 33.7,44 34.3,45.7 32.8,46.8 34.6,46.7 35.1,48.5 35.7,46.7 37.5,46.8 36,45.7 36.6,44 
					"/>
	</defs>
	<clipPath id="SVGID_24_">
		<use xlink:href="#SVGID_23_"  style="overflow:visible;"/>
	</clipPath>
	<rect x="27.8" y="39" class="st12" width="14.7" height="14.5"/>
</g>
<g>
	<defs>
		<polygon id="SVGID_25_" points="40.7,50.6 39.2,49.5 39.8,51.2 38.3,52.3 40.2,52.2 40.7,54 41.2,52.2 43,52.3 41.5,51.2 
			42.1,49.5 		"/>
	</defs>
	<clipPath id="SVGID_26_">
		<use xlink:href="#SVGID_25_"  style="overflow:visible;"/>
	</clipPath>
	<rect x="33.3" y="44.5" class="st13" width="14.7" height="14.5"/>
</g>
<g>
	<path class="st14" d="M97.1,60V42.8h5.9c1.3,0,2.4,0.1,3.1,0.2c1,0.2,1.8,0.6,2.5,1.2c0.9,0.8,1.6,1.7,2,2.9s0.7,2.6,0.7,4.1
		c0,1.3-0.2,2.5-0.5,3.5s-0.7,1.8-1.2,2.5s-1,1.2-1.6,1.6s-1.2,0.7-2.1,0.9s-1.7,0.3-2.8,0.3H97.1z M99.4,58h3.7
		c1.1,0,2-0.1,2.7-0.3s1.2-0.5,1.5-0.9c0.5-0.5,1-1.3,1.3-2.2s0.5-2,0.5-3.3c0-1.8-0.3-3.2-0.9-4.1s-1.3-1.6-2.2-1.9
		c-0.6-0.2-1.6-0.4-2.9-0.4h-3.6V58z"/>
	<path class="st14" d="M122.7,56l2.2,0.3c-0.3,1.3-1,2.3-1.9,3s-2.1,1.1-3.6,1.1c-1.8,0-3.3-0.6-4.3-1.7s-1.6-2.7-1.6-4.7
		c0-2.1,0.5-3.7,1.6-4.9s2.5-1.7,4.2-1.7c1.7,0,3,0.6,4.1,1.7s1.6,2.7,1.6,4.8c0,0.1,0,0.3,0,0.6h-9.3c0.1,1.4,0.5,2.4,1.2,3.1
		s1.6,1.1,2.6,1.1c0.8,0,1.4-0.2,2-0.6S122.4,56.9,122.7,56z M115.8,52.6h6.9c-0.1-1-0.4-1.8-0.8-2.4c-0.7-0.8-1.5-1.2-2.6-1.2
		c-1,0-1.8,0.3-2.4,1S115.9,51.5,115.8,52.6z"/>
	<path class="st14" d="M127.5,60V47.5h1.9v1.8c0.9-1.4,2.2-2.1,4-2.1c0.8,0,1.4,0.1,2.1,0.4s1.1,0.6,1.4,1.1s0.5,1,0.7,1.6
		c0.1,0.4,0.1,1.1,0.1,2.1V60h-2.1v-7.6c0-0.9-0.1-1.5-0.2-1.9s-0.5-0.8-0.9-1s-0.9-0.4-1.5-0.4c-0.9,0-1.7,0.3-2.3,0.9
		s-1,1.7-1,3.2V60H127.5z"/>
	<path class="st14" d="M147.9,60V42.8h12.4v2h-10.1v5.3h9.5v2h-9.5V58h10.5v2H147.9z"/>
	<path class="st14" d="M171.7,60v-1.8c-1,1.4-2.3,2.1-3.9,2.1c-0.7,0-1.4-0.1-2.1-0.4s-1.1-0.6-1.4-1.1s-0.5-0.9-0.7-1.6
		c-0.1-0.4-0.1-1.1-0.1-2v-7.7h2.1v6.9c0,1.1,0,1.8,0.1,2.2c0.1,0.6,0.4,1,0.8,1.3s1,0.5,1.6,0.5s1.2-0.2,1.8-0.5s0.9-0.8,1.2-1.3
		s0.3-1.4,0.3-2.4v-6.7h2.1V60H171.7z"/>
	<path class="st14" d="M176.9,60V47.5h1.9v1.9c0.5-0.9,0.9-1.5,1.3-1.7s0.9-0.4,1.4-0.4c0.7,0,1.4,0.2,2.2,0.7l-0.7,2
		c-0.5-0.3-1-0.5-1.5-0.5c-0.5,0-0.9,0.1-1.2,0.4s-0.6,0.7-0.8,1.2c-0.2,0.8-0.4,1.6-0.4,2.5V60H176.9z"/>
	<path class="st14" d="M184.1,53.8c0-2.3,0.6-4,1.9-5.1c1.1-0.9,2.4-1.4,3.9-1.4c1.7,0,3.1,0.6,4.2,1.7s1.6,2.7,1.6,4.6
		c0,1.6-0.2,2.9-0.7,3.8s-1.2,1.6-2.1,2.1s-1.9,0.8-3,0.8c-1.7,0-3.2-0.6-4.2-1.7S184.1,55.9,184.1,53.8z M186.3,53.8
		c0,1.6,0.3,2.8,1,3.6s1.6,1.2,2.6,1.2c1,0,1.9-0.4,2.6-1.2s1-2,1-3.6c0-1.5-0.3-2.7-1-3.5S191,49,190,49c-1.1,0-1.9,0.4-2.6,1.2
		S186.3,52.2,186.3,53.8z"/>
	<path class="st14" d="M198.3,64.8V47.5h1.9v1.6c0.5-0.6,1-1.1,1.5-1.4s1.3-0.5,2.1-0.5c1.1,0,2,0.3,2.8,0.8s1.4,1.3,1.8,2.3
		s0.6,2.1,0.6,3.3c0,1.3-0.2,2.4-0.7,3.4s-1.1,1.8-2,2.3s-1.8,0.8-2.7,0.8c-0.7,0-1.3-0.1-1.9-0.4s-1-0.7-1.4-1.1v6.1H198.3z
		 M200.2,53.8c0,1.6,0.3,2.8,1,3.6s1.4,1.1,2.4,1.1c0.9,0,1.7-0.4,2.4-1.2s1-2,1-3.7c0-1.6-0.3-2.8-1-3.6s-1.4-1.2-2.3-1.2
		c-0.9,0-1.7,0.4-2.4,1.3S200.2,52.2,200.2,53.8z"/>
	<path class="st14" d="M230.3,56.2c-0.4,1.3-1.1,2.3-2,3s-2.1,1.1-3.5,1.1c-1,0-1.9-0.2-2.6-0.6s-1.4-1-2-1.8
		c-0.8,0.8-1.6,1.4-2.5,1.8s-1.7,0.6-2.7,0.6c-1.3,0-2.4-0.3-3.1-1s-1.1-1.5-1.1-2.5c0-0.7,0.2-1.3,0.6-1.9s0.9-1,1.6-1.3
		s1.8-0.6,3.3-0.8c1.2-0.2,2.2-0.3,3-0.6c0-0.2,0-0.4,0-0.5c0-1-0.2-1.7-0.6-2.1s-1.1-0.6-2.2-0.6c-0.7,0-1.3,0.1-1.7,0.2
		s-0.8,0.4-1,0.7s-0.4,0.8-0.6,1.4l-2.1-0.2c0.2-0.9,0.5-1.6,0.9-2.2s1-1,1.8-1.3s1.7-0.5,2.7-0.5c1.3,0,2.4,0.2,3.2,0.6
		c0.5,0.2,0.8,0.6,1.2,1.1c0.5-0.5,1.1-1,1.7-1.2s1.4-0.4,2.3-0.4c1.3,0,2.3,0.3,3.1,0.9s1.4,1.4,1.8,2.4s0.6,2,0.6,3
		c0,0.1,0,0.4,0,0.7h-9c0,1.1,0.2,1.9,0.4,2.4s0.7,0.9,1.3,1.3s1.2,0.5,1.9,0.5c0.8,0,1.5-0.2,2-0.7s0.9-1.1,1.2-1.9L230.3,56.2z
		 M219.3,53.7c-0.6,0.3-1.9,0.6-3.8,0.9c-0.9,0.1-1.4,0.3-1.8,0.6c-0.5,0.4-0.7,0.8-0.7,1.4c0,0.6,0.2,1,0.6,1.4s1,0.6,1.8,0.6
		c0.9,0,1.7-0.2,2.3-0.7s1.1-1,1.3-1.7C219.3,55.9,219.3,55,219.3,53.7z M221.4,52.6h6.8c-0.1-1.2-0.5-2.1-1.1-2.7s-1.4-0.9-2.3-0.9
		c-1,0-1.8,0.3-2.4,0.9S221.4,51.5,221.4,52.6z"/>
	<path class="st14" d="M233,45.2v-2.4h2.1v2.4H233z M233,60V47.5h2.1V60H233z"/>
	<path class="st14" d="M237.4,56.3l2.1-0.3c0.1,0.8,0.4,1.5,1,1.9s1.3,0.7,2.2,0.7c1,0,1.7-0.2,2.2-0.6s0.7-0.9,0.7-1.4
		c0-0.5-0.2-0.9-0.6-1.1c-0.3-0.2-1-0.4-2.2-0.7c-1.5-0.4-2.6-0.7-3.2-1s-1.1-0.7-1.4-1.2s-0.5-1.1-0.5-1.7c0-0.6,0.1-1.1,0.4-1.5
		s0.6-0.9,1-1.2c0.3-0.2,0.8-0.4,1.3-0.6s1.2-0.3,1.8-0.3c1,0,1.8,0.1,2.6,0.4s1.3,0.7,1.6,1.1s0.6,1.1,0.7,1.9l-2.1,0.3
		c-0.1-0.6-0.4-1.1-0.8-1.5s-1.1-0.5-1.9-0.5c-1,0-1.7,0.2-2.1,0.5s-0.6,0.7-0.6,1.1c0,0.3,0.1,0.5,0.3,0.7c0.2,0.2,0.4,0.4,0.8,0.6
		c0.2,0.1,0.8,0.3,1.9,0.5c1.5,0.4,2.5,0.7,3.1,1s1.1,0.6,1.4,1.1s0.5,1.1,0.5,1.8c0,0.7-0.2,1.4-0.6,2s-1,1.1-1.8,1.4
		s-1.6,0.5-2.6,0.5c-1.6,0-2.8-0.3-3.7-1S237.7,57.6,237.4,56.3z"/>
	<path class="st14" d="M250.3,60V42.8h2.1v9.8l5-5.1h2.7l-4.8,4.6l5.2,7.8H258l-4.1-6.4l-1.5,1.4V60H250.3z"/>
	<path class="st14" d="M270.8,56l2.2,0.3c-0.3,1.3-1,2.3-1.9,3s-2.1,1.1-3.6,1.1c-1.8,0-3.3-0.6-4.3-1.7s-1.6-2.7-1.6-4.7
		c0-2.1,0.5-3.7,1.6-4.9s2.5-1.7,4.2-1.7c1.7,0,3,0.6,4.1,1.7s1.6,2.7,1.6,4.8c0,0.1,0,0.3,0,0.6h-9.3c0.1,1.4,0.5,2.4,1.2,3.1
		s1.6,1.1,2.6,1.1c0.8,0,1.4-0.2,2-0.6S270.5,56.9,270.8,56z M263.9,52.6h6.9c-0.1-1-0.4-1.8-0.8-2.4c-0.7-0.8-1.5-1.2-2.6-1.2
		c-1,0-1.8,0.3-2.4,1S263.9,51.5,263.9,52.6z"/>
	<path class="st14" d="M293.8,42.8h2.3v9.9c0,1.7-0.2,3.1-0.6,4.1s-1.1,1.8-2.1,2.5s-2.4,1-4,1c-1.6,0-2.9-0.3-3.9-0.8
		s-1.8-1.4-2.2-2.4s-0.7-2.5-0.7-4.3v-9.9h2.3v9.9c0,1.5,0.1,2.6,0.4,3.3s0.8,1.3,1.4,1.6s1.5,0.6,2.5,0.6c1.7,0,2.9-0.4,3.6-1.1
		s1.1-2.2,1.1-4.4V42.8z"/>
	<path class="st14" d="M299.6,60V47.5h1.9v1.8c0.9-1.4,2.2-2.1,4-2.1c0.8,0,1.4,0.1,2.1,0.4s1.1,0.6,1.4,1.1s0.5,1,0.7,1.6
		c0.1,0.4,0.1,1.1,0.1,2.1V60h-2.1v-7.6c0-0.9-0.1-1.5-0.2-1.9s-0.5-0.8-0.9-1s-0.9-0.4-1.5-0.4c-0.9,0-1.7,0.3-2.3,0.9
		s-1,1.7-1,3.2V60H299.6z"/>
	<path class="st14" d="M313,45.2v-2.4h2.1v2.4H313z M313,60V47.5h2.1V60H313z"/>
	<path class="st14" d="M317.5,53.8c0-2.3,0.6-4,1.9-5.1c1.1-0.9,2.4-1.4,3.9-1.4c1.7,0,3.1,0.6,4.2,1.7s1.6,2.7,1.6,4.6
		c0,1.6-0.2,2.9-0.7,3.8s-1.2,1.6-2.1,2.1s-1.9,0.8-3,0.8c-1.7,0-3.2-0.6-4.2-1.7S317.5,55.9,317.5,53.8z M319.7,53.8
		c0,1.6,0.3,2.8,1,3.6s1.6,1.2,2.6,1.2c1,0,1.9-0.4,2.6-1.2s1-2,1-3.6c0-1.5-0.3-2.7-1-3.5s-1.6-1.2-2.6-1.2c-1.1,0-1.9,0.4-2.6,1.2
		S319.7,52.2,319.7,53.8z"/>
	<path class="st14" d="M331.7,60V47.5h1.9v1.8c0.9-1.4,2.2-2.1,4-2.1c0.8,0,1.4,0.1,2.1,0.4s1.1,0.6,1.4,1.1s0.5,1,0.7,1.6
		c0.1,0.4,0.1,1.1,0.1,2.1V60h-2.1v-7.6c0-0.9-0.1-1.5-0.2-1.9s-0.5-0.8-0.9-1s-0.9-0.4-1.5-0.4c-0.9,0-1.7,0.3-2.3,0.9
		s-1,1.7-1,3.2V60H331.7z"/>
</g>
</svg>
