<?xml version="1.0" encoding="utf-8"?>
<!-- Generator: Adobe Illustrator 23.1.1, SVG Export Plug-In . SVG Version: 6.00 Build 0)  -->
<svg version="1.1" id="Capa_1" xmlns="http://www.w3.org/2000/svg" xmlns:xlink="http://www.w3.org/1999/xlink" x="0px" y="0px"
	 viewBox="0 0 315.7 80.8" style="enable-background:new 0 0 315.7 80.8;" xml:space="preserve">
<style type="text/css">
	.st0{fill:#6C3088;}
	.st1{clip-path:url(#SVGID_2_);fill:#203C89;}
	.st2{clip-path:url(#SVGID_4_);fill:#FFCC04;}
	.st3{clip-path:url(#SVGID_6_);fill:#FFCC04;}
	.st4{clip-path:url(#SVGID_8_);fill:#FFCC04;}
	.st5{clip-path:url(#SVGID_10_);fill:#FFCC04;}
	.st6{clip-path:url(#SVGID_12_);fill:#FFCC04;}
	.st7{clip-path:url(#SVGID_14_);fill:#FFCC04;}
	.st8{clip-path:url(#SVGID_16_);fill:#FFCC04;}
	.st9{clip-path:url(#SVGID_18_);fill:#FFCC04;}
	.st10{clip-path:url(#SVGID_20_);fill:#FFCC04;}
	.st11{clip-path:url(#SVGID_22_);fill:#FFCC04;}
	.st12{clip-path:url(#SVGID_24_);fill:#FFCC04;}
	.st13{clip-path:url(#SVGID_26_);fill:#FFCC04;}
	.st14{fill:#020304;}
</style>
<g>
	<path class="st0" d="M103.5,19.9c1.8,0,3.2,0.5,4.3,1.5c1.1,1,1.6,2.5,1.6,4.4v1.7h-8.4c0,1,0.3,1.8,0.9,2.4s1.4,0.9,2.4,0.9
		c0.8,0,1.6-0.1,2.3-0.3c0.7-0.2,1.4-0.4,2.1-0.8v2.8c-0.7,0.3-1.3,0.6-2,0.7c-0.7,0.2-1.6,0.2-2.6,0.2c-1.3,0-2.5-0.2-3.5-0.7
		c-1-0.5-1.8-1.2-2.4-2.2c-0.6-1-0.9-2.2-0.9-3.8s0.3-2.8,0.8-3.8c0.5-1,1.2-1.8,2.2-2.3C101.2,20.1,102.3,19.9,103.5,19.9z
		 M103.5,22.4c-0.7,0-1.3,0.2-1.7,0.7c-0.4,0.4-0.7,1.1-0.8,2.1h5c0-0.8-0.2-1.4-0.6-2C105,22.7,104.4,22.4,103.5,22.4z"/>
	<path class="st0" d="M124.3,20.1v13.1h-2.7l-0.5-1.7h-0.2c-0.4,0.7-1,1.2-1.7,1.5c-0.7,0.3-1.5,0.5-2.3,0.5c-1.4,0-2.5-0.4-3.4-1.1
		c-0.8-0.8-1.3-2-1.3-3.7v-8.5h3.6v7.7c0,0.9,0.2,1.7,0.5,2.1s0.9,0.7,1.6,0.7c1.1,0,1.8-0.4,2.2-1.1c0.4-0.7,0.6-1.8,0.6-3.2v-6.2
		H124.3z"/>
	<path class="st0" d="M135.4,19.9c0.2,0,0.4,0,0.6,0c0.2,0,0.4,0,0.6,0.1l-0.3,3.4c-0.1,0-0.3-0.1-0.5-0.1c-0.2,0-0.4,0-0.6,0
		c-0.6,0-1.2,0.1-1.8,0.3c-0.6,0.2-1,0.6-1.4,1c-0.3,0.5-0.5,1.1-0.5,2v6.7h-3.6V20.1h2.7l0.5,2.2h0.2c0.4-0.7,0.9-1.2,1.6-1.7
		C133.7,20.1,134.5,19.9,135.4,19.9z"/>
	<path class="st0" d="M150.4,26.7c0,2.2-0.6,3.9-1.7,5c-1.1,1.2-2.7,1.8-4.7,1.8c-1.2,0-2.3-0.3-3.3-0.8c-1-0.5-1.7-1.3-2.2-2.3
		c-0.5-1-0.8-2.3-0.8-3.7c0-2.2,0.6-3.8,1.7-5s2.7-1.8,4.7-1.8c1.2,0,2.3,0.3,3.3,0.8c0.9,0.5,1.7,1.3,2.2,2.3
		S150.4,25.2,150.4,26.7z M141.3,26.7c0,1.3,0.2,2.3,0.6,2.9c0.4,0.7,1.1,1,2.1,1c0.9,0,1.6-0.3,2.1-1c0.4-0.7,0.6-1.6,0.6-2.9
		s-0.2-2.3-0.6-2.9c-0.4-0.6-1.1-1-2.1-1c-0.9,0-1.6,0.3-2.1,1C141.6,24.4,141.3,25.4,141.3,26.7z"/>
	<path class="st0" d="M160.6,19.9c1.5,0,2.7,0.6,3.6,1.7c0.9,1.1,1.4,2.8,1.4,5.1c0,2.2-0.5,3.9-1.4,5.1c-0.9,1.2-2.2,1.7-3.6,1.7
		c-0.9,0-1.7-0.2-2.3-0.5c-0.6-0.3-1-0.7-1.4-1.2h-0.2c0.1,0.7,0.2,1.3,0.2,1.9V39h-3.6V20.1h2.9l0.5,1.7h0.2c0.4-0.5,0.8-1,1.4-1.4
		C158.9,20.1,159.7,19.9,160.6,19.9z M159.5,22.7c-0.9,0-1.6,0.3-2,0.9c-0.4,0.6-0.6,1.5-0.6,2.6v0.4c0,1.3,0.2,2.2,0.6,2.9
		c0.4,0.7,1.1,1,2.1,1c0.8,0,1.4-0.3,1.8-1c0.4-0.7,0.6-1.7,0.6-2.9C161.9,24,161.1,22.7,159.5,22.7z"/>
	<path class="st0" d="M173.9,19.9c1.8,0,3.1,0.4,4,1.1c0.9,0.8,1.4,1.9,1.4,3.5v8.7h-2.5l-0.7-1.8h-0.1c-0.6,0.7-1.2,1.2-1.8,1.5
		s-1.5,0.5-2.6,0.5c-1.2,0-2.1-0.3-2.9-1c-0.8-0.7-1.2-1.7-1.2-3.1c0-1.4,0.5-2.4,1.5-3.1c1-0.7,2.4-1,4.4-1.1l2.3-0.1v-0.6
		c0-0.7-0.2-1.2-0.5-1.5c-0.4-0.3-0.9-0.5-1.5-0.5c-0.6,0-1.3,0.1-1.9,0.3c-0.6,0.2-1.2,0.4-1.8,0.7l-1.2-2.4
		c0.7-0.4,1.5-0.6,2.3-0.9C172.1,20,173,19.9,173.9,19.9z M175.8,27.2l-1.4,0c-1.2,0-2,0.2-2.4,0.6c-0.4,0.4-0.7,0.9-0.7,1.5
		c0,0.5,0.2,0.9,0.5,1.2c0.3,0.2,0.7,0.3,1.2,0.3c0.8,0,1.4-0.2,1.9-0.7c0.5-0.5,0.8-1.1,0.8-1.9V27.2z"/>
	<path class="st0" d="M192.2,29.3c0,1.3-0.5,2.3-1.4,3.1c-0.9,0.7-2.3,1.1-4.2,1.1c-0.9,0-1.7-0.1-2.4-0.2s-1.3-0.3-2-0.6v-3
		c0.7,0.3,1.5,0.6,2.3,0.8c0.8,0.2,1.5,0.3,2.2,0.3c0.7,0,1.2-0.1,1.5-0.3c0.3-0.2,0.5-0.5,0.5-0.8c0-0.2-0.1-0.4-0.2-0.6
		c-0.1-0.2-0.4-0.4-0.8-0.6c-0.4-0.2-1-0.5-1.9-0.9c-0.8-0.4-1.5-0.7-2-1c-0.5-0.3-0.9-0.8-1.2-1.2c-0.3-0.5-0.4-1.1-0.4-1.8
		c0-1.2,0.5-2.1,1.4-2.7c0.9-0.6,2.2-0.9,3.8-0.9c0.8,0,1.6,0.1,2.3,0.2c0.7,0.2,1.5,0.4,2.3,0.8l-1.1,2.6c-0.6-0.3-1.2-0.5-1.8-0.7
		c-0.6-0.2-1.2-0.3-1.8-0.3c-1.1,0-1.6,0.3-1.6,0.9c0,0.2,0.1,0.4,0.2,0.6s0.4,0.3,0.8,0.5c0.4,0.2,1,0.4,1.7,0.8
		c0.8,0.3,1.4,0.6,1.9,0.9c0.5,0.3,1,0.7,1.3,1.2S192.2,28.6,192.2,29.3z"/>
	<path class="st0" d="M204.1,29.3c0,1.3-0.5,2.3-1.4,3.1c-0.9,0.7-2.3,1.1-4.2,1.1c-0.9,0-1.7-0.1-2.4-0.2s-1.3-0.3-2-0.6v-3
		c0.7,0.3,1.5,0.6,2.3,0.8c0.8,0.2,1.5,0.3,2.2,0.3c0.7,0,1.2-0.1,1.5-0.3c0.3-0.2,0.5-0.5,0.5-0.8c0-0.2-0.1-0.4-0.2-0.6
		c-0.1-0.2-0.4-0.4-0.8-0.6c-0.4-0.2-1-0.5-1.9-0.9c-0.8-0.4-1.5-0.7-2-1c-0.5-0.3-0.9-0.8-1.2-1.2c-0.3-0.5-0.4-1.1-0.4-1.8
		c0-1.2,0.5-2.1,1.4-2.7c0.9-0.6,2.2-0.9,3.8-0.9c0.8,0,1.6,0.1,2.3,0.2c0.7,0.2,1.5,0.4,2.3,0.8l-1.1,2.6c-0.6-0.3-1.2-0.5-1.8-0.7
		c-0.6-0.2-1.2-0.3-1.8-0.3c-1.1,0-1.6,0.3-1.6,0.9c0,0.2,0.1,0.4,0.2,0.6s0.4,0.3,0.8,0.5c0.4,0.2,1,0.4,1.7,0.8
		c0.8,0.3,1.4,0.6,1.9,0.9c0.5,0.3,1,0.7,1.3,1.2S204.1,28.6,204.1,29.3z"/>
</g>
<g>
	<defs>
		<rect id="SVGID_1_" x="14.7" y="16" width="69" height="46"/>
	</defs>
	<clipPath id="SVGID_2_">
		<use xlink:href="#SVGID_1_"  style="overflow:visible;"/>
	</clipPath>
	<rect x="9.7" y="11" class="st1" width="79" height="56"/>
</g>
<g>
	<defs>
		<polygon id="SVGID_3_" points="49.3,52.6 47.8,51.5 48.4,53.2 46.9,54.3 48.7,54.2 49.3,56 49.8,54.2 51.6,54.3 50.1,53.2 
			50.7,51.5 		"/>
	</defs>
	<clipPath id="SVGID_4_">
		<use xlink:href="#SVGID_3_"  style="overflow:visible;"/>
	</clipPath>
	<rect x="41.9" y="46.5" class="st2" width="14.7" height="14.5"/>
</g>
<g>
	<defs>
		<polygon id="SVGID_5_" points="56.7,50.6 55.3,49.5 55.9,51.2 54.4,52.3 56.2,52.2 56.7,54 57.2,52.2 59.1,52.3 57.6,51.2 
			58.2,49.5 		"/>
	</defs>
	<clipPath id="SVGID_6_">
		<use xlink:href="#SVGID_5_"  style="overflow:visible;"/>
	</clipPath>
	<rect x="49.4" y="44.5" class="st3" width="14.7" height="14.5"/>
</g>
<g>
	<defs>
		<polygon id="SVGID_7_" points="62.2,45.1 60.8,44 61.4,45.7 59.9,46.8 61.7,46.7 62.2,48.5 62.8,46.7 64.6,46.8 63.1,45.7 
			63.7,44 		"/>
	</defs>
	<clipPath id="SVGID_8_">
		<use xlink:href="#SVGID_7_"  style="overflow:visible;"/>
	</clipPath>
	<rect x="54.9" y="39" class="st4" width="14.7" height="14.5"/>
</g>
<g>
	<defs>
		<polygon id="SVGID_9_" points="64.2,37.6 62.8,36.5 63.4,38.2 61.9,39.2 63.7,39.2 64.2,40.9 64.8,39.2 66.6,39.2 65.1,38.2 
			65.7,36.5 		"/>
	</defs>
	<clipPath id="SVGID_10_">
		<use xlink:href="#SVGID_9_"  style="overflow:visible;"/>
	</clipPath>
	<rect x="56.9" y="31.5" class="st5" width="14.7" height="14.5"/>
</g>
<g>
	<defs>
		<polygon id="SVGID_11_" points="62.2,30 60.8,28.9 61.4,30.6 59.9,31.7 61.7,31.6 62.2,33.4 62.8,31.6 64.6,31.7 63.1,30.6 
			63.7,28.9 		"/>
	</defs>
	<clipPath id="SVGID_12_">
		<use xlink:href="#SVGID_11_"  style="overflow:visible;"/>
	</clipPath>
	<rect x="54.9" y="23.9" class="st6" width="14.7" height="14.5"/>
</g>
<g>
	<defs>
		<polygon id="SVGID_13_" points="56.7,24.5 55.3,23.4 55.9,25.1 54.4,26.2 56.2,26.1 56.7,27.9 57.2,26.1 59.1,26.2 57.6,25.1 
			58.2,23.4 		"/>
	</defs>
	<clipPath id="SVGID_14_">
		<use xlink:href="#SVGID_13_"  style="overflow:visible;"/>
	</clipPath>
	<rect x="49.4" y="18.4" class="st7" width="14.7" height="14.5"/>
</g>
<g>
	<defs>
		<polygon id="SVGID_15_" points="49.3,22.6 47.8,21.5 48.4,23.2 46.9,24.2 48.7,24.2 49.3,25.9 49.8,24.2 51.6,24.2 50.1,23.2 
			50.7,21.5 		"/>
	</defs>
	<clipPath id="SVGID_16_">
		<use xlink:href="#SVGID_15_"  style="overflow:visible;"/>
	</clipPath>
	<rect x="41.9" y="16.5" class="st8" width="14.7" height="14.5"/>
</g>
<g>
	<defs>
		<polygon id="SVGID_17_" points="41.6,24.5 40.2,23.4 40.8,25.1 39.3,26.2 41.1,26.1 41.6,27.9 42.2,26.1 44,26.2 42.5,25.1 
			43.1,23.4 		"/>
	</defs>
	<clipPath id="SVGID_18_">
		<use xlink:href="#SVGID_17_"  style="overflow:visible;"/>
	</clipPath>
	<rect x="34.3" y="18.4" class="st9" width="14.7" height="14.5"/>
</g>
<g>
	<defs>
		<polygon id="SVGID_19_" points="36.1,30 34.7,28.9 35.3,30.6 33.8,31.7 35.6,31.6 36.1,33.4 36.6,31.6 38.5,31.7 37,30.6 
			37.6,28.9 		"/>
	</defs>
	<clipPath id="SVGID_20_">
		<use xlink:href="#SVGID_19_"  style="overflow:visible;"/>
	</clipPath>
	<rect x="28.8" y="23.9" class="st10" width="14.7" height="14.5"/>
</g>
<g>
	<defs>
		<polygon id="SVGID_21_" points="34.2,37.6 32.7,36.5 33.3,38.3 31.8,39.3 33.7,39.3 34.2,41 34.7,39.3 36.5,39.3 35,38.3 
			35.6,36.5 		"/>
	</defs>
	<clipPath id="SVGID_22_">
		<use xlink:href="#SVGID_21_"  style="overflow:visible;"/>
	</clipPath>
	<rect x="26.8" y="31.5" class="st11" width="14.7" height="14.5"/>
</g>
<g>
	<defs>
		<polygon id="SVGID_23_" points="36.1,45.1 34.7,44 35.3,45.7 33.8,46.8 35.6,46.7 36.1,48.5 36.6,46.7 38.5,46.8 37,45.7 37.6,44 
					"/>
	</defs>
	<clipPath id="SVGID_24_">
		<use xlink:href="#SVGID_23_"  style="overflow:visible;"/>
	</clipPath>
	<rect x="28.8" y="39" class="st12" width="14.7" height="14.5"/>
</g>
<g>
	<defs>
		<polygon id="SVGID_25_" points="41.6,50.6 40.2,49.5 40.8,51.2 39.3,52.3 41.1,52.2 41.6,54 42.2,52.2 44,52.3 42.5,51.2 
			43.1,49.5 		"/>
	</defs>
	<clipPath id="SVGID_26_">
		<use xlink:href="#SVGID_25_"  style="overflow:visible;"/>
	</clipPath>
	<rect x="34.3" y="44.5" class="st13" width="14.7" height="14.5"/>
</g>
<g>
	<path class="st14" d="M98.1,60V42.8h12.4v2h-10.1v5.3h9.5v2h-9.5V58H111v2H98.1z"/>
	<path class="st14" d="M113.8,47.5h2.1v7.4c0,1.3,0.3,2.2,0.9,2.8s1.2,0.9,2,0.9c0.6,0,1.2-0.2,1.7-0.5s0.8-0.8,1-1.2s0.3-1.1,0.3-2
		v-7.2h2.1v7.3c0,1.9-0.5,3.2-1.4,4.1s-2.1,1.3-3.6,1.3c-1.2,0-2.1-0.3-2.9-0.8s-1.3-1.1-1.6-1.8s-0.5-1.6-0.5-2.8V47.5z"/>
	<path class="st14" d="M126.9,64.8V54.2c0-2.4,0.5-4.1,1.4-5.2c0.9-1.1,2.3-1.7,4.1-1.7c1.8,0,3.2,0.6,4.2,1.8s1.6,2.8,1.6,4.7
		c0,1.9-0.5,3.5-1.5,4.7s-2.3,1.8-4,1.8c-1.5,0-2.8-0.5-3.7-1.5v6H126.9z M132.4,49c-1,0-1.8,0.4-2.5,1.2s-0.9,2-0.9,3.7
		c0,1.5,0.3,2.7,0.9,3.5s1.4,1.1,2.5,1.1c1.1,0,1.9-0.4,2.6-1.2s1-2,1-3.5c0-1.7-0.4-3-1.1-3.7S133.4,49,132.4,49z"/>
	<path class="st14" d="M141.9,47.5h2c-1.2,2.6-1.7,4.7-1.7,6.5c0,1.4,0.2,2.5,0.8,3.3s1.1,1.3,1.9,1.3c0.5,0,1-0.2,1.4-0.6
		s0.7-0.9,0.9-1.4s0.2-1.3,0.2-2.3v-3.6h2.1v3.6c0,1,0.1,1.7,0.2,2.3s0.4,1,0.9,1.4s0.9,0.6,1.4,0.6c0.8,0,1.4-0.4,1.9-1.2
		s0.8-1.9,0.8-3.3c0-1.8-0.6-3.9-1.7-6.5h2c1.2,2.2,1.9,4.3,1.9,6.4c0,2.1-0.4,3.6-1.3,4.7s-1.9,1.6-3.3,1.6c-1.8,0-3-0.9-3.8-2.8
		c-0.8,1.9-2,2.8-3.8,2.8c-1.4,0-2.5-0.6-3.3-1.7s-1.2-2.7-1.2-4.6C140,51.9,140.7,49.7,141.9,47.5z"/>
	<path class="st14" d="M163.3,49.3V60h-2.1V49.3H158v-1.7h15.5v1.7h-2.8V60h-2.1V49.3H163.3z"/>
	<path class="st14" d="M184.5,47.5h2.2c-0.5,1.7-1.1,3.8-1.5,6.2c0.5,3,1.1,5.1,1.5,6.2h-2.1c-0.3-0.8-0.6-1.5-0.8-2.3
		c-0.6,1.7-2,2.6-4.1,2.6c-1.6,0-2.8-0.6-3.8-1.8s-1.4-2.8-1.4-4.8c0-2.1,0.5-3.7,1.4-4.8s2.2-1.7,3.8-1.7c1,0,1.8,0.2,2.4,0.6
		s1.2,1,1.7,1.8C183.9,49.4,184.1,48.7,184.5,47.5z M180.1,49c-1,0-1.8,0.4-2.4,1.2s-0.9,2-0.9,3.5c0,1.5,0.3,2.7,0.8,3.5
		s1.3,1.3,2.3,1.3c1,0,1.8-0.4,2.4-1.3s1-2,1-3.6c0-1.5-0.3-2.7-0.9-3.5S181.1,49,180.1,49z"/>
	<path class="st14" d="M187,45.1v-2.4h2.2v2.4H187z M189.1,60V47.5h2.1V60H189.1z M191.3,45.1v-2.4h2.2v2.4H191.3z"/>
	<path class="st14" d="M194.4,47.5h2.1v4.9l5.1-4.9h2.8l-5.6,5.2l6,7.3h-2.7l-4.9-5.9l-0.8,0.7V60h-2.1V47.5z"/>
	<path class="st14" d="M206.5,60V47.5h1.9v1.8c0.9-1.4,2.2-2.1,4-2.1c1,0,1.9,0.2,2.6,0.7s1.1,1,1.4,1.6s0.3,1.6,0.3,2.8v12.4h-2.1
		V52.4c0-1.2-0.2-2-0.6-2.5s-1.1-0.8-2-0.8c-0.9,0-1.7,0.3-2.3,0.9s-1,1.7-1,3.2V60H206.5z M210.3,46l1.6-3.3h2.8l-2.6,3.3H210.3z"
		/>
	<path class="st14" d="M223.8,46.1l1.6-3.3h2.8l-2.6,3.3H223.8z M229.6,60V42.8H242v2h-10.1v5.3h9.5v2h-9.5V58h10.5v2H229.6z"/>
	<path class="st14" d="M248.7,60L244,47.5h2.2l2.7,7.5c0.3,0.8,0.6,1.6,0.8,2.5c0.2-0.7,0.4-1.4,0.8-2.4l2.8-7.6h2.2L250.7,60H248.7
		z"/>
	<path class="st14" d="M258.6,47.5h2c-1.2,2.6-1.7,4.7-1.7,6.5c0,1.4,0.2,2.5,0.8,3.3s1.1,1.3,1.9,1.3c0.5,0,1-0.2,1.4-0.6
		s0.7-0.9,0.9-1.4s0.2-1.3,0.2-2.3v-3.6h2.1v3.6c0,1,0.1,1.7,0.2,2.3s0.4,1,0.9,1.4s0.9,0.6,1.4,0.6c0.8,0,1.4-0.4,1.9-1.2
		s0.8-1.9,0.8-3.3c0-1.8-0.6-3.9-1.7-6.5h2c1.2,2.2,1.9,4.3,1.9,6.4c0,2.1-0.4,3.6-1.3,4.7s-1.9,1.6-3.3,1.6c-1.8,0-3-0.9-3.8-2.8
		c-0.8,1.9-2,2.8-3.8,2.8c-1.4,0-2.5-0.6-3.3-1.7s-1.2-2.7-1.2-4.6C256.7,51.9,257.3,49.7,258.6,47.5z"/>
	<path class="st14" d="M288.7,47.5v1.7h-3.4c1,1,1.6,2.5,1.6,4.5c0,2.2-0.6,3.9-1.7,4.9s-2.5,1.6-4.1,1.6c-1.7,0-3.1-0.5-4.2-1.6
		s-1.6-2.7-1.6-4.9c0-2.2,0.6-3.8,1.7-4.9s2.5-1.6,4.1-1.6c0.6,0,1.2,0.1,2,0.3H288.7z M281,49c-1,0-1.9,0.4-2.6,1.2s-1,2-1,3.6
		c0,1.6,0.3,2.8,1,3.6s1.6,1.2,2.6,1.2c1.1,0,2-0.4,2.7-1.2s1-2,1-3.5c0-1.4-0.3-2.5-0.9-3.4S282.3,49,281,49z"/>
	<path class="st14" d="M290.9,60V47.5h1.9v1.8c0.9-1.4,2.2-2.1,4-2.1c1,0,1.9,0.2,2.6,0.7s1.1,1,1.4,1.6s0.3,1.6,0.3,2.8v12.4h-2.1
		V52.4c0-1.2-0.2-2-0.6-2.5s-1.1-0.8-2-0.8c-0.9,0-1.7,0.3-2.3,0.9s-1,1.7-1,3.2V60H290.9z"/>
</g>
</svg>
