<?xml version="1.0" encoding="utf-8"?>
<!-- Generator: Adobe Illustrator 23.1.1, SVG Export Plug-In . SVG Version: 6.00 Build 0)  -->
<svg version="1.1" id="Capa_1" xmlns="http://www.w3.org/2000/svg" xmlns:xlink="http://www.w3.org/1999/xlink" x="0px" y="0px"
	 viewBox="0 0 297.6 74" style="enable-background:new 0 0 297.6 74;" xml:space="preserve">
<style type="text/css">
	.st0{fill:#6C3088;}
	.st1{clip-path:url(#SVGID_2_);fill:#203C89;}
	.st2{clip-path:url(#SVGID_4_);fill:#FFCC04;}
	.st3{clip-path:url(#SVGID_6_);fill:#FFCC04;}
	.st4{clip-path:url(#SVGID_8_);fill:#FFCC04;}
	.st5{clip-path:url(#SVGID_10_);fill:#FFCC04;}
	.st6{clip-path:url(#SVGID_12_);fill:#FFCC04;}
	.st7{clip-path:url(#SVGID_14_);fill:#FFCC04;}
	.st8{clip-path:url(#SVGID_16_);fill:#FFCC04;}
	.st9{clip-path:url(#SVGID_18_);fill:#FFCC04;}
	.st10{clip-path:url(#SVGID_20_);fill:#FFCC04;}
	.st11{clip-path:url(#SVGID_22_);fill:#FFCC04;}
	.st12{clip-path:url(#SVGID_24_);fill:#FFCC04;}
	.st13{clip-path:url(#SVGID_26_);fill:#FFCC04;}
	.st14{fill:#020304;}
</style>
<g>
	<path class="st0" d="M112.7,16.4c1.8,0,3.2,0.5,4.3,1.5c1.1,1,1.6,2.5,1.6,4.4v1.7h-8.4c0,1,0.3,1.8,0.9,2.4
		c0.6,0.6,1.4,0.9,2.4,0.9c0.8,0,1.6-0.1,2.3-0.3c0.7-0.2,1.4-0.4,2.1-0.8V29c-0.7,0.3-1.3,0.6-2,0.7s-1.6,0.2-2.6,0.2
		c-1.3,0-2.5-0.2-3.5-0.7c-1-0.5-1.8-1.2-2.4-2.2c-0.6-1-0.9-2.2-0.9-3.8c0-1.5,0.3-2.8,0.8-3.8c0.5-1,1.2-1.8,2.2-2.3
		C110.3,16.6,111.4,16.4,112.7,16.4z M112.7,18.9c-0.7,0-1.3,0.2-1.7,0.7c-0.4,0.4-0.7,1.1-0.8,2.1h5c0-0.8-0.2-1.4-0.6-2
		C114.1,19.2,113.5,18.9,112.7,18.9z"/>
	<path class="st0" d="M133.5,16.6v13.1h-2.7l-0.5-1.7H130c-0.4,0.7-1,1.2-1.7,1.5c-0.7,0.3-1.5,0.5-2.3,0.5c-1.4,0-2.5-0.4-3.4-1.1
		c-0.8-0.8-1.3-2-1.3-3.7v-8.5h3.6v7.7c0,0.9,0.2,1.7,0.5,2.1c0.3,0.5,0.9,0.7,1.6,0.7c1.1,0,1.8-0.4,2.2-1.1
		c0.4-0.7,0.6-1.8,0.6-3.2v-6.2H133.5z"/>
	<path class="st0" d="M144.5,16.4c0.2,0,0.4,0,0.6,0c0.2,0,0.4,0,0.6,0.1l-0.3,3.4c-0.1,0-0.3-0.1-0.5-0.1c-0.2,0-0.4,0-0.6,0
		c-0.6,0-1.2,0.1-1.8,0.3c-0.6,0.2-1,0.6-1.4,1c-0.3,0.5-0.5,1.1-0.5,2v6.7h-3.6V16.6h2.7l0.5,2.2h0.2c0.4-0.7,0.9-1.2,1.6-1.7
		C142.9,16.6,143.6,16.4,144.5,16.4z"/>
	<path class="st0" d="M159.5,23.1c0,2.2-0.6,3.9-1.7,5c-1.1,1.2-2.7,1.8-4.7,1.8c-1.2,0-2.3-0.3-3.3-0.8c-1-0.5-1.7-1.3-2.2-2.3
		c-0.5-1-0.8-2.3-0.8-3.7c0-2.2,0.6-3.8,1.7-5c1.1-1.2,2.7-1.8,4.7-1.8c1.2,0,2.3,0.3,3.3,0.8c0.9,0.5,1.7,1.3,2.2,2.3
		S159.5,21.7,159.5,23.1z M150.5,23.1c0,1.3,0.2,2.3,0.6,2.9c0.4,0.7,1.1,1,2.1,1c0.9,0,1.6-0.3,2.1-1c0.4-0.7,0.6-1.6,0.6-2.9
		c0-1.3-0.2-2.3-0.6-2.9c-0.4-0.6-1.1-1-2.1-1c-0.9,0-1.6,0.3-2.1,1S150.5,21.8,150.5,23.1z"/>
	<path class="st0" d="M169.8,16.4c1.5,0,2.7,0.6,3.6,1.7c0.9,1.1,1.4,2.8,1.4,5.1c0,2.2-0.5,3.9-1.4,5.1c-0.9,1.2-2.2,1.7-3.6,1.7
		c-0.9,0-1.7-0.2-2.3-0.5c-0.6-0.3-1-0.7-1.4-1.2h-0.2c0.1,0.7,0.2,1.3,0.2,1.9v5.3h-3.6V16.6h2.9l0.5,1.7h0.2
		c0.4-0.5,0.8-1,1.4-1.4C168.1,16.6,168.8,16.4,169.8,16.4z M168.6,19.2c-0.9,0-1.6,0.3-2,0.9s-0.6,1.5-0.6,2.6v0.4
		c0,1.3,0.2,2.2,0.6,2.9c0.4,0.7,1.1,1,2.1,1c0.8,0,1.4-0.3,1.8-1c0.4-0.7,0.6-1.7,0.6-2.9C171.1,20.5,170.2,19.2,168.6,19.2z"/>
	<path class="st0" d="M183,16.3c1.8,0,3.1,0.4,4,1.1c0.9,0.8,1.4,1.9,1.4,3.5v8.7H186l-0.7-1.8h-0.1c-0.6,0.7-1.2,1.2-1.8,1.5
		c-0.6,0.3-1.5,0.5-2.6,0.5c-1.2,0-2.1-0.3-2.9-1c-0.8-0.7-1.2-1.7-1.2-3.1c0-1.4,0.5-2.4,1.5-3.1c1-0.7,2.4-1,4.4-1.1l2.3-0.1V21
		c0-0.7-0.2-1.2-0.5-1.5c-0.4-0.3-0.9-0.5-1.5-0.5s-1.3,0.1-1.9,0.3c-0.6,0.2-1.2,0.4-1.8,0.7l-1.2-2.4c0.7-0.4,1.5-0.6,2.3-0.9
		S182.1,16.3,183,16.3z M184.9,23.6l-1.4,0c-1.2,0-2,0.2-2.4,0.6c-0.4,0.4-0.7,0.9-0.7,1.5c0,0.5,0.2,0.9,0.5,1.2
		c0.3,0.2,0.7,0.3,1.2,0.3c0.8,0,1.4-0.2,1.9-0.7c0.5-0.5,0.8-1.1,0.8-1.9V23.6z"/>
	<path class="st0" d="M201.3,25.8c0,1.3-0.5,2.3-1.4,3.1c-0.9,0.7-2.3,1.1-4.2,1.1c-0.9,0-1.7-0.1-2.4-0.2s-1.3-0.3-2-0.6v-3
		c0.7,0.3,1.5,0.6,2.3,0.8c0.8,0.2,1.5,0.3,2.2,0.3c0.7,0,1.2-0.1,1.5-0.3c0.3-0.2,0.5-0.5,0.5-0.8c0-0.2-0.1-0.4-0.2-0.6
		c-0.1-0.2-0.4-0.4-0.8-0.6c-0.4-0.2-1-0.5-1.9-0.9c-0.8-0.4-1.5-0.7-2-1c-0.5-0.3-0.9-0.8-1.2-1.2c-0.3-0.5-0.4-1.1-0.4-1.8
		c0-1.2,0.5-2.1,1.4-2.7c0.9-0.6,2.2-0.9,3.8-0.9c0.8,0,1.6,0.1,2.3,0.2c0.7,0.2,1.5,0.4,2.3,0.8l-1.1,2.6c-0.6-0.3-1.2-0.5-1.8-0.7
		c-0.6-0.2-1.2-0.3-1.8-0.3c-1.1,0-1.6,0.3-1.6,0.9c0,0.2,0.1,0.4,0.2,0.6c0.1,0.2,0.4,0.3,0.8,0.5c0.4,0.2,1,0.4,1.7,0.8
		c0.8,0.3,1.4,0.6,1.9,0.9c0.5,0.3,1,0.7,1.3,1.2C201.2,24.4,201.3,25.1,201.3,25.8z"/>
	<path class="st0" d="M213.2,25.8c0,1.3-0.5,2.3-1.4,3.1c-0.9,0.7-2.3,1.1-4.2,1.1c-0.9,0-1.7-0.1-2.4-0.2s-1.3-0.3-2-0.6v-3
		c0.7,0.3,1.5,0.6,2.3,0.8c0.8,0.2,1.5,0.3,2.2,0.3c0.7,0,1.2-0.1,1.5-0.3c0.3-0.2,0.5-0.5,0.5-0.8c0-0.2-0.1-0.4-0.2-0.6
		c-0.1-0.2-0.4-0.4-0.8-0.6c-0.4-0.2-1-0.5-1.9-0.9c-0.8-0.4-1.5-0.7-2-1c-0.5-0.3-0.9-0.8-1.2-1.2c-0.3-0.5-0.4-1.1-0.4-1.8
		c0-1.2,0.5-2.1,1.4-2.7c0.9-0.6,2.2-0.9,3.8-0.9c0.8,0,1.6,0.1,2.3,0.2c0.7,0.2,1.5,0.4,2.3,0.8L212,20c-0.6-0.3-1.2-0.5-1.8-0.7
		c-0.6-0.2-1.2-0.3-1.8-0.3c-1.1,0-1.6,0.3-1.6,0.9c0,0.2,0.1,0.4,0.2,0.6c0.1,0.2,0.4,0.3,0.8,0.5c0.4,0.2,1,0.4,1.7,0.8
		c0.8,0.3,1.4,0.6,1.9,0.9c0.5,0.3,1,0.7,1.3,1.2C213.1,24.4,213.2,25.1,213.2,25.8z"/>
</g>
<g>
	<defs>
		<rect id="SVGID_1_" x="23.8" y="12.5" width="69" height="46"/>
	</defs>
	<clipPath id="SVGID_2_">
		<use xlink:href="#SVGID_1_"  style="overflow:visible;"/>
	</clipPath>
	<rect x="18.8" y="7.5" class="st1" width="79" height="56"/>
</g>
<g>
	<defs>
		<polygon id="SVGID_3_" points="58.4,49.1 56.9,48 57.5,49.7 56,50.8 57.9,50.7 58.4,52.5 58.9,50.7 60.7,50.8 59.2,49.7 59.8,48 
					"/>
	</defs>
	<clipPath id="SVGID_4_">
		<use xlink:href="#SVGID_3_"  style="overflow:visible;"/>
	</clipPath>
	<rect x="51" y="43" class="st2" width="14.7" height="14.5"/>
</g>
<g>
	<defs>
		<polygon id="SVGID_5_" points="65.8,47.1 64.4,46 65,47.7 63.5,48.8 65.3,48.7 65.8,50.5 66.4,48.7 68.2,48.8 66.7,47.7 67.3,46 
					"/>
	</defs>
	<clipPath id="SVGID_6_">
		<use xlink:href="#SVGID_5_"  style="overflow:visible;"/>
	</clipPath>
	<rect x="58.5" y="41" class="st3" width="14.7" height="14.5"/>
</g>
<g>
	<defs>
		<polygon id="SVGID_7_" points="71.4,41.6 69.9,40.5 70.5,42.2 69,43.2 70.8,43.2 71.4,44.9 71.9,43.2 73.7,43.2 72.2,42.2 
			72.8,40.5 		"/>
	</defs>
	<clipPath id="SVGID_8_">
		<use xlink:href="#SVGID_7_"  style="overflow:visible;"/>
	</clipPath>
	<rect x="64" y="35.5" class="st4" width="14.7" height="14.5"/>
</g>
<g>
	<defs>
		<polygon id="SVGID_9_" points="73.4,34 71.9,32.9 72.5,34.7 71,35.7 72.9,35.7 73.4,37.4 73.9,35.7 75.7,35.7 74.2,34.7 
			74.8,32.9 		"/>
	</defs>
	<clipPath id="SVGID_10_">
		<use xlink:href="#SVGID_9_"  style="overflow:visible;"/>
	</clipPath>
	<rect x="66" y="27.9" class="st5" width="14.7" height="14.5"/>
</g>
<g>
	<defs>
		<polygon id="SVGID_11_" points="71.4,26.5 69.9,25.4 70.5,27.1 69,28.2 70.8,28.1 71.4,29.9 71.9,28.1 73.7,28.2 72.2,27.1 
			72.8,25.4 		"/>
	</defs>
	<clipPath id="SVGID_12_">
		<use xlink:href="#SVGID_11_"  style="overflow:visible;"/>
	</clipPath>
	<rect x="64" y="20.4" class="st6" width="14.7" height="14.5"/>
</g>
<g>
	<defs>
		<polygon id="SVGID_13_" points="65.8,21 64.4,19.9 65,21.6 63.5,22.6 65.3,22.6 65.8,24.3 66.4,22.6 68.2,22.6 66.7,21.6 
			67.3,19.9 		"/>
	</defs>
	<clipPath id="SVGID_14_">
		<use xlink:href="#SVGID_13_"  style="overflow:visible;"/>
	</clipPath>
	<rect x="58.5" y="14.9" class="st7" width="14.7" height="14.5"/>
</g>
<g>
	<defs>
		<polygon id="SVGID_15_" points="58.4,19.1 56.9,17.9 57.5,19.7 56,20.7 57.9,20.7 58.4,22.4 58.9,20.7 60.7,20.7 59.2,19.7 
			59.8,17.9 		"/>
	</defs>
	<clipPath id="SVGID_16_">
		<use xlink:href="#SVGID_15_"  style="overflow:visible;"/>
	</clipPath>
	<rect x="51" y="12.9" class="st8" width="14.7" height="14.5"/>
</g>
<g>
	<defs>
		<polygon id="SVGID_17_" points="50.8,21 49.3,19.9 49.9,21.6 48.4,22.6 50.2,22.6 50.8,24.3 51.3,22.6 53.1,22.6 51.6,21.6 
			52.2,19.9 		"/>
	</defs>
	<clipPath id="SVGID_18_">
		<use xlink:href="#SVGID_17_"  style="overflow:visible;"/>
	</clipPath>
	<rect x="43.4" y="14.9" class="st9" width="14.7" height="14.5"/>
</g>
<g>
	<defs>
		<polygon id="SVGID_19_" points="45.2,26.5 43.8,25.4 44.4,27.1 42.9,28.2 44.7,28.1 45.2,29.9 45.8,28.1 47.6,28.2 46.1,27.1 
			46.7,25.4 		"/>
	</defs>
	<clipPath id="SVGID_20_">
		<use xlink:href="#SVGID_19_"  style="overflow:visible;"/>
	</clipPath>
	<rect x="37.9" y="20.4" class="st10" width="14.7" height="14.5"/>
</g>
<g>
	<defs>
		<polygon id="SVGID_21_" points="43.3,34.1 41.9,33 42.5,34.7 41,35.8 42.8,35.7 43.3,37.5 43.8,35.7 45.7,35.8 44.2,34.7 44.8,33 
					"/>
	</defs>
	<clipPath id="SVGID_22_">
		<use xlink:href="#SVGID_21_"  style="overflow:visible;"/>
	</clipPath>
	<rect x="36" y="28" class="st11" width="14.7" height="14.5"/>
</g>
<g>
	<defs>
		<polygon id="SVGID_23_" points="45.2,41.6 43.8,40.5 44.4,42.2 42.9,43.2 44.7,43.2 45.2,44.9 45.8,43.2 47.6,43.2 46.1,42.2 
			46.7,40.5 		"/>
	</defs>
	<clipPath id="SVGID_24_">
		<use xlink:href="#SVGID_23_"  style="overflow:visible;"/>
	</clipPath>
	<rect x="37.9" y="35.5" class="st12" width="14.7" height="14.5"/>
</g>
<g>
	<defs>
		<polygon id="SVGID_25_" points="50.8,47.1 49.3,46 49.9,47.7 48.4,48.8 50.2,48.7 50.8,50.5 51.3,48.7 53.1,48.8 51.6,47.7 
			52.2,46 		"/>
	</defs>
	<clipPath id="SVGID_26_">
		<use xlink:href="#SVGID_25_"  style="overflow:visible;"/>
	</clipPath>
	<rect x="43.4" y="41" class="st13" width="14.7" height="14.5"/>
</g>
<g>
	<path class="st14" d="M118.5,39.3h2.3v9.9c0,1.7-0.2,3.1-0.6,4.1s-1.1,1.8-2.1,2.5s-2.4,1-4,1c-1.6,0-2.9-0.3-3.9-0.8
		s-1.8-1.4-2.2-2.4s-0.7-2.5-0.7-4.3v-9.9h2.3v9.9c0,1.5,0.1,2.6,0.4,3.3s0.8,1.3,1.4,1.6s1.5,0.6,2.5,0.6c1.7,0,2.9-0.4,3.6-1.1
		s1.1-2.2,1.1-4.4V39.3z"/>
	<path class="st14" d="M124.3,56.5V44h1.9v1.8c0.9-1.4,2.2-2.1,4-2.1c0.8,0,1.4,0.1,2.1,0.4s1.1,0.6,1.4,1.1s0.5,1,0.7,1.6
		c0.1,0.4,0.1,1.1,0.1,2.1v7.7h-2.1v-7.6c0-0.9-0.1-1.5-0.2-1.9s-0.5-0.8-0.9-1s-0.9-0.4-1.5-0.4c-0.9,0-1.7,0.3-2.3,0.9
		s-1,1.7-1,3.2v6.8H124.3z"/>
	<path class="st14" d="M135,61.3l0.4-1.8c0.4,0.1,0.8,0.2,1,0.2c0.4,0,0.8-0.1,1-0.4s0.3-1,0.3-2.1V44h2.1v13.1
		c0,1.5-0.2,2.6-0.6,3.2c-0.5,0.8-1.4,1.2-2.5,1.2C136,61.5,135.5,61.5,135,61.3z M137.6,41.7v-2.4h2.1v2.4H137.6z"/>
	<path class="st14" d="M142.2,50.3c0-2.3,0.6-4,1.9-5.1c1.1-0.9,2.4-1.4,3.9-1.4c1.7,0,3.1,0.6,4.2,1.7s1.6,2.7,1.6,4.6
		c0,1.6-0.2,2.9-0.7,3.8s-1.2,1.6-2.1,2.1s-1.9,0.8-3,0.8c-1.7,0-3.2-0.6-4.2-1.7S142.2,52.4,142.2,50.3z M144.4,50.3
		c0,1.6,0.3,2.8,1,3.6S147,55,148,55c1,0,1.9-0.4,2.6-1.2s1-2,1-3.6c0-1.5-0.3-2.7-1-3.5s-1.6-1.2-2.6-1.2c-1.1,0-1.9,0.4-2.6,1.2
		S144.4,48.7,144.4,50.3z"/>
	<path class="st14" d="M156.3,56.5V44h1.9v1.8c0.9-1.4,2.2-2.1,4-2.1c0.8,0,1.4,0.1,2.1,0.4s1.1,0.6,1.4,1.1s0.5,1,0.7,1.6
		c0.1,0.4,0.1,1.1,0.1,2.1v7.7h-2.1v-7.6c0-0.9-0.1-1.5-0.2-1.9s-0.5-0.8-0.9-1s-0.9-0.4-1.5-0.4c-0.9,0-1.7,0.3-2.3,0.9
		s-1,1.7-1,3.2v6.8H156.3z"/>
	<path class="st14" d="M169.7,41.7v-2.4h2.1v2.4H169.7z M169.7,56.5V44h2.1v12.4H169.7z"/>
	<path class="st14" d="M182,56.5V39.3h12.4v2h-10.1v5.3h9.5v2h-9.5v5.8h10.5v2H182z"/>
	<path class="st14" d="M200,56.5L196.2,44h2.2l2,7.2l0.7,2.7c0-0.1,0.2-1,0.6-2.6l2-7.3h2.2l1.9,7.2l0.6,2.4l0.7-2.4l2.1-7.2h2.1
		l-3.9,12.4h-2.2l-2-7.5l-0.5-2.1l-2.5,9.6H200z"/>
	<path class="st14" d="M215,56.5V44h1.9v1.9c0.5-0.9,0.9-1.5,1.3-1.7s0.9-0.4,1.4-0.4c0.7,0,1.4,0.2,2.2,0.7l-0.7,2
		c-0.5-0.3-1-0.5-1.5-0.5c-0.5,0-0.9,0.1-1.2,0.4s-0.6,0.7-0.8,1.2c-0.2,0.8-0.4,1.6-0.4,2.5v6.5H215z"/>
	<path class="st14" d="M222.2,50.3c0-2.3,0.6-4,1.9-5.1c1.1-0.9,2.4-1.4,3.9-1.4c1.7,0,3.1,0.6,4.2,1.7s1.6,2.7,1.6,4.6
		c0,1.6-0.2,2.9-0.7,3.8s-1.2,1.6-2.1,2.1s-1.9,0.8-3,0.8c-1.7,0-3.2-0.6-4.2-1.7S222.2,52.4,222.2,50.3z M224.4,50.3
		c0,1.6,0.3,2.8,1,3.6s1.6,1.2,2.6,1.2c1,0,1.9-0.4,2.6-1.2s1-2,1-3.6c0-1.5-0.3-2.7-1-3.5s-1.6-1.2-2.6-1.2c-1.1,0-1.9,0.4-2.6,1.2
		S224.4,48.7,224.4,50.3z"/>
	<path class="st14" d="M236.3,61.2V44h1.9v1.6c0.5-0.6,1-1.1,1.5-1.4s1.3-0.5,2.1-0.5c1.1,0,2,0.3,2.8,0.8s1.4,1.3,1.8,2.3
		s0.6,2.1,0.6,3.3c0,1.3-0.2,2.4-0.7,3.4s-1.1,1.8-2,2.3s-1.8,0.8-2.7,0.8c-0.7,0-1.3-0.1-1.9-0.4s-1-0.7-1.4-1.1v6.1H236.3z
		 M238.3,50.3c0,1.6,0.3,2.8,1,3.6s1.4,1.1,2.4,1.1c0.9,0,1.7-0.4,2.4-1.2s1-2,1-3.7c0-1.6-0.3-2.8-1-3.6s-1.4-1.2-2.3-1.2
		c-0.9,0-1.7,0.4-2.4,1.3S238.3,48.7,238.3,50.3z"/>
	<path class="st14" d="M258.2,52.5l2.2,0.3c-0.3,1.3-1,2.3-1.9,3s-2.1,1.1-3.6,1.1c-1.8,0-3.3-0.6-4.3-1.7s-1.6-2.7-1.6-4.7
		c0-2.1,0.5-3.7,1.6-4.9s2.5-1.7,4.2-1.7c1.7,0,3,0.6,4.1,1.7s1.6,2.7,1.6,4.8c0,0.1,0,0.3,0,0.6h-9.3c0.1,1.4,0.5,2.4,1.2,3.1
		s1.6,1.1,2.6,1.1c0.8,0,1.4-0.2,2-0.6S257.9,53.4,258.2,52.5z M251.3,49.1h6.9c-0.1-1-0.4-1.8-0.8-2.4c-0.7-0.8-1.5-1.2-2.6-1.2
		c-1,0-1.8,0.3-2.4,1S251.4,48,251.3,49.1z"/>
	<path class="st14" d="M271.2,54.9c-0.8,0.7-1.5,1.1-2.3,1.4s-1.5,0.4-2.3,0.4c-1.4,0-2.4-0.3-3.2-1s-1.1-1.5-1.1-2.6
		c0-0.6,0.1-1.2,0.4-1.7s0.6-0.9,1.1-1.2s1-0.5,1.5-0.7c0.4-0.1,1-0.2,1.9-0.3c1.7-0.2,3-0.4,3.8-0.7c0-0.3,0-0.5,0-0.6
		c0-0.9-0.2-1.5-0.6-1.8c-0.5-0.5-1.3-0.7-2.4-0.7c-1,0-1.7,0.2-2.2,0.5s-0.8,1-1,1.8l-2.1-0.3c0.2-0.9,0.5-1.6,0.9-2.1
		s1.1-1,1.9-1.3s1.8-0.4,2.8-0.4c1.1,0,1.9,0.1,2.6,0.4s1.2,0.6,1.5,0.9s0.5,0.9,0.7,1.4c0.1,0.4,0.1,1,0.1,1.9v2.8
		c0,2,0,3.2,0.1,3.7s0.3,1,0.5,1.5h-2.2C271.4,56,271.2,55.5,271.2,54.9z M271,50.2c-0.8,0.3-1.9,0.6-3.4,0.8
		c-0.9,0.1-1.5,0.3-1.8,0.4s-0.6,0.4-0.8,0.7s-0.3,0.6-0.3,1c0,0.6,0.2,1,0.6,1.4s1,0.6,1.9,0.6c0.8,0,1.5-0.2,2.2-0.5
		s1.1-0.8,1.4-1.5c0.2-0.5,0.3-1.2,0.3-2.1V50.2z"/>
</g>
</svg>
