<svg width="26" height="26" viewBox="0 0 26 26" xmlns="http://www.w3.org/2000/svg">
    <path d="m.63 7.517 11.83 5.366a1.3 1.3 0 0 0 1.08 0l11.83-5.366c.84-.381.84-1.651 0-2.033L13.54.118a1.3 1.3 0 0 0-1.08 0L.63 5.484c-.84.381-.84 1.652 0 2.033zM25.37 12l-2.95-1.337-8.208 3.72a2.914 2.914 0 0 1-2.424 0l-8.207-3.72L.63 12c-.841.38-.841 1.65 0 2.031l11.828 5.362c.345.156.736.156 1.081 0l11.83-5.362c.84-.38.84-1.65 0-2.031zm0 6.49-2.939-1.332-8.22 3.725a2.914 2.914 0 0 1-2.423 0L3.57 17.158.63 18.49c-.84.38-.84 1.65 0 2.03l11.83 5.363c.344.156.735.156 1.08 0l11.83-5.362c.84-.381.84-1.65 0-2.031z" fill="#164194" fill-rule="nonzero"/>
</svg>
