<svg width="26" height="25" xmlns="http://www.w3.org/2000/svg">
    <g fill="#164194" fill-rule="nonzero">
        <path d="M24.553 17.632c-.492-.428-1.258-.4-1.775 0l-3.85 2.96a2.72 2.72 0 0 1-1.666.562h-4.93a.656.656 0 0 1-.666-.641c0-.353.3-.641.667-.641h3.262c.662 0 1.28-.437 1.387-1.066.138-.801-.504-1.498-1.316-1.498H9a5.027 5.027 0 0 0-3.088 1.053l-1.937 1.51H1.667a.656.656 0 0 0-.667.642v3.846c0 .353.3.641.667.641h14.865c.605 0 1.192-.196 1.667-.56l6.3-4.849a1.25 1.25 0 0 0 .054-1.959zM22.488 9.951l-2.731-.4-1.22-2.486a.597.597 0 0 0-1.073 0l-1.221 2.486-2.73.4a.602.602 0 0 0-.332 1.026l1.976 1.934-.467 2.732a.598.598 0 0 0 .867.633L18 14.986l2.443 1.29a.599.599 0 0 0 .867-.633l-.467-2.732 1.976-1.934a.602.602 0 0 0-.331-1.026zm-2.608 2.644.443 2.6L18 13.967l-2.323 1.226.443-2.599-1.88-1.84 2.597-.38L18 8.01l1.163 2.366 2.598.38-1.88 1.84zM16.708 5.513l-2.224-1.635.09-2.768a.597.597 0 0 0-.948-.504l-2.244 1.622-2.6-.929a.602.602 0 0 0-.773.75l.837 2.636L7.15 6.878a.598.598 0 0 0 .469.966l2.763.007 1.551 2.286a.599.599 0 0 0 1.063-.151l.87-2.632 2.652-.78a.602.602 0 0 0 .19-1.06zm-3.544 1.11-.829 2.503-1.476-2.173-2.627-.008 1.612-2.087-.797-2.508 2.472.885 2.138-1.543-.085 2.635 2.116 1.555-2.524.742z"/>
        <path d="m13.54 11.552-2.459-.36-1.098-2.237a.538.538 0 0 0-.966 0L7.92 11.192l-2.458.36a.542.542 0 0 0-.298.923l1.778 1.74-.42 2.46a.539.539 0 0 0 .78.57L9.5 16.082l2.199 1.161a.539.539 0 0 0 .78-.57l-.42-2.458 1.778-1.74a.542.542 0 0 0-.298-.924zm-2.348 2.38.399 2.339L9.5 15.167l-2.091 1.104.399-2.34-1.693-1.655 2.339-.342L9.5 9.804l1.046 2.13 2.339.342-1.693 1.656z"/>
    </g>
</svg>
