<svg width="21" height="21" viewBox="0 0 21 21" xmlns="http://www.w3.org/2000/svg">
    <path d="M7 11.5c-.075 0-.15.01-.22.034-.406.132-.831.216-1.28.216-.448 0-.874-.084-1.28-.216A.713.713 0 0 0 4 11.5a3.5 3.5 0 0 0-3.5 3.52c.004.82.68 1.48 1.5 1.48h7c.821 0 1.496-.66 1.5-1.48A3.5 3.5 0 0 0 7 11.5zm-1.5-1a3 3 0 1 0 0-6 3 3 0 0 0 0 6zM19 .5H7c-.827 0-1.5.695-1.5 1.55V3.5c.732 0 1.41.212 2 .556V2.5h11v9h-2v-2h-4v2h-2.382a3.983 3.983 0 0 1 1.24 2H19c.827 0 1.5-.695 1.5-1.55v-9.9c0-.855-.673-1.55-1.5-1.55z" fill="#164194" fill-rule="nonzero"/>
</svg>
