<svg width="20" height="20" viewBox="0 0 20 20" xmlns="http://www.w3.org/2000/svg">
    <path d="M10 0C4.477 0 0 4.477 0 10s4.477 10 10 10 10-4.477 10-10S15.523 0 10 0zm0 1.935A8.06 8.06 0 0 1 18.065 10 8.06 8.06 0 0 1 10 18.065 8.06 8.06 0 0 1 1.935 10 8.06 8.06 0 0 1 10 1.935m5.653 5.253-.908-.916a.484.484 0 0 0-.685-.003l-5.7 5.654-2.41-2.43a.484.484 0 0 0-.685-.003l-.916.909a.484.484 0 0 0-.002.684l3.66 3.69c.188.19.495.191.684.003l6.96-6.904a.484.484 0 0 0 .002-.684z" fill="#164194" fill-rule="nonzero"/>
</svg>
