<svg width="27" height="26" xmlns="http://www.w3.org/2000/svg">
    <g fill="#164194" fill-rule="nonzero">
        <path d="M12.991 7.884A2.339 2.339 0 0 0 15.33 5.55a2.339 2.339 0 0 0-4.675 0 2.339 2.339 0 0 0 2.337 2.334zm0-3.145c.448 0 .813.364.813.81a.813.813 0 0 1-1.625 0c0-.446.365-.81.812-.81z"/>
        <path d="M26.034 10.29V5.99L13.017 0 0 5.991v4.299h2.57v7.69H1.22v2.907H0v5.066h26.034v-5.066h-.661V17.98h-1.96v-7.69h2.62zM1.525 8.766v-1.8l11.492-5.289 11.491 5.29v1.799H1.525zm8.989 9.214H7.525v-7.69h2.989v7.69zm1.525-7.69h1.905v7.69h-1.905v-7.69zm3.43 0h2.988v7.69H15.47v-7.69zm-11.374 0H6v7.69H4.095v-7.69zm20.413 14.14H1.525v-2.02h22.983v2.02zm-.66-4.926v1.383H2.745v-1.383h21.101zm-1.96-1.524h-1.905v-7.69h1.905v7.69z"/>
    </g>
</svg>
