<svg width="27" height="26" xmlns="http://www.w3.org/2000/svg">
    <g fill="#164194" fill-rule="nonzero">
        <path d="M22.221 3.808A12.94 12.94 0 0 0 13.017 0a12.94 12.94 0 0 0-9.204 3.808A12.907 12.907 0 0 0 0 13c0 3.472 1.354 6.737 3.813 9.192A12.94 12.94 0 0 0 13.017 26a12.94 12.94 0 0 0 9.204-3.808A12.907 12.907 0 0 0 26.034 13c0-3.472-1.354-6.737-3.813-9.192zm-9.204 20.677c-6.341 0-11.5-5.152-11.5-11.485 0-6.333 5.159-11.485 11.5-11.485s11.5 5.152 11.5 11.485c0 6.333-5.159 11.485-11.5 11.485z"/>
        <path d="M13.965 12.053V4.417h-1.896v9.53h9.541v-1.894zM12.069 19.689h1.896v1.893h-1.896zM16.492 20.907l-.947-1.64 1.641-.947.948 1.64zM19.986 18.112l-1.642-.947.948-1.64 1.642.947zM8.847 7.68l-.948-1.64 1.642-.946.947 1.64zM6.742 10.475 5.101 9.53l.948-1.64 1.641.947zM4.423 12.053h1.896v1.893H4.423zM6.048 18.111l-.948-1.64 1.642-.946.948 1.64zM9.541 20.907 7.9 19.96l.947-1.64 1.642.947z"/>
    </g>
</svg>
