<svg width="25" height="24" xmlns="http://www.w3.org/2000/svg">
    <path d="m13.35 13.5 7.263 7.408a.727.727 0 0 0 1.02.032 11.302 11.302 0 0 0 3.36-6.603.746.746 0 0 0-.738-.837H13.35zm10.178-3.038c-.38-5.6-4.766-10.074-10.256-10.46-.419-.03-.772.33-.772.76V11.25h10.284c.42 0 .773-.36.744-.788zM10.294 13.5V2.377c0-.448-.385-.816-.82-.753-5.476.79-9.662 5.67-9.467 11.518.2 6.007 5.27 10.933 11.162 10.857a10.8 10.8 0 0 0 6.216-2.064c.363-.262.387-.807.072-1.129L10.294 13.5z" fill="#164194" fill-rule="nonzero"/>
</svg>
