<svg width="26" height="26" viewBox="0 0 26 26" xmlns="http://www.w3.org/2000/svg">
    <path d="M6.18 7.696c-.143-.492-.318-1.35-.318-1.35h-.02s-.175.858-.317 1.35l-.45 1.523h1.547l-.443-1.523zM25.024 2H13.65v13h11.375c.54 0 .975-.435.975-.975V2.975A.973.973 0 0 0 25.025 2zm-.975 4.875c0 .268-.22.487-.488.487H23.1c-.28.96-.881 1.926-1.734 2.84.34.26.694.508 1.06.731a.489.489 0 0 1 .167.659l-.321.564a.489.489 0 0 1-.679.175 14.135 14.135 0 0 1-1.438-1.012c-.443.354-.922.695-1.438 1.012a.489.489 0 0 1-.678-.175l-.321-.564a.487.487 0 0 1 .17-.659 11.59 11.59 0 0 0 1.06-.73 9.427 9.427 0 0 1-.853-1.045.486.486 0 0 1 .15-.695l.265-.158.296-.175c.22-.13.504-.069.65.138.203.285.44.57.707.85.549-.577.967-1.175 1.219-1.756h-4.643a.489.489 0 0 1-.488-.487v-.65c0-.268.22-.487.488-.487h2.6v-.65c0-.269.219-.488.487-.488h.65c.268 0 .487.22.487.488v.65h2.6c.269 0 .488.219.488.487v.65zM0 2.975v11.05c0 .54.435.975.975.975H12.35V2H.975A.973.973 0 0 0 0 2.975zm2.393 8.78 2.336-6.87c.069-.2.252-.33.463-.33h1.32c.207 0 .394.134.463.33l2.336 6.87a.489.489 0 0 1-.463.645h-.93a.487.487 0 0 1-.467-.35l-.382-1.295H4.623l-.37 1.292a.491.491 0 0 1-.467.353h-.93a.49.49 0 0 1-.463-.646z" fill="#164194" fill-rule="nonzero"/>
</svg>
