<svg width="21" height="21" viewBox="0 0 21 21" xmlns="http://www.w3.org/2000/svg">
    <path d="M12.958 2.094h.136a.402.402 0 0 0 .406-.399V.898A.402.402 0 0 0 13.094.5H.906A.402.402 0 0 0 .5.898v.797c0 .22.182.399.406.399h.136c0 2.675 1.09 5.505 3.29 6.906-2.21 1.407-3.29 4.247-3.29 6.906H.906a.402.402 0 0 0-.406.399v.797c0 .22.182.398.406.398h12.188a.402.402 0 0 0 .406-.398v-.797a.402.402 0 0 0-.406-.399h-.136c0-2.675-1.09-5.505-3.29-6.906 2.21-1.407 3.29-4.247 3.29-6.906zm-10.291 0h8.666c0 3.374-1.94 6.11-4.333 6.11-2.393 0-4.333-2.736-4.333-6.11zm8.666 13.812H2.667c0-3.374 1.94-6.11 4.333-6.11 2.393 0 4.333 2.736 4.333 6.11z" fill="#164194" fill-rule="nonzero"/>
</svg>
