<svg width="26" height="26" xmlns="http://www.w3.org/2000/svg">
    <path d="M23.715 1.523h-.762V.762a.762.762 0 0 0-1.523 0v.761h-3.098V.762a.762.762 0 0 0-1.523 0v.761h-3.047V.762a.762.762 0 0 0-1.524 0v.761H9.191V.762a.762.762 0 0 0-1.523 0v.761H4.57V.762a.762.762 0 0 0-1.523 0v.761h-.762A2.288 2.288 0 0 0 0 3.81v21.43c0 .42.341.761.762.761h24.476c.421 0 .762-.341.762-.762V3.808a2.288 2.288 0 0 0-2.285-2.285zm.762 22.954H1.523V7.617h22.954v16.86zm0-18.383H1.523V3.809c0-.42.342-.762.762-.762h.762v.762a.762.762 0 0 0 1.523 0v-.762h3.098v.762a.762.762 0 0 0 1.523 0v-.762h3.047v.762a.762.762 0 0 0 1.524 0v-.762h3.047v.762a.762.762 0 0 0 1.523 0v-.762h3.098v.762a.762.762 0 0 0 1.523 0v-.762h.762c.42 0 .762.342.762.762v2.285z" fill="#164194" fill-rule="nonzero"/>
</svg>
