<svg width="29" height="24" xmlns="http://www.w3.org/2000/svg">
    <g fill="#164194" fill-rule="nonzero">
        <path d="M29 0H0v20.45h17.84V24l3.171-1.503L24.181 24v-3.55H29V0zm-7.989 17.152c-1.593 0-2.889-1.257-2.889-2.802 0-1.545 1.296-2.802 2.889-2.802 1.593 0 2.889 1.257 2.889 2.802 0 1.545-1.296 2.802-2.889 2.802zm0 3.51-1.472.698v-2.795a4.69 4.69 0 0 0 2.944 0v2.795l-1.472-.697zm6.29-1.86h-3.12v-1.24A4.376 4.376 0 0 0 25.6 14.35c0-2.454-2.058-4.451-4.588-4.451-2.53 0-4.588 1.997-4.588 4.451 0 1.262.545 2.402 1.417 3.212v1.24H1.7V1.65h25.6v17.153z"/>
        <path d="M3.394 4.509h22.204v1.648H3.394zM3.4 14.58h8.266v1.648H3.4z"/>
    </g>
</svg>
