<svg width="26" height="21" xmlns="http://www.w3.org/2000/svg">
    <path d="M8.45 14.438a.921.921 0 0 0-.287.044 5.313 5.313 0 0 1-1.663.284c-.583 0-1.137-.111-1.663-.284a.919.919 0 0 0-.287-.044c-2.521 0-4.563 2.07-4.55 4.619A1.954 1.954 0 0 0 1.95 21h9.1A1.954 1.954 0 0 0 13 19.057c.013-2.549-2.029-4.62-4.55-4.62zM6.5 13.124c2.154 0 3.9-1.763 3.9-3.938 0-2.174-1.746-3.937-3.9-3.937S2.6 7.013 2.6 9.188c0 2.174 1.746 3.937 3.9 3.937zM24.05 0H8.45C7.375 0 6.5.913 6.5 2.034v1.904c.952 0 1.832.278 2.6.73V2.625h14.3v11.813h-2.6v-2.626h-5.2v2.626h-3.097a5.235 5.235 0 0 1 1.612 2.624h9.935c1.075 0 1.95-.912 1.95-2.033V2.034C26 .913 25.125 0 24.05 0z" fill="#164194" fill-rule="nonzero"/>
</svg>
