<svg width="21" height="21" viewBox="0 0 21 21" xmlns="http://www.w3.org/2000/svg">
    <path d="M16.813 16.5H2.188C1.256 16.5.5 15.732.5 14.786V2.214C.5 1.268 1.256.5 2.188.5h14.624c.932 0 1.688.768 1.688 1.714v12.572c0 .947-.756 1.714-1.688 1.714zM5 3.643c-.777 0-1.406.64-1.406 1.428 0 .79.63 1.429 1.406 1.429.777 0 1.406-.64 1.406-1.429S5.776 3.643 5 3.643zM5 7.07c-.777 0-1.406.64-1.406 1.429S4.224 9.929 5 9.929c.777 0 1.406-.64 1.406-1.429S5.776 7.071 5 7.071zM5 10.5c-.777 0-1.406.64-1.406 1.429s.63 1.428 1.406 1.428c.777 0 1.406-.64 1.406-1.428 0-.79-.63-1.429-1.406-1.429zm10.125-4.857V4.5a.425.425 0 0 0-.422-.429H7.672a.425.425 0 0 0-.422.429v1.143c0 .237.189.428.422.428h7.031a.425.425 0 0 0 .422-.428zm0 3.428V7.93a.425.425 0 0 0-.422-.429H7.672a.425.425 0 0 0-.422.429V9.07c0 .237.189.429.422.429h7.031a.425.425 0 0 0 .422-.429zm0 3.429v-1.143a.425.425 0 0 0-.422-.428H7.672a.425.425 0 0 0-.422.428V12.5c0 .237.189.429.422.429h7.031a.425.425 0 0 0 .422-.429z" fill="#164194" fill-rule="nonzero"/>
</svg>
