<svg width="20" height="20" viewBox="0 0 20 20" xmlns="http://www.w3.org/2000/svg">
    <path d="m19.817 3.308-1.692-1.692a1.25 1.25 0 0 0-.884-.366H11.25V.625A.625.625 0 0 0 10.625 0h-1.25a.625.625 0 0 0-.625.625v.625H2.187a.938.938 0 0 0-.937.938v3.124c0 .518.42.938.937.938h15.054c.332 0 .65-.132.884-.366l1.692-1.692a.625.625 0 0 0 0-.884zM8.75 19.375c0 .345.28.625.625.625h1.25c.345 0 .625-.28.625-.625V15h-2.5v4.375zM17.813 8.75H11.25V7.5h-2.5v1.25H2.759c-.332 0-.65.132-.884.366L.183 10.808a.625.625 0 0 0 0 .884l1.692 1.692c.234.234.552.366.884.366h15.054c.517 0 .937-.42.937-.938V9.688a.938.938 0 0 0-.937-.938z" fill="#164194" fill-rule="nonzero"/>
</svg>
