<svg width="18" height="16" viewBox="0 0 18 16" xmlns="http://www.w3.org/2000/svg">
    <path d="M9 0v3.556h9V16H0V0h9zM3.6 12.444H1.8v1.778h1.8v-1.778zm3.6 0H5.4v1.778h1.8v-1.778zm7.2-1.777h-1.8v1.777h1.8v-1.777zm-2.6 0H10v1.777h1.8v-1.777zM3.6 8.889H1.8v1.778h1.8V8.889zm3.6 0H5.4v1.778h1.8V8.889zm7.2-1.778h-1.8V8.89h1.8V7.11zm-2.6 0H10V8.89h1.8V7.11zM3.6 5.333H1.8v1.778h1.8V5.333zm3.6 0H5.4v1.778h1.8V5.333zM3.6 1.778H1.8v1.778h1.8V1.778zm3.6 0H5.4v1.778h1.8V1.778z" fill="#214493" fill-rule="nonzero"/>
</svg>
