<?xml version="1.0" encoding="UTF-8"?>
<svg width="27px" height="34px" viewBox="0 0 27 34" version="1.1" xmlns="http://www.w3.org/2000/svg" xmlns:xlink="http://www.w3.org/1999/xlink">
    <title>Combined Shape</title>
    <g id="Page-1" stroke="none" stroke-width="1" fill="none" fill-rule="evenodd">
        <g id="5.H.-Edit---Updated-navigation" transform="translate(-173.000000, -584.000000)" fill="#214493">
            <path d="M176.385611,606.666667 C177.211702,607.722786 178.467361,608.448868 179.888238,608.547879 L179.888238,608.547879 L181.309115,608.64689 C181.507377,608.64689 181.705639,608.745901 181.870857,608.877916 L181.870857,608.877916 L182.89521,609.802021 C183.324778,610.165062 183.754345,610.429091 184.25,610.627114 L184.25,610.627114 L181.044766,617.458885 C180.714329,618.151963 179.789107,618.184967 179.425627,617.524892 L179.425627,617.524892 L177.971706,614.884594 C177.773444,614.521553 177.409964,614.356535 177.01344,614.422542 L177.01344,614.422542 L174.072555,614.983606 C173.345595,615.11562 172.783853,614.356535 173.081246,613.69646 L173.081246,613.69646 Z M196.605903,606.666667 L199.906703,613.732447 C200.236783,614.3959 199.642639,615.125699 198.883455,614.993009 L198.883455,614.993009 L195.945743,614.429073 C195.549647,614.362728 195.186559,614.561764 194.988511,614.893491 L194.988511,614.893491 L193.536159,617.547305 C193.206079,618.177586 192.248848,618.144413 191.951776,617.480959 L191.951776,617.480959 L188.75,610.614215 C189.24512,610.415179 189.707232,610.116625 190.103328,609.784898 L190.103328,609.784898 L191.159584,608.889236 C191.324624,608.756545 191.522672,608.6902 191.72072,608.657027 L191.72072,608.657027 L193.107055,608.557509 C194.526399,608.424819 195.780703,607.728192 196.605903,606.666667 L196.605903,606.666667 Z M184.573801,584.730912 C185.669742,583.756363 187.330258,583.756363 188.426199,584.730912 L188.426199,584.730912 L189.48893,585.671856 C189.953875,586.075117 190.551661,586.343958 191.182657,586.377564 L191.182657,586.377564 L192.577491,586.478379 C194.038745,586.579194 195.201107,587.755374 195.300738,589.234 L195.300738,589.234 L195.400369,590.645416 C195.433579,591.283914 195.699262,591.888807 196.097786,592.359278 L196.097786,592.359278 L197.027675,593.434643 C197.990775,594.543613 197.990775,596.22387 197.027675,597.332839 L197.027675,597.332839 L196.097786,598.408204 C195.699262,598.878676 195.433579,599.483568 195.400369,600.122066 L195.400369,600.122066 L195.300738,601.533482 C195.201107,603.012108 194.038745,604.188288 192.577491,604.289103 L192.577491,604.289103 L191.182657,604.389918 C190.551661,604.423524 189.953875,604.692365 189.48893,605.095626 L189.48893,605.095626 L188.426199,605.935755 C187.330258,606.910304 185.669742,606.910304 184.573801,605.935755 L184.573801,605.935755 L183.51107,604.994811 C183.046125,604.591549 182.448339,604.322708 181.817343,604.289103 L181.817343,604.289103 L180.422509,604.188288 C178.961255,604.087472 177.798893,602.911292 177.699262,601.432666 L177.699262,601.432666 L177.599631,600.02125 C177.566421,599.382753 177.300738,598.77786 176.902214,598.307388 L176.902214,598.307388 L175.972325,597.232024 C175.009225,596.123054 175.009225,594.442797 175.972325,593.333828 L175.972325,593.333828 L176.902214,592.258463 C177.300738,591.787991 177.566421,591.183099 177.599631,590.544601 L177.599631,590.544601 L177.699262,589.133185 C177.798893,587.654559 178.961255,586.478379 180.422509,586.377564 L180.422509,586.377564 L181.817343,586.276748 C182.448339,586.243143 183.046125,585.974302 183.51107,585.57104 L183.51107,585.57104 Z M186.5,589.03237 C183.046125,589.03237 180.256458,591.855201 180.256458,595.350136 C180.256458,598.811465 183.046125,601.667902 186.5,601.667902 C189.953875,601.667902 192.743542,598.84507 192.743542,595.350136 C192.743542,591.855201 189.953875,589.03237 186.5,589.03237 Z M188.914634,593.172366 C189.060976,593.031434 189.353659,593.031434 189.5,593.172366 L189.5,593.172366 L190.890244,594.511226 C191.036585,594.652159 191.036585,594.934024 190.890244,595.074957 L190.890244,595.074957 L186.02439,599.760967 C185.878049,599.9019 185.585366,599.9019 185.439024,599.760967 L185.439024,599.760967 L182.109756,596.55475 C181.963415,596.413817 181.963415,596.131952 182.109756,595.991019 L182.109756,595.991019 L183.463415,594.687392 C183.609756,594.546459 183.902439,594.546459 184.04878,594.687392 L184.04878,594.687392 L185.695122,596.272884 Z" id="Combined-Shape"></path>
        </g>
    </g>
</svg>