<?xml version="1.0" encoding="UTF-8"?>
<svg width="21px" height="34px" viewBox="0 0 21 34" version="1.1" xmlns="http://www.w3.org/2000/svg" xmlns:xlink="http://www.w3.org/1999/xlink">
    <title>walking-solid</title>
    <g id="Page-1" stroke="none" stroke-width="1" fill="none" fill-rule="evenodd">
        <g id="5.H.-Edit---Updated-navigation" transform="translate(-174.000000, -632.000000)" fill="#214493" fill-rule="nonzero">
            <g id="walking-solid" transform="translate(174.000000, 632.000000)">
                <path d="M13.6460543,6.3740663 C15.3848231,6.3740663 16.7955223,4.94654103 16.7955223,3.18703315 C16.7955223,1.42752526 15.3848231,0 13.6460543,0 C11.9072855,0 10.4965863,1.42752526 10.4965863,3.18703315 C10.4965863,4.94654103 11.9072855,6.3740663 13.6460543,6.3740663 Z M19.8465694,16.273788 L18.3177651,15.490309 L17.6813101,13.5382512 C16.7167856,10.5769663 14.026615,8.50539472 10.9755679,8.49870668 C8.61346689,8.49211541 7.30774995,9.16935996 4.85378947,10.1719475 C3.43652888,10.7495972 2.27516255,11.8451399 1.59277782,13.2394669 L1.15316458,14.1424596 C0.641376034,15.1915247 1.05474371,16.4663379 2.0848822,16.9908705 C3.10845929,17.515403 4.35512371,17.0904653 4.87347365,16.0414002 L5.31308689,15.1384075 C5.5427356,14.6736318 5.92329631,14.3084509 6.39571651,14.115901 L8.15416947,13.3988185 L7.15683794,17.4290875 C6.81564558,18.8101352 7.18308351,20.2774984 8.1344853,21.3332031 L12.0647589,25.6755358 C12.5371791,26.2000683 12.8718101,26.8308353 13.0424063,27.5147195 L14.2431409,32.3815847 C14.5252808,33.5169653 15.6669629,34.2141288 16.7889609,33.9286237 C17.9109589,33.6431187 18.599905,32.4878192 18.3177651,31.3524386 L16.8611362,25.443148 C16.69054,24.7592638 16.355909,24.1218571 15.8834888,23.6039643 L12.8980556,20.304057 L14.026615,15.7426158 L14.3874915,16.8381585 C14.7352453,17.9071425 15.4832439,18.7902163 16.4674527,19.2948299 L17.9962569,20.0783088 C19.019834,20.6028414 20.2664985,20.1779036 20.7848484,19.1288385 C21.2900756,18.0864131 20.8767079,16.7983206 19.8465694,16.273788 L19.8465694,16.273788 Z M4.82754391,25.6157789 C4.61757937,26.1535908 4.30263257,26.6382854 3.89582629,27.0433042 L0.615130467,30.3697701 C-0.205043489,31.1997266 -0.205043489,32.547576 0.615130467,33.3775326 C1.43530442,34.2074891 2.76070554,34.2074891 3.58087949,33.3775326 L7.47834613,29.4335791 C7.87859102,29.0285603 8.19353782,28.5438656 8.41006375,28.0060538 L9.29585162,25.7618513 C5.66740204,21.7581409 6.75659305,22.9864766 6.18575198,22.196358 L4.82754391,25.6157789 L4.82754391,25.6157789 Z" id="Shape"></path>
            </g>
        </g>
    </g>
</svg>