<?xml version="1.0" encoding="UTF-8"?>
<svg width="34px" height="34px" viewBox="0 0 34 34" version="1.1" xmlns="http://www.w3.org/2000/svg" xmlns:xlink="http://www.w3.org/1999/xlink">
    <title>user-circle-solid</title>
    <g id="Page-1" stroke="none" stroke-width="1" fill="none" fill-rule="evenodd">
        <g id="5.H.-Edit---Updated-navigation" transform="translate(-170.000000, -536.000000)" fill="#214493" fill-rule="nonzero">
            <g id="user-circle-solid" transform="translate(170.000000, 536.000000)">
                <path d="M17,0 C7.60887097,0 0,7.60887097 0,17 C0,26.391129 7.60887097,34 17,34 C26.391129,34 34,26.391129 34,17 C34,7.60887097 26.391129,0 17,0 Z M17,6.58064516 C20.3314516,6.58064516 23.0322581,9.28145161 23.0322581,12.6129032 C23.0322581,15.9443548 20.3314516,18.6451613 17,18.6451613 C13.6685484,18.6451613 10.9677419,15.9443548 10.9677419,12.6129032 C10.9677419,9.28145161 13.6685484,6.58064516 17,6.58064516 Z M17,30.1612903 C12.9762097,30.1612903 9.37056452,28.3379032 6.95766129,25.4862903 C8.24637097,23.0596774 10.7689516,21.3870968 13.7096774,21.3870968 C13.8741935,21.3870968 14.0387097,21.4145161 14.196371,21.4625 C15.0875,21.7504032 16.0197581,21.9354839 17,21.9354839 C17.9802419,21.9354839 18.9193548,21.7504032 19.803629,21.4625 C19.9612903,21.4145161 20.1258065,21.3870968 20.2903226,21.3870968 C23.2310484,21.3870968 25.753629,23.0596774 27.0423387,25.4862903 C24.6294355,28.3379032 21.0237903,30.1612903 17,30.1612903 Z" id="Shape"></path>
            </g>
        </g>
    </g>
</svg>