<?xml version="1.0" encoding="UTF-8"?>
<svg width="42px" height="34px" viewBox="0 0 42 34" version="1.1" xmlns="http://www.w3.org/2000/svg" xmlns:xlink="http://www.w3.org/1999/xlink">
    <title>door-open-solid</title>
    <g id="Page-1" stroke="none" stroke-width="1" fill="none" fill-rule="evenodd">
        <g id="5.H.-Edit---Updated-navigation" transform="translate(-162.000000, -680.000000)" fill="#214493" fill-rule="nonzero">
            <g id="door-open-solid" transform="translate(162.000000, 680.000000)">
                <path d="M40.95,29.7499919 L35.7,29.7499919 L35.7,7.53373871 C35.7,5.72350089 34.2870938,4.2499434 32.55,4.2499434 L25.2,4.2499434 L25.2,8.49995149 L31.5,8.49995149 L31.5,34 L40.95,34 C41.530125,34 42,33.5245303 42,32.937498 L42,30.8124939 C42,30.2254616 41.530125,29.7499919 40.95,29.7499919 Z M20.49075,0.0670057537 L7.89075,3.37005891 C6.95559375,3.61509844 6.3,4.49564699 6.3,5.50635204 L6.3,29.7499919 L1.05,29.7499919 C0.469875,29.7499919 0,30.2254616 0,30.8124939 L0,32.937498 C0,33.5245303 0.469875,34 1.05,34 L23.1,34 L23.1,2.20329888 C23.1,0.770249279 21.816375,-0.280963658 20.49075,0.0670057537 Z M17.325,19.1249717 C16.4554687,19.1249717 15.75,18.1733683 15.75,16.9999677 C15.75,15.826567 16.4554687,14.8749636 17.325,14.8749636 C18.1945312,14.8749636 18.9,15.826567 18.9,16.9999677 C18.9,18.1733683 18.1945312,19.1249717 17.325,19.1249717 Z" id="Shape"></path>
            </g>
        </g>
    </g>
</svg>