<?xml version="1.0" encoding="UTF-8"?>
<svg width="26px" height="34px" viewBox="0 0 26 34" version="1.1" xmlns="http://www.w3.org/2000/svg" xmlns:xlink="http://www.w3.org/1999/xlink">
    <title>Combined Shape</title>
    <g id="Page-1" stroke="none" stroke-width="1" fill="none" fill-rule="evenodd">
        <g id="5.H.-Edit---Updated-navigation" transform="translate(-166.000000, -722.000000)" fill="#214493" fill-rule="nonzero">
            <path d="M181.166667,722 L181.166667,731.03125 C181.166667,731.907812 181.897917,732.625 182.791667,732.625 L182.791667,732.625 L192,732.625 L192,754.40625 C192,755.289453 191.275521,756 190.375,756 L190.375,756 L167.625,756 C166.724479,756 166,755.289453 166,754.40625 L166,754.40625 L166,723.59375 C166,722.710547 166.724479,722 167.625,722 L167.625,722 L181.166667,722 Z M172.249983,746.666894 C171.318693,746.666894 170.541739,747.413371 170.541739,748.333447 C170.541739,749.253523 171.319397,750 172.249983,750 C173.181965,750 173.937485,749.253859 173.937485,748.333447 C173.937485,747.413035 173.181965,746.666894 172.249983,746.666894 Z M187.437499,747.222412 L177.312489,747.222412 C177.001828,747.222412 176.749988,747.471125 176.749988,747.777929 L176.749988,748.888965 C176.749988,749.195769 177.001828,749.444482 177.312489,749.444482 L187.437499,749.444482 C187.74816,749.444482 188,749.195769 188,748.888965 L188,747.777929 C188,747.471125 187.74816,747.222412 187.437499,747.222412 Z M174.609322,740.527054 C174.49718,740.527054 174.389652,740.571148 174.310493,740.649596 L172.071741,742.861945 L171.273693,742.094636 C171.194535,742.016188 171.087007,741.972094 170.974865,741.972094 C170.862723,741.972094 170.755195,742.016188 170.676037,742.094636 L170.124083,742.639391 C170.044649,742.717567 170,742.82376 170,742.93451 C170,743.04526 170.044649,743.151452 170.124083,743.229628 L171.792952,744.878821 C171.966273,745.041597 172.238381,745.041597 172.411702,744.878821 L172.963656,744.334067 L175.50194,741.826599 C175.665925,741.665035 175.667337,741.403113 175.505104,741.239834 L174.90815,740.649596 C174.828992,740.571148 174.721464,740.527054 174.609322,740.527054 Z M187.437499,741.667235 L177.312489,741.667235 C177.001828,741.667235 176.749988,741.915949 176.749988,742.222753 L176.749988,743.333788 C176.749988,743.640592 177.001828,743.889306 177.312489,743.889306 L187.437499,743.889306 C187.74816,743.889306 188,743.640592 188,743.333788 L188,742.222753 C188,741.915949 187.74816,741.667235 187.437499,741.667235 Z M174.609322,735 C174.49718,735 174.389652,735.044095 174.310493,735.122542 L172.071741,737.320656 L171.273693,736.552653 C171.194535,736.474205 171.087007,736.430111 170.974865,736.430111 C170.862723,736.430111 170.755195,736.474205 170.676037,736.552653 L170.124083,737.098449 C170.044649,737.176625 170,737.282818 170,737.393568 C170,737.504318 170.044649,737.610511 170.124083,737.688687 L171.797171,739.334408 C171.97061,739.497228 172.242833,739.497228 172.416273,739.334408 L172.964359,738.792084 L175.502643,736.285658 C175.667231,736.122983 175.668642,735.859806 175.505807,735.69542 L174.90815,735.122542 C174.828992,735.044095 174.721464,735 174.609322,735 Z M187.437499,736.112058 L177.312489,736.112058 C177.001828,736.112058 176.749988,736.360772 176.749988,736.667576 L176.749988,737.778611 C176.749988,738.085415 177.001828,738.334129 177.312489,738.334129 L187.437499,738.334129 C187.74816,738.334129 188,738.085415 188,737.778611 L188,736.667576 C188,736.360772 187.74816,736.112058 187.437499,736.112058 Z M183.746354,722 C184.179688,722 184.592708,722.166016 184.897396,722.464844 L191.526042,728.972656 C191.830729,729.271484 192,729.676563 192,730.094922 L192,730.5 L183.333333,730.5 L183.333333,722 L183.746354,722 Z" id="Combined-Shape"></path>
        </g>
    </g>
</svg>