<?xml version="1.0" encoding="UTF-8"?>
<svg width="36px" height="34px" viewBox="0 0 36 34" version="1.1" xmlns="http://www.w3.org/2000/svg" xmlns:xlink="http://www.w3.org/1999/xlink">
    <title>university-solid</title>
    <g id="Page-1" stroke="none" stroke-width="1" fill="none" fill-rule="evenodd">
        <g id="5.H.-Edit---Updated-navigation" transform="translate(-170.000000, -487.000000)" fill="#214493" fill-rule="nonzero">
            <g id="university-solid" transform="translate(170.000000, 487.000000)">
                <path d="M36,7.28573046 L36,8.50001544 C36,8.83533098 35.7313708,9.10715793 35.4,9.10715793 L33.6,9.10715793 L33.6,10.0178717 C33.6,10.5208133 33.197025,10.9285854 32.7,10.9285854 L3.3,10.9285854 C2.802975,10.9285854 2.4,10.5208133 2.4,10.0178717 L2.4,9.10715793 L0.6,9.10715793 C0.26862915,9.10715793 0,8.83533098 0,8.50001544 L0,7.28573046 C0,7.04009207 0.146273467,6.81865679 0.370575,6.7247308 L17.770575,0.0461634207 C17.9174774,-0.0153878069 18.0825226,-0.0153878069 18.229425,0.0461634207 L35.629425,6.7247308 C35.8537265,6.81865679 36,7.04009207 36,7.28573046 Z M34.2,30.3571451 L1.8,30.3571451 C0.805875,30.3571451 0,31.1726133 0,32.1785725 L0,33.3928575 C0,33.728173 0.26862915,34 0.6,34 L35.4,34 C35.7313708,34 36,33.728173 36,33.3928575 L36,32.1785725 C36,31.1726133 35.194125,30.3571451 34.2,30.3571451 Z M6,12.1428704 L6,26.7142901 L3.3,26.7142901 C2.802975,26.7142901 2.4,27.1220622 2.4,27.6250039 L2.4,29.1428601 L33.6,29.1428601 L33.6,27.6250039 C33.6,27.1220622 33.197025,26.7142901 32.7,26.7142901 L30,26.7142901 L30,12.1428704 L25.2,12.1428704 L25.2,26.7142901 L20.4,26.7142901 L20.4,12.1428704 L15.6,12.1428704 L15.6,26.7142901 L10.8,26.7142901 L10.8,12.1428704 L6,12.1428704 Z" id="Shape"></path>
            </g>
        </g>
    </g>
</svg>