<?xml version="1.0" encoding="UTF-8"?>
<svg width="80px" height="96px" viewBox="0 0 80 96" version="1.1" xmlns="http://www.w3.org/2000/svg" xmlns:xlink="http://www.w3.org/1999/xlink">
    <!-- Generator: Sketch 55.2 (78181) - https://sketchapp.com -->
    <title>verified icon</title>
    <description>Created with Sketch.</description>
    <g id="Page-1" stroke="none" stroke-width="1" fill="none" fill-rule="evenodd">
        <g id="verified-icon" fill="#479f4b" fill-rule="nonzero">
            <path d="M27.1,68 C26.6,67.6 26,67.3 25.4,67.3 L21.1,67 C16.8,66.7 13,64.5 10.5,61.3 L0.5,82.6 C-0.4,84.6 1.3,86.9 3.5,86.5 L12.4,84.8 C13.6,84.6 14.7,85.1 15.3,86.2 L19.7,94.2 C20.8,96.2 23.6,96.1 24.6,94 L34.3,73.3 C32.8,72.7 31.5,71.9 30.2,70.8 L27.1,68 Z" id="Path"></path>
            <path d="M79.4,82.6 L69.4,61.3 C66.9,64.5 63.1,66.6 58.8,67 L54.6,67.3 C54,67.4 53.4,67.6 52.9,68 L49.7,70.7 C48.5,71.7 47.1,72.6 45.6,73.2 L55.3,93.9 C56.2,95.9 59.1,96 60.1,94.1 L64.5,86.1 C65.1,85.1 66.2,84.5 67.4,84.7 L76.3,86.4 C78.6,86.8 80.4,84.6 79.4,82.6 Z" id="Path"></path>
            <path d="M49,63.5 C50.4,62.3 52.2,61.5 54.1,61.4 L58.3,61.1 C62.7,60.8 66.2,57.3 66.5,52.9 L66.8,48.7 C66.9,46.8 67.7,45 68.9,43.6 L71.7,40.4 C74.6,37.1 74.6,32.1 71.7,28.8 L68.9,25.6 C67.7,24.2 66.9,22.4 66.8,20.5 L66.5,16.3 C66.2,11.9 62.7,8.4 58.3,8.1 L54.1,7.8 C52.2,7.7 50.4,6.9 49,5.7 L45.8,2.9 C42.5,1.33226763e-15 37.5,1.33226763e-15 34.2,2.9 L31,5.4 C29.6,6.6 27.8,7.4 25.9,7.5 L21.7,7.8 C17.3,8.1 13.8,11.6 13.5,16 L13.2,20.2 C13.1,22.1 12.3,23.9 11.1,25.3 L8.3,28.5 C5.4,31.8 5.4,36.8 8.3,40.1 L11.1,43.3 C12.3,44.7 13.1,46.5 13.2,48.4 L13.5,52.6 C13.8,57 17.3,60.5 21.7,60.8 L25.9,61.1 C27.8,61.2 29.6,62 31,63.2 L34.2,66 C37.5,68.9 42.5,68.9 45.8,66 L49,63.5 Z M21.2,34.5 C21.2,24.1 29.6,15.7 40,15.7 C50.4,15.7 58.8,24.1 58.8,34.5 C58.8,44.9 50.4,53.3 40,53.3 C29.6,53.3 21.2,44.8 21.2,34.5 Z" id="Shape"></path>
            <path d="M48.2,25.7 C47.8,25.3 47,25.3 46.6,25.7 L37.8,34.5 L33.3,30 C32.9,29.6 32.1,29.6 31.7,30 L28,33.7 C27.6,34.1 27.6,34.9 28,35.3 L37.1,44.4 C37.5,44.8 38.3,44.8 38.7,44.4 L52,31.1 C52.4,30.7 52.4,29.9 52,29.5 L48.2,25.7 Z" id="Path"></path>
        </g>
    </g>
</svg>
