<?xml version="1.0" encoding="UTF-8"?>
<svg width="98px" height="69px" viewBox="0 0 98 69" version="1.1" xmlns="http://www.w3.org/2000/svg" xmlns:xlink="http://www.w3.org/1999/xlink">
    <!-- Generator: Sketch 63.1 (92452) - https://sketch.com -->
    <title>cloud-download-alt-solid</title>
    <description>Created with Sketch.</description>
    <g id="EDCI-+-Diploma-templates" stroke="none" stroke-width="1" fill="none" fill-rule="evenodd">
        <g id="5.A.-EDCI-Merge-Home-V3" transform="translate(-1398.000000, -1372.000000)" fill="#164194" fill-rule="nonzero">
            <g id="cloud-download-alt-solid" transform="translate(1398.000000, 1372.000000)">
                <path d="M82.32,29.7635163 C82.9478125,28.1269817 83.3,26.3375 83.3,24.4715447 C83.3,16.3653455 76.715625,9.78861789 68.6,9.78861789 C65.5834375,9.78861789 62.7659375,10.7063008 60.4384375,12.2663618 C56.196875,4.92489837 48.2803125,0 39.2,0 C25.66375,0 14.7,10.9510163 14.7,24.4715447 C14.7,24.884502 14.7153125,25.2974593 14.730625,25.7104167 C6.155625,28.7234756 0,36.8908537 0,46.495935 C0,58.6552337 9.8765625,68.5203252 22.05,68.5203252 L78.4,68.5203252 C89.2259375,68.5203252 98,59.7564533 98,48.9430894 C98,39.4756606 91.2625,31.5682927 82.32,29.7635163 Z M61.6444438,43.5313874 L45.5821847,59.5894426 C44.6373459,60.534034 43.0829338,60.534034 42.138095,59.5894426 L26.0758359,43.5313874 C24.5366631,41.9926174 25.6338952,39.3721378 27.7978808,39.3721378 L37.7644059,39.3721378 L37.7644059,22.3085497 C37.7644059,20.9678393 38.861638,19.8708943 40.2026995,19.8708943 L47.5175803,19.8708943 C48.8586417,19.8708943 49.9558739,20.9678393 49.9558739,22.3085497 L49.9558739,39.3721378 L59.922399,39.3721378 C62.0863845,39.3721378 63.1836167,41.9926174 61.6444438,43.5313874 L61.6444438,43.5313874 Z" id="Shape"></path>
            </g>
        </g>
    </g>
</svg>
