<?xml version="1.0" encoding="UTF-8"?>
<svg width="85px" height="74px" viewBox="0 0 85 74" version="1.1" xmlns="http://www.w3.org/2000/svg" xmlns:xlink="http://www.w3.org/1999/xlink">
    <!-- Generator: Sketch 63.1 (92452) - https://sketch.com -->
    <title>new-window</title>
    <description>Created with Sketch.</description>
    <g id="EDCI-+-Diploma-templates" stroke="none" stroke-width="1" fill="none" fill-rule="evenodd">
        <g id="5.A.-EDCI-Merge-Home-V3" transform="translate(-1404.000000, -1032.000000)" fill="#164194" fill-rule="nonzero">
            <g id="new-window" transform="translate(1404.000000, 1032.000000)">
                <path d="M80.8145904,0 L4.18540963,0 C1.8774033,0 0,1.88132398 0,4.19415023 L0,69.4725164 C0,71.7846929 1.8774033,73.6666667 4.18540963,73.6666667 L80.8145904,73.6666667 C83.1225967,73.6666667 85,71.7846929 85,69.4725164 L85,4.19415023 C85,1.88132398 83.1225967,0 80.8145904,0 Z M80.0195312,4.99086971 L80.0195312,18.1659858 L4.98046875,18.1659858 L4.98046875,4.99086971 L80.0195312,4.99086971 Z M4.98046875,68.6751471 L4.98046875,23.1568556 L80.0195312,23.1568556 L80.0195312,68.6751471 L4.98046875,68.6751471 Z" id="Shape"></path>
                <path d="M54.1426186,30.7620714 L47.7149336,30.79867 C46.3294032,30.8065128 45.2118292,31.9358413 45.2196716,33.3220135 C45.2275144,34.7036109 46.3496633,35.8179078 47.7286582,35.8179078 L47.7430364,35.8179078 L48.0639304,35.8159472 L41.2114366,42.6683831 C40.2311084,43.6480495 40.2311084,45.2374747 41.2114366,46.2171409 C41.7016008,46.7073009 42.3433888,46.952381 42.9858306,46.952381 C43.6282724,46.952381 44.2707141,46.7073009 44.7602246,46.2171409 L51.6127184,39.3647051 L51.6107577,39.6855965 C51.6035686,41.0717688 52.7204892,42.2010972 54.1066732,42.2089398 L54.1210514,42.2089398 C55.5000463,42.2089398 56.6221952,41.0946429 56.6300378,39.713699 L56.6666667,33.2860684 C56.6699045,32.6155297 56.4052159,31.9717862 55.9313907,31.4973115 C55.4575655,31.0234901 54.8072811,30.754229 54.1426186,30.7620714 L54.1426186,30.7620714 Z" id="Path"></path>
                <path d="M53.3326259,45.6716758 C51.9382247,45.6716758 50.8081088,46.8017917 50.8081088,48.1961928 L50.8081088,53.2366803 L33.3823673,53.2366803 L33.3823673,35.8109387 L38.4228548,35.8109387 C39.817256,35.8109387 40.9473719,34.6808231 40.9473719,33.2864218 C40.9473719,31.892678 39.817256,30.7619048 38.4228548,30.7619048 L30.8578503,30.7619048 C29.463449,30.7619048 28.3333333,31.892678 28.3333333,33.2864218 L28.3333333,55.7611973 C28.3333333,57.1549411 29.463449,58.2857143 30.8578503,58.2857143 L53.3326259,58.2857143 C54.7263696,58.2857143 55.8571429,57.1549411 55.8571429,55.7611973 L55.8571429,48.1961928 C55.8571429,46.8017917 54.7270272,45.6716758 53.3326259,45.6716758 L53.3326259,45.6716758 Z" id="Path"></path>
                <path d="M74.4761905,12.1428571 C74.4761905,13.931157 73.0265419,15.3809524 71.2377673,15.3809524 C69.4496487,15.3809524 68,13.931157 68,12.1428571 C68,10.3545575 69.4496487,8.9047619 71.2377673,8.9047619 C73.0265419,8.9047619 74.4761905,10.3545575 74.4761905,12.1428571 L74.4761905,12.1428571 Z" id="Path"></path>
                <path d="M64.7619048,12.1428571 C64.7619048,13.931157 63.312256,15.3809524 61.5241375,15.3809524 C59.7353628,15.3809524 58.2857143,13.931157 58.2857143,12.1428571 C58.2857143,10.3545575 59.7353628,8.9047619 61.5241375,8.9047619 C63.312256,8.9047619 64.7619048,10.3545575 64.7619048,12.1428571 L64.7619048,12.1428571 Z" id="Path"></path>
                <path d="M55.8571429,12.1428571 C55.8571429,13.931157 54.4074941,15.3809524 52.6187197,15.3809524 C50.8306009,15.3809524 49.3809524,13.931157 49.3809524,12.1428571 C49.3809524,10.3545575 50.8306009,8.9047619 52.6187197,8.9047619 C54.4074941,8.9047619 55.8571429,10.3545575 55.8571429,12.1428571 Z" id="Path"></path>
            </g>
        </g>
    </g>
</svg>
