<?xml version="1.0" encoding="UTF-8"?>
<svg width="98px" height="69px" viewBox="0 0 98 69" version="1.1" xmlns="http://www.w3.org/2000/svg" xmlns:xlink="http://www.w3.org/1999/xlink">
    <!-- Generator: Sketch 63.1 (92452) - https://sketch.com -->
    <title>cloud-download-alt-solid</title>
    <description>Created with Sketch.</description>
    <g id="EDCI-+-Diploma-templates" stroke="none" stroke-width="1" fill="none" fill-rule="evenodd">
        <g id="5.A.-EDCI-Merge-Home-V3" transform="translate(-1141.000000, -1800.000000)" fill="#164194" fill-rule="nonzero">
            <g id="cloud-download-alt-solid" transform="translate(1141.000000, 1800.000000)">
                <path d="M82.32,29.7635163 C82.9478125,28.1269817 83.3,26.3375 83.3,24.4715447 C83.3,16.3653455 76.715625,9.78861789 68.6,9.78861789 C65.5834375,9.78861789 62.7659375,10.7063008 60.4384375,12.2663618 C56.196875,4.92489837 48.2803125,0 39.2,0 C25.66375,0 14.7,10.9510163 14.7,24.4715447 C14.7,24.884502 14.7153125,25.2974593 14.730625,25.7104167 C6.155625,28.7234756 0,36.8908537 0,46.495935 C0,58.6552337 9.8765625,68.5203252 22.05,68.5203252 L78.4,68.5203252 C89.2259375,68.5203252 98,59.7564533 98,48.9430894 C98,39.4756606 91.2625,31.5682927 82.32,29.7635163 Z M26.0758359,36.6373931 L42.138095,20.5793379 C43.0829338,19.6347464 44.6373459,19.6347464 45.5821847,20.5793379 L61.6444438,36.6373931 C63.1836167,38.1761631 62.0863845,40.7966427 59.922399,40.7966427 L49.9558739,40.7966427 L49.9558739,57.8602307 C49.9558739,59.2009412 48.8586417,60.2978862 47.5175803,60.2978862 L40.2026995,60.2978862 C38.861638,60.2978862 37.7644059,59.2009412 37.7644059,57.8602307 L37.7644059,40.7966427 L27.7978808,40.7966427 C25.6338952,40.7966427 24.5366631,38.1761631 26.0758359,36.6373931 L26.0758359,36.6373931 Z" id="Shape"></path>
            </g>
        </g>
    </g>
</svg>
